SplineFontDB: 3.0
FontName: WireWyrmItalic
FullName: WireWyrm Italic
FamilyName: WireWyrm
Weight: Light
Copyright: Created by James,,, with FontForge 2.0 (http://fontforge.sf.net)
UComments: "2011-11-17: Created." 
Version: 001.000
ItalicAngle: -12
UnderlinePosition: -204
UnderlineWidth: 102
Ascent: 1618
Descent: 430
LayerCount: 2
Layer: 0 0 "Back"  1
Layer: 1 0 "Fore"  0
XUID: [1021 701 1124907257 9794733]
FSType: 0
OS2Version: 0
OS2_WeightWidthSlopeOnly: 0
OS2_UseTypoMetrics: 1
CreationTime: 1321514954
ModificationTime: 1325450005
OS2TypoAscent: 0
OS2TypoAOffset: 1
OS2TypoDescent: 0
OS2TypoDOffset: 1
OS2TypoLinegap: 184
OS2WinAscent: 0
OS2WinAOffset: 1
OS2WinDescent: 0
OS2WinDOffset: 1
HheadAscent: 0
HheadAOffset: 1
HheadDescent: 0
HheadDOffset: 1
Lookup: 1 0 0 "'smcp' Lowercase to Small Capitals in Latin lookup 0"  {"'smcp' Lowercase to Small Capitals in Latin lookup 0 subtable"  } ['smcp' ('latn' <'dflt' > ) ]
Lookup: 1 0 0 "'c2sc' Capitals to Small Capitals in Latin lookup 0"  {"'c2sc' Capitals to Small Capitals in Latin lookup 0 subtable"  } ['c2sc' ('latn' <'dflt' > ) ]
Lookup: 258 0 0 "'kern' Horizontal Kerning in Latin lookup 0"  {"'kern' Horizontal Kerning in Latin lookup 0-1" [307,30,0] } ['kern' ('DFLT' <'dflt' > 'latn' <'dflt' > ) ]
Lookup: 258 0 0 "WireWyrm-'kern' Horizontal Kerning in Latin lookup 0"  {"WireWyrm-'kern' Horizontal Kerning in Latin lookup 0-1" [307,30,0] } ['kern' ('DFLT' <'dflt' > 'latn' <'dflt' > ) ]
MarkAttachClasses: 1
DEI: 91125

StartChar: b
Encoding: 98 98 0
Width: 926
VWidth: 0
Flags: W
HStem: -17.8975 35.7939<366.176 593.392> 896.1 35.793<618.725 774.478> 1372.64 36.0937<361.336 453.33>
VStem: 163.271 117.066<-9.32465 199.043> 163.271 53.5563<-15.7941 90.9508> 927.197 54.0771<410.371 730.017>
LayerCount: 2
Back
SplineSet
240.388671875 1368 m 29
 240.388671875 1368 381.307817263 1420.31638361 375.388671875 1368 c 28
 314.077148438 826.099609375 85.611328125 0 85.611328125 0 c 13
244.28515625 643 m 4
 274.893554688 787 478.963867188 913.99609375 596.963867188 913.99609375 c 4
 773.963867188 913.99609375 891.864257812 721 835.112304688 454 c 4
 778.359375 187 573.611328125 0 396.611328125 0 c 4
 258.611328125 0 104.4375 18 161.189453125 285 c 4
EndSplineSet
Fore
SplineSet
163.27089484 -5.28834943051 m 0xf4
 163.27089484 0.904167055082 243.034564288 284.285434562 322.149414062 637.85546875 c 1
 321.61670252 644.405399305 324.736542615 651.359983208 326.442382812 657.109375 c 0
 378.5625 891.744140625 429.048828125 1150.74707031 453.286132812 1364.95996094 c 0
 454.26171875 1373.58691406 452.440429688 1375.17480469 430.127929688 1372.64453125 c 0
 384.03177632 1367.41505537 357.823886243 1349.82710716 338.287462221 1349.82710716 c 0
 326.35045526 1349.82710716 319.269452092 1356.42228235 319.269452092 1364.13475379 c 0
 319.269452092 1370.71357035 324.421776581 1378.1053611 336.107421875 1382.91015625 c 0
 342.54277185 1385.29348882 409.342776198 1408.73819055 457.558699986 1408.73819055 c 0
 485.561381039 1408.73819055 507.295624258 1400.83025801 507.295624258 1376.29579559 c 0
 507.295624258 1374.62216811 507.1944875 1372.87117178 506.987304688 1371.04003906 c 0
 486.842773438 1192.99511719 448.774414062 984.642578125 406.681640625 784.927734375 c 1
 489.599609375 870.244140625 614.557617182 931.892578125 708.239257812 931.892578125 c 3
 875.651729773 931.892578125 981.274387878 790.199483 981.274387878 590.415200431 c 0
 981.274387878 265.748779339 735.714138625 -17.8961705898 494.83203125 -17.8974609375 c 0
 392.694335938 -17.8974609375 281.139648438 -5.05078125 241.938476562 94.5419921875 c 1
 226.327148438 35.4130859375 216.844726562 1.14453125 216.827148438 1.0791015625 c 0xec
 213.959312398 -9.29299219361 195.371780198 -16.7170323457 180.889481357 -16.7170323457 c 0
 171.152290082 -16.7170323457 163.27089484 -13.3609492534 163.27089484 -5.28834943051 c 0xf4
292.55859375 291.760742188 m 0
 292.93359375 290.224609375 292.961914062 288.578125 292.595703125 286.85546875 c 0
 284.175154364 247.239594971 280.337241751 213.451357153 280.337241751 184.634677814 c 0xf4
 280.337241751 24.5995242982 398.706246402 17.897311925 507.885742188 17.896484375 c 0
 637.163085938 17.8974609375 808.5625 145.551757812 887.260742188 361.639648438 c 0
 908.840770446 420.894542152 927.197337224 505.593538394 927.197337224 579.264845338 c 0
 927.197337224 773.495333594 820.623525417 896.099609375 695.185546875 896.099609375 c 0
 604.478541229 896.099609375 419.834984885 791.683811074 379.672851562 660.221679688 c 1
 349.600585938 524.841796875 318.997070312 397.633789062 292.55859375 291.760742188 c 0
EndSplineSet
Validated: 524289
Substitution2: "'smcp' Lowercase to Small Capitals in Latin lookup 0 subtable" b.sc
EndChar

StartChar: c
Encoding: 99 99 1
Width: 818
VWidth: 0
Flags: W
HStem: -17.8965 35.7939<345.419 564.119> 896.503 35.7939<488.366 709.726>
VStem: 120.685 53.9811<197.967 526.128>
LayerCount: 2
Back
SplineSet
686.638671875 109.200195312 m 5
 590.6484375 41.2001953125 511.3828125 0 358.8828125 0 c 4
 181.690429688 0 49.958984375 187.583984375 96.970703125 454.200195312 c 4
 143.982421875 720.81640625 342.924804688 914.400390625 520.1171875 914.400390625 c 5
 664.931640625 914.161132812 755.254882812 874.16015625 807.385742188 784.16015625 c 5
EndSplineSet
Fore
SplineSet
120.685145976 342.89291396 m 0
 120.685145976 654.874376408 350.955331479 932.296875 586.985351562 932.296875 c 0
 740.092773438 932.044921875 838.657226562 887.998046875 893.173828125 793.87890625 c 0
 894.257710156 792.007619086 894.752614308 790.128157436 894.752614308 788.278368714 c 0
 894.752614308 776.715582367 875.415046725 766.312216972 859.716707648 766.312216972 c 0
 852.217850393 766.312216972 845.549402216 768.686085237 842.215820312 774.44140625 c 0
 792.554327239 860.179137077 710.35369435 896.50239263 573.835437494 896.502929693 c 0
 449.718448358 896.502929693 288.55439033 773.372229173 213.616210938 567.169921875 c 0
 191.806493335 507.155110569 174.666280576 430.476013385 174.666280576 353.312337902 c 0
 174.666280576 147.111254771 294.21223251 17.8974609375 425.719726562 17.8974609375 c 0
 569.046875 17.8974609375 635.965820312 53.3525390625 729.526367188 119.630859375 c 0
 735.352999474 123.758862966 743.093007429 125.576076525 750.506599823 125.576076525 c 0
 762.95712804 125.576076525 774.487018042 120.450719612 774.487018042 112.537936656 c 0
 774.487018042 108.554995184 771.565729154 103.865813085 764.370117188 98.7685546875 c 0
 665.950195312 29.0478515625 574.337890625 -17.896484375 412.665039062 -17.896484375 c 0
 239.048158114 -17.896484375 120.685145976 131.105586443 120.685145976 342.89291396 c 0
EndSplineSet
Validated: 524289
Substitution2: "'smcp' Lowercase to Small Capitals in Latin lookup 0 subtable" c.sc
EndChar

StartChar: e
Encoding: 101 101 2
Width: 892
VWidth: 0
Flags: W
HStem: -18 36<342.909 554.987> 513 36<222.027 867.63> 896 36<518.386 711.095>
VStem: 125.758 56.7138<183.074 499.314> 872.398 57.4352<551.984 766.983>
LayerCount: 2
Back
SplineSet
236.75 531.081115723 m 29
 936.75 533.081054688 l 21
 932.994143359 754.676596522 817.75 911.684570312 573.375 914 c 5
 396.182617188 914 231.5 720.81640625 231.5 454.200195312 c 4
 231.5 187.583984375 396.307617188 0 573.5 0 c 4
 726 0 798 41.2001953125 882 109.200195312 c 5
EndSplineSet
Fore
SplineSet
222.02734375 549 m 1
 865.452148438 551 l 1
 870.071072901 579.927459182 872.397688686 607.44297665 872.397688686 633.385156647 c 0
 872.397688686 793.977625454 783.239326335 894.278148646 596.784179688 896 c 0
 590.784179688 896 583.784179688 896 577.571289062 895 c 0
 456.233398438 884 297.026367188 756 222.02734375 549 c 1
209.375 513 m 1
 193.56065233 464.141458891 182.471948835 391.874967759 182.471948835 336.865307194 c 0
 182.471948835 141.291574258 294.265659171 18 423.159179688 18 c 0
 566.159179688 18 632.38671875 52 727.415039062 118 c 0
 739.115234375 126 757.965820312 130 766.903320312 125 c 0
 775.83984375 120 774.2890625 108 762.588867188 100 c 0
 660.709960938 30 564.506835938 -18 402.506835938 -18 c 0
 236.346697522 -18 125.758145828 120.045957992 125.758145828 320.443346866 c 0
 125.758145828 361.255902548 130.344986299 404.654585477 139.983398438 450 c 0
 191.605709939 692.82551615 373.768187988 897.779893257 571.5859375 928 c 0
 587.010742188 930 602.436523438 932 618.436523438 932 c 0
 834.873900118 930.357674148 929.832859752 814.568333476 929.832859752 648.152211965 c 0
 929.832859752 612.545132352 925.485577214 574.620325994 917.05078125 535 c 1
 912.92578125 525 894.799804688 515 879.799804688 515 c 2
 209.375 513 l 1
EndSplineSet
Validated: 524289
Substitution2: "'smcp' Lowercase to Small Capitals in Latin lookup 0 subtable" e.sc
EndChar

StartChar: z
Encoding: 122 122 3
Width: 983
VWidth: 0
Flags: W
HStem: -149.493 35.7939<505.931 722.283> 895.103 35.7939<235.343 912.422>
VStem: 867.748 53.8322<9.40618 120.17>
LayerCount: 2
Back
SplineSet
982.529296875 104 m 4
 978.923075123 55.5362782778 960.517411681 8.30352653884 930.532742897 -29.9411697786 c 4
 882.865286897 -90.7398196521 807.688656031 -131.59621637 706.178855405 -131.59621637 c 4
 638.184592011 -131.59621637 586.00203355 -115.413988752 527.702453613 -98.4999847412 c 6
 188.190429688 0 l 5
 1045.17773438 913 l 5
 349.177734375 913 l 5
  Spiro
    982.529 104 {
    527.702 -98.5 [
    188.19 0 v
    1045.18 913 v
    349.178 913 v
    0 0 z
  EndSpiro
EndSplineSet
Fore
SplineSet
867.748046875 100.508789062 m 0
 868.609481449 112.094374111 888.711737889 121.285405078 904.099794902 121.285405078 c 0
 913.771103689 121.285405078 921.580278704 117.654899106 921.580278704 108.706602988 c 0
 921.580278704 -45.1147577698 771.81136414 -149.493164062 611.762695312 -149.493164062 c 0
 537.518554688 -149.493164062 482.1328125 -131.969726562 424.376953125 -115.213867188 c 2
 84.865234375 -16.712890625 l 2
 77.1028940173 -14.4612585686 73.8186680871 -9.43571488126 73.8186680871 -4.16536430127 c 0
 73.8186680871 -0.413581323592 75.4829597309 3.46225830381 78.380859375 6.5498046875 c 2
 912.421875 895.102539062 l 1
 254.762695312 895.102539062 l 2
 240.534179688 895.102539062 231.612304688 903.251953125 235.16796875 913 c 0
 238.72265625 922.748046875 253.587890625 930.896484375 267.81640625 930.896484375 c 2
 963.81640625 930.896484375 l 2
 975.641867123 930.896484375 984.093608914 924.811901041 984.093608914 916.97224624 c 0
 984.093608914 913.668567867 982.592722381 910.053218457 979.2109375 906.450195312 c 2
 137.997070312 10.255859375 l 1
 455.250976562 -81.787109375 l 2
 514.09375 -98.8583984375 563.072265625 -113.69921875 624.817382812 -113.69921875 c 0
 759.994140537 -113.69921875 858.304973234 -26.3845272958 867.748046875 100.508789062 c 0
EndSplineSet
Validated: 524289
Substitution2: "'smcp' Lowercase to Small Capitals in Latin lookup 0 subtable" z.sc
EndChar

StartChar: v
Encoding: 118 118 4
Width: 1032
VWidth: 0
Flags: W
HStem: -17.6307 21G<563.966 574.711> 911.876 19.5094G<380.564 393.193 1013.31 1035.85>
VStem: 351.656 53.8569<683.134 930.247> 998.318 54.3448<714.213 931.236>
LayerCount: 2
Back
SplineSet
336.581054688 914 m 21
 327.95942688 658.295654297 474.78515625 314 535.418945312 0 c 5
 741.903320312 309 1048.95898438 730.295898438 970.581054688 914 c 13
EndSplineSet
Fore
SplineSet
1021.14030092 931.876303967 m 0
 1050.56430852 931.876303967 1052.66308304 875.475593663 1052.66308304 848.687230223 c 0
 1052.66308304 633.979967215 784.163713383 268.911815064 602.032226562 -3.6435546875 c 0
 597.499056991 -10.4289765298 581.221206537 -17.6306814717 568.201040625 -17.6306814717 c 0
 559.7304308 -17.6306814717 552.638633899 -14.5825644044 551.056640625 -6.388671875 c 0
 492.435312693 297.183318039 351.656191932 630.493421702 351.656191932 887.476661356 c 0
 351.656191932 895.065917017 351.778971759 902.588604574 352.030273438 910.041992188 c 0
 352.429064873 921.842097426 372.781522625 931.385722584 388.345628433 931.385722584 c 0
 398.04003406 931.385722584 405.876720405 927.683117453 405.876720405 918.516951397 c 0
 405.876720405 911.268965497 405.513075938 903.968203369 405.513075938 896.577746149 c 0
 405.513075938 662.209943365 528.773512915 352.933460389 592.939453125 62.25390625 c 1
 775.018277157 331.965731982 998.318329641 659.192013842 998.318329641 842.694595534 c 0
 998.318329641 866.096167467 994.686758724 887.160333726 986.875 905.469726562 c 0
 986.251754864 906.930623815 985.961351641 908.385932459 985.961351641 909.819606111 c 0
 985.961351641 921.575266078 1005.48652307 931.876303967 1021.14030092 931.876303967 c 0
EndSplineSet
Validated: 524289
Substitution2: "'smcp' Lowercase to Small Capitals in Latin lookup 0 subtable" v.sc
EndChar

StartChar: w
Encoding: 119 119 5
Width: 1534
VWidth: 0
Flags: W
HStem: -18.0324 21G<404.824 415.528 1044.82 1055.53>
VStem: 285.233 53.9836<479.614 927.052> 867.062 53.5665<736.287 804.617>
LayerCount: 2
Back
SplineSet
1440 913 m 21
 1428 745 1308 309 1156 0 c 5
 1040 314 856 597 852 789 c 5
 840 621 668 309 516 0 c 5
 400 314 260 721 256 913 c 13
EndSplineSet
Fore
SplineSet
1476.92578125 911.5703125 m 0
 1479.54107766 922.128046606 1498.37387719 929.80141248 1512.9900441 929.80141248 c 0
 1522.69811667 929.80141248 1530.54596711 926.41620769 1530.54596711 918.242521833 c 0
 1530.54596711 917.071276859 1530.38482453 915.801708376 1530.04492188 914.4296875 c 0
 1487.64453125 743.291015625 1290.79199219 307.694335938 1082.74414062 -3.64453125 c 0
 1077.97137114 -10.7863727597 1061.96856393 -18.0324461954 1049.08554582 -18.0324461954 c 0
 1040.56200382 -18.0324461954 1033.40408289 -14.8604056102 1031.76757812 -6.388671875 c 0
 983.580078125 243.16015625 888.216796875 474.28125 866.728515625 656.920898438 c 1
 777.271484375 479.81640625 603.58203125 237.044921875 442.744140625 -3.64453125 c 0
 437.971437447 -10.7869660401 421.969041334 -18.0324461954 409.086123918 -18.0324461954 c 0
 400.562335005 -18.0324461954 393.404131762 -14.8606585884 391.767578125 -6.388671875 c 0
 341.296775185 254.986102051 285.233208185 579.715858326 285.233208185 794.536082561 c 0
 285.233208185 838.204571696 287.549891801 877.331330332 292.701171875 910.4609375 c 0
 294.431618238 921.585557224 313.984706354 930.066534778 329.017420817 930.066534778 c 0
 338.676217768 930.066534778 346.468868836 926.565332764 346.468868836 918.014570208 c 0
 346.468868836 885.511506305 339.216776818 848.224920918 339.216776818 805.163464664 c 0
 339.216776818 610.006568529 386.876368947 314.884940772 434.350585938 63.34765625 c 1
 628.87109375 351.719726562 829.530273438 636.0859375 867.061523438 787.5703125 c 0
 869.382657295 796.939067189 889.697601272 805.996643658 904.6256124 805.996643658 c 0
 913.600330256 805.996643658 920.627988402 802.722861952 920.627988402 794.274720045 c 0
 920.627988402 775.374192824 916.34462595 755.965887355 916.34462595 735.319887136 c 0
 916.34462595 563.408215627 1015.10105641 326.317846616 1073.31152344 63.759765625 c 1
 1263.46191406 364.530273438 1438.70410156 757.301757812 1476.92578125 911.5703125 c 0
EndSplineSet
Validated: 524289
Substitution2: "'smcp' Lowercase to Small Capitals in Latin lookup 0 subtable" w.sc
EndChar

StartChar: x
Encoding: 120 120 6
Width: 1027
VWidth: 0
Flags: W
HStem: -17.0082 21G<847.461 867.137> 911.067 20G<362.635 377.353>
VStem: 171.535 53.7419<-11.945 59.1202> 335.626 53.8766<850.882 930.096> 521.814 53.9589<438.502 601.23> 684.451 54.0383<366.879 551.806> 836.576 54.025<-16.0505 119.486> 999.545 53.7412<868.097 925.944>
LayerCount: 2
Back
SplineSet
336.581054688 914 m 20
 325.428710938 842.274414062 543.38671875 623.033203125 520.720703125 495.110351562 c 4
 496.603515625 359 193.46484375 125.030273438 172.124023438 4 c 4
999.875976562 910 m 4
 988.43359375 845.108398438 709.859375 627 687.2890625 499 c 4
 662.250976562 357 857.526367188 125.37890625 835.418945312 0 c 4
EndSplineSet
Fore
SplineSet
890.60113402 26.6902353519 m 0
 890.60113402 -1.97223842344 881.981353558 -17.0082469772 852.293099237 -17.0082469772 c 0
 842.629263067 -17.0082469772 834.831307641 -13.535946925 834.831307641 -5.07631433072 c 0
 834.831307641 1.70366860548 836.57616749 8.41568097851 836.57616749 15.7387399128 c 0
 836.57616749 127.802581976 684.450530795 324.197999986 684.450530795 466.670972097 c 0
 684.450530795 476.983638331 685.247569414 487.013786294 686.95703125 496.708984375 c 0
 711.196289062 634.16796875 990.823242188 858.248046875 999.544921875 907.708984375 c 0
 1001.48400355 918.710078098 1020.88218451 927.007430472 1035.82222062 927.007430472 c 0
 1045.48699752 927.007430472 1053.28610562 923.535109155 1053.28610562 915.076163387 c 0
 1053.28610562 834.050410283 761.014900622 617.961528 740.442382812 501.291015625 c 0
 739.113331742 493.753428283 738.488821598 485.900899512 738.488821598 477.768690344 c 0
 738.488821598 350.851345998 890.60113402 155.812078462 890.60113402 26.6902353519 c 0
335.625869339 903.549281812 m 0
 335.625869339 921.85898965 352.74682374 931.066562136 372.522974767 931.066562136 c 0
 382.182321658 931.066562136 389.975685645 927.565190123 389.975685645 919.014347356 c 0
 389.975685645 916.970530696 389.502445369 914.968742813 389.502445369 912.799089759 c 0
 389.502445369 852.919717532 575.773271866 655.037914284 575.773271866 519.937713769 c 0
 575.773271866 512.20371692 575.162834885 504.675464646 573.872070312 497.390625 c 0
 547.795898438 350.221679688 244.478515625 115.188476562 225.27734375 6.291015625 c 0
 223.337324375 -4.70909423284 203.937240689 -13.0084924007 188.996961147 -13.0084924007 c 0
 179.33322975 -13.0084924007 171.535396958 -9.53617949774 171.535396958 -1.07644242273 c 0
 171.535396958 130.257042554 499.109111242 372.716344003 520.390625 492.830078125 c 0
 521.35497725 498.272407941 521.814336689 503.917465544 521.814336689 509.743431762 c 0
 521.814336689 627.035333639 335.625869339 817.653469621 335.625869339 903.549281812 c 0
EndSplineSet
Validated: 524289
Substitution2: "'smcp' Lowercase to Small Capitals in Latin lookup 0 subtable" x.sc
EndChar

StartChar: l
Encoding: 108 108 8
Width: 435
VWidth: 0
Flags: W
HStem: -17.8965 35.7939<246.567 319.658> 1350.1 35.7939<321.468 414.404> 1373.37 35.972<386.891 452.848>
VStem: 179.684 54.211<21.446 156.025>
LayerCount: 2
Back
SplineSet
210.388671875 1368 m 29
 263.0390625 1368 351.026367188 1420.34765625 345.388671875 1368 c 28
 289.9453125 853.216796875 70.501953125 69.1796875 70.501953125 69.1796875 c 5
 66.572265625 49.7138671875 83.025390625 0.9697265625 126.962890625 0 c 5
 184.962890625 0 211.764648438 32 223.291015625 58 c 13
EndSplineSet
Fore
SplineSet
321.29296875 1368 m 0xd0
 324.848632812 1377.74804688 339.713867188 1385.89746094 353.942382812 1385.89746094 c 1xd0
 353.942382812 1385.89746094 416.245007396 1409.3391414 462.011107907 1409.3391414 c 0
 488.578314576 1409.3391414 509.573045386 1401.43976679 509.573045386 1376.4698487 c 0
 509.573045386 1374.76191412 509.474821178 1372.97411472 509.2734375 1371.10351562 c 0
 454.47265625 862.288085938 240.592773438 93.900390625 234.140625 70.7744140625 c 1
 233.974809597 69.6937248665 233.8947667 68.5557098191 233.8947667 67.3709396031 c 0
 233.8947667 48.7322007563 253.704908806 18.5218351326 271.016601562 17.8974609375 c 0
 308.266601562 18.162109375 324.133789062 35.3896484375 334.584960938 58.962890625 c 0
 338.691512475 68.2260962665 355.655809241 74.2552266131 369.300031724 74.2552266131 c 0
 379.339317603 74.2552266131 387.581157453 70.9911320576 387.581157453 63.3495397776 c 0
 387.581157453 61.5055223587 387.101217963 59.4065941357 386.05078125 57.037109375 c 0
 373.499023438 28.7265625 336.43359375 -17.896484375 257.044921875 -17.896484375 c 1
 198.304993975 -16.600946705 179.683734899 29.1713075481 179.683734899 56.518323248 c 0
 179.683734899 60.9715517759 180.177521302 64.9361918444 181.072265625 68.140625 c 2
 181.072265625 68.140625 400.276367188 851.623046875 455.557617188 1364.89648438 c 0
 456.05859375 1369.5546875 455.5 1372.00585938 454.876953125 1373.3671875 c 1xb0
 443.171146484 1373.14551251 389.286463343 1350.10351559 340.890771824 1350.10351559 c 0
 326.660889313 1350.10365916 317.737653765 1358.25023237 321.29296875 1368 c 0xd0
EndSplineSet
Validated: 524289
Substitution2: "'smcp' Lowercase to Small Capitals in Latin lookup 0 subtable" l.sc
EndChar

StartChar: i
Encoding: 105 105 9
Width: 470
VWidth: 0
Flags: W
HStem: -17.8975 35.7949<257.664 330.742> 896.103 35.7939<236.926 342.225> 919.497 34.8163<306.86 393.408> 1285.2 96<486.572 540.56>
VStem: 190.735 54.2391<21.4032 149.271> 370.948 53.8506<703.323 932.653> 483.759 59.614<1288.47 1377.93>
LayerCount: 2
Back
SplineSet
153.762695312 914 m 31
 206.413085938 914 288.762695312 966.650247937 288.762695312 914 c 7
 288.762695312 688.218133238 109.501953125 69.1796875 109.501953125 69.1796875 c 5
 105.572265625 49.7138671875 122.025390625 0.9697265625 165.962890625 0 c 5
 223.962890625 0 250.764648438 32 262.291015625 58 c 13
196 1333.19995117 m 0
 196 1359.69595117 208.544 1381.19995117 224 1381.19995117 c 0
 239.456 1381.19995117 252 1359.69595117 252 1333.19995117 c 0
 252 1306.70395117 239.456 1285.19995117 224 1285.19995117 c 0
 208.544 1285.19995117 196 1306.70395117 196 1333.19995117 c 0
EndSplineSet
Fore
SplineSet
483.759384497 1316.77994933 m 0x9e
 483.759384497 1348.95340828 505.107965758 1381.20019531 523.76953125 1381.20019531 c 0
 535.861722976 1381.20019531 543.373428003 1368.03794592 543.373428003 1349.6204413 c 0
 543.373428003 1317.44698235 522.024846742 1285.20019531 503.36328125 1285.20019531 c 0
 491.271089524 1285.20019531 483.759384497 1298.36244471 483.759384497 1316.77994933 c 0x9e
190.734808062 56.4270279953 m 0
 190.734808062 68.590216193 370.947215904 676.050189135 370.948242188 909.661132812 c 0
 370.948242188 915.800386587 369.376414817 919.496502268 368.317486497 919.496502268 c 0xbe
 358.892916332 919.496502268 307.459965395 896.103505835 256.346679688 896.102539062 c 0
 242.118164062 896.102539062 233.196289062 904.251953125 236.750976562 914 c 0
 240.306640625 923.748046875 255.171875 931.896484375 269.399414062 931.896484375 c 0xde
 284.770751254 931.896484375 340.633980775 954.312786062 380.983677405 954.312786062 c 0xbe
 405.832014773 954.312786062 424.797000142 945.811628119 424.798828125 918.338867188 c 0
 424.797851562 692.794921875 251.73828125 93.3291015625 245.217773438 70.7314453125 c 1
 245.053289663 69.6595971712 244.973878817 68.5304487286 244.973878817 67.3544824563 c 0
 244.973878817 48.778734563 264.788359892 18.5210684433 282.100585938 17.8974609375 c 0
 319.349609375 18.1611328125 335.217773438 35.3896484375 345.668945312 58.962890625 c 0
 349.775387222 68.2258489752 366.739959627 74.2552208565 380.384115516 74.2552208565 c 0
 390.422920386 74.2552208565 398.664248656 70.9912764644 398.664248656 63.3498373418 c 0
 398.664248656 61.5057513295 398.184284014 59.4067255035 397.133789062 57.037109375 c 0
 384.583007812 28.7265625 347.518554688 -17.8974609375 268.12890625 -17.8974609375 c 1
 209.57054996 -16.6042667819 190.734808062 29.0198153981 190.734808062 56.4270279953 c 0
EndSplineSet
Validated: 524289
Substitution2: "'smcp' Lowercase to Small Capitals in Latin lookup 0 subtable" i.sc
EndChar

StartChar: r
Encoding: 114 114 10
Width: 919
VWidth: 0
Flags: W
HStem: -16.6623 21G<183.429 195.506> 893.152 35.7939<239.896 321.001 619.057 795.758> 919.497 34.8173<310.083 391.226>
VStem: 170.643 53.5107<-15.7446 84.9739> 373.918 53.8496<737.813 932.653> 894.002 53.8388<634.423 816.531>
LayerCount: 2
Back
SplineSet
173.762695312 914 m 31
 226.413085938 914 308.762695312 966.650390625 308.762695312 914 c 7
 308.762695312 688.217773438 105.669921875 0 105.669921875 0 c 5
257.079101562 584.049804688 m 28
 288.301757812 761.125976562 452.661132812 911.049804688 629.737304688 911.049804688 c 31
 753.93359375 911.049804688 847.549804688 819.24609375 825.651367188 695.049804688 c 28
 818.79296875 656.157226562 800.955078125 623.049804688 773.252929688 602.049804688 c 4
EndSplineSet
Fore
SplineSet
170.642574175 -5.31208232971 m 0xdc
 170.642574175 0.680700864637 261.203305854 303.355855918 322.27734375 578.862304688 c 1
 321.17646619 591.855378106 327.734953192 607.671016354 331.127929688 619.590820312 c 0
 356.145507812 737.193359375 373.91796875 843.888671875 373.91796875 909.662109375 c 0
 373.91796875 915.801360251 372.345213157 919.496501977 371.288200515 919.496501977 c 0
 361.863816992 919.496501977 310.43086167 896.103515595 259.318598068 896.103515595 c 0
 245.088672142 896.103650169 236.165372872 904.250190498 239.720703125 914 c 0
 243.276367188 923.748046875 258.141601562 931.897460938 272.370117188 931.897460938 c 1
 272.370117188 931.897460938 331.888559622 954.31376831 377.256343075 954.31376831 c 0xbc
 405.195271821 954.31376831 427.767578125 945.812407463 427.767578125 918.338867188 c 0
 427.767578125 880.504882812 422.263671875 830.309570312 413.065429688 772.840820312 c 1
 488.723523605 864.15046085 602.566657301 928.945859438 728.345805694 928.94628907 c 0
 857.12099796 928.94628907 947.840991642 846.282789131 947.840991642 735.039847359 c 0
 947.840991642 671.74677476 926.771527184 624.964850647 883.623046875 592.254882812 c 0
 872.860351562 584.096679688 855.536132812 581.736328125 845.573242188 587.071289062 c 0
 835.611328125 592.40625 836.280273438 603.686523438 847.041992188 611.844726562 c 0
 873.075679081 631.579228197 894.002179104 674.772578003 894.002179104 726.355973917 c 0
 894.002179104 826.56364079 810.458280699 893.152343759 715.291928527 893.152343759 c 0
 576.160294249 893.15169948 431.914724679 781.460786415 385.422851562 626.389648438 c 1
 325.803710938 344.064453125 224.296875 1.3388671875 224.153320312 0.853515625 c 0
 221.128609147 -9.3978083158 202.703866914 -16.6623146494 188.308934287 -16.6623146494 c 0
 178.549620182 -16.6623146494 170.642574175 -13.3232454028 170.642574175 -5.31208232971 c 0xdc
EndSplineSet
Validated: 524289
Substitution2: "'smcp' Lowercase to Small Capitals in Latin lookup 0 subtable" r.sc
EndChar

StartChar: n
Encoding: 110 110 11
Width: 1094
VWidth: 0
Flags: W
HStem: -17.8965 35.7939<878.944 952.075> 896.099 35.7939<238.259 343.558 596.834 810.791> 919.497 34.8163<308.193 394.744>
VStem: 172.733 53.5257<-15.7764 83.1319> 372.28 53.8506<753.296 932.653> 812.128 54.1632<21.506 164.873> 928.713 53.3285<449.807 794.878>
LayerCount: 2
Back
SplineSet
133.762695312 914 m 31
 186.413085938 914 268.762695312 966.650390625 268.762695312 914 c 7
 268.762695312 688.217773438 69.392578125 0 69.392578125 0 c 5
233.001953125 645 m 4
 258.393554688 789 414.053710938 913.9921875 563.631835938 913.99609375 c 4
 730.055664062 914 863.002258301 858 815.001953125 540 c 4
 786.916365852 353.934167288 709.501953125 69.1796875 709.501953125 69.1796875 c 5
 705.572265625 49.7138671875 722.025390625 0.9697265625 765.962890625 0 c 5
 823.962890625 0 850.764648438 32 862.291015625 58 c 13
EndSplineSet
Fore
SplineSet
172.733101888 -5.31551428204 m 0xde
 172.733101888 -1.27749898023 372.280273441 683.503605265 372.280273441 909.659496656 c 0
 372.280259943 915.799731835 370.70860433 919.496500807 369.650580703 919.496500807 c 0xbe
 360.227072441 919.496500807 308.792101334 896.098632812 257.678710938 896.098632812 c 0
 243.451171875 896.098632812 234.529296875 904.251953125 238.083984375 914 c 0
 241.639648438 923.748046875 256.504882812 931.892578125 270.733398438 931.892578125 c 0xde
 286.100628433 931.892578125 341.968837228 954.312838517 382.319985589 954.312838517 c 0xbe
 407.167317589 954.312838517 426.130859375 945.811479046 426.130859375 918.338867188 c 0
 426.130859375 885.920898438 422.161132812 844.420898438 415.341796875 797.04296875 c 1
 484.983398438 875.51953125 590.971679688 931.892578125 700.6015625 931.892578125 c 0
 857.809989232 931.892578125 982.041422007 881.312105733 982.041422007 661.086335246 c 0
 982.041422007 480.674537697 872.438517178 92.4984479918 866.56640625 70.82421875 c 1
 866.380571698 69.7244407431 866.291022614 68.5552300677 866.291022614 67.3295694056 c 0
 866.291022614 49.1424795739 886.008305837 18.5260009352 903.43359375 17.8974609375 c 0
 940.68359375 18.162109375 956.55078125 35.3896484375 967.001953125 58.962890625 c 0
 971.108504663 68.2260962665 988.072801429 74.2552266131 1001.71702391 74.2552266131 c 0
 1011.75630979 74.2552266131 1019.99814964 70.9911320576 1019.99814964 63.3495397776 c 0
 1019.99814964 61.5055223587 1019.51821015 59.4065941357 1018.46777344 57.037109375 c 0
 1005.91601562 28.7265625 968.850585938 -17.896484375 889.461914062 -17.896484375 c 1
 830.566968556 -16.5975277163 812.127850618 29.3027854889 812.127850618 56.5986960384 c 0
 812.127850618 75.1163421364 928.71291152 470.147150174 928.71291152 657.483620107 c 0
 928.71291152 863.865473877 816.42090592 896.098632812 687.549804688 896.098632812 c 0
 564.433675376 896.098632812 415.492921914 790.782204701 390.1875 647.291015625 c 0
 389.827148438 645.249023438 388.9375 643.232421875 387.619140625 641.307617188 c 0
 329.583007812 356.322265625 226.399414062 1.4072265625 226.258789062 0.9189453125 c 0
 223.275852837 -9.37776217905 204.801198648 -16.6963048708 190.380952981 -16.6963048708 c 0
 180.630121946 -16.6963048708 172.733101888 -13.3500227416 172.733101888 -5.31551428204 c 0xde
EndSplineSet
Validated: 524289
Substitution2: "'smcp' Lowercase to Small Capitals in Latin lookup 0 subtable" n.sc
EndChar

StartChar: o
Encoding: 111 111 12
Width: 963
VWidth: 0
Flags: W
HStem: -18 36<379.343 554.466> 896 36<549.873 724.828>
VStem: 130.822 56.5665<202.775 507.369> 920.887 56.551<400.206 702.029>
LayerCount: 2
Back
SplineSet
624.419921875 0 m 4
 433.051757812 0 244.259765625 187.583984375 244.259765625 454.200195312 c 4
 244.259765625 720.81640625 432.916992188 914 624.28515625 914 c 5
 815.65234375 914 1009.98046875 720.81640625 1009.98046875 454.200195312 c 4
 1009.98046875 187.583984375 815.788085938 0 624.419921875 0 c 4
EndSplineSet
Fore
SplineSet
465.493164062 18 m 0
 588.493164062 18 746.473632812 112 842.970703125 279 c 0
 886.42485788 353.268548825 920.887296834 446.071510892 920.887296834 556.344281051 c 0
 920.887296834 761.637300778 784.185324732 896 638.118164062 896 c 0
 517.118164062 896 362.924804688 801 266.640625 635 c 0
 222.899451095 558.402136352 187.388998402 463.326993461 187.388998402 350.580512531 c 0
 187.388998402 147.671980241 319.985670537 18 465.493164062 18 c 0
444.840820312 -18 m 0
 263.420357945 -18 130.822487744 126.366493618 130.822487744 335.390049969 c 0
 130.822487744 371.774409141 134.840169599 410.117860924 143.317382812 450 c 0
 196.70081662 701.150697844 427.293943248 932 658.770507812 932 c 0
 840.902953536 932 977.438260767 782.842326959 977.438260767 571.430617043 c 0
 977.438260767 535.600853683 973.516557103 497.982967607 965.23046875 459 c 0
 911.712188608 207.202677157 674.844988176 -18 444.840820312 -18 c 0
EndSplineSet
Validated: 524289
Substitution2: "'smcp' Lowercase to Small Capitals in Latin lookup 0 subtable" o.sc
EndChar

StartChar: s
Encoding: 115 115 13
Width: 791
VWidth: 0
Flags: W
HStem: -17.8965 35.7939<306.042 499.301> 896.104 35.7939<418.92 604.093>
VStem: 226.861 53.8604<603.761 773.525> 658.689 53.7923<148.018 343.782>
LayerCount: 2
Back
SplineSet
726.576171875 789.200195312 m 21
 680.790039062 856.823242188 602.459960938 914 484.581054688 914 c 7
 363.897460938 914 250.915039062 836.493164062 227.764648438 705.200195312 c 4
 203.670898438 568.556640625 344.665039062 513.372070312 439.561523438 477.200195312 c 4
 547.674804688 435.990234375 681.04296875 374.073242188 653.060546875 215.376953125 c 4
 629.618164062 82.4306640625 498.811523438 0 367.418945312 0 c 7
 235.159179688 0 142.080078125 76.103515625 95.13671875 157.200195312 c 4
EndSplineSet
Fore
SplineSet
402.698242188 17.8974609375 m 0
 523.721583921 17.8974609375 658.688585353 100.652834846 658.688585353 252.54703642 c 0
 658.688585353 373.496496061 548.081857147 424.10823815 450.984375 461.119140625 c 0
 363.92203307 494.304560694 226.860998733 547.119529056 226.860998733 670.774058534 c 0
 226.860998733 680.992388888 227.796951267 691.694463343 229.774414062 702.909179688 c 0
 253.270645468 836.166844727 370.424960544 931.897460938 519.859375 931.897460938 c 0
 650.762695312 931.896484375 733.276367188 869.166992188 780.381835938 799.59765625 c 0
 781.796029099 797.508887038 782.434385351 795.394695279 782.434385351 793.312422788 c 0
 782.434385351 781.87020893 763.158776078 771.391819493 747.419333336 771.391819493 c 0
 740.254781478 771.391819493 733.822939532 773.562989806 730.275390625 778.802734375 c 0
 685.806640625 844.478515625 611.661132812 896.103515625 506.805664062 896.103515625 c 0
 401.214541614 896.103515625 304.979090257 830.675059961 283.259765625 707.491210938 c 0
 281.539135078 697.73317846 280.721416812 688.421978135 280.721416812 679.530019509 c 0
 280.721416812 573.275845523 397.483230279 526.885102533 485.643554688 493.28125 c 0
 584.956802195 455.42483129 712.480908882 396.979358097 712.480908882 260.64875867 c 0
 712.480908882 85.2834351819 546.790652366 -17.8964843845 389.646168429 -17.8964843845 c 0
 242.643176405 -17.8959524902 146.453972571 64.4829107962 98.408203125 147.483398438 c 0
 97.3253258738 149.353944491 96.8308616013 151.232619443 96.8308616013 153.081630883 c 0
 96.8308616013 164.644736387 116.168556208 175.047750085 131.866831713 175.047750085 c 0
 139.366916909 175.047750085 146.036270812 172.673165356 149.369140625 166.916015625 c 0
 195.2109375 87.72265625 285.1796875 17.8974609375 402.698242188 17.8974609375 c 0
EndSplineSet
Validated: 524289
Substitution2: "'smcp' Lowercase to Small Capitals in Latin lookup 0 subtable" s.sc
EndChar

StartChar: m
Encoding: 109 109 14
Width: 1734
VWidth: 0
Flags: W
HStem: -17.8994 35.7969<1574.36 1647.49> 895.838 58.9363<220.798 342.23> 896.099 35.7939<211.137 292.384 609.656 806.401 1287.17 1506.21>
VStem: 344.482 53.8595<772.371 915.188> 849.432 53.7344<-17.2623 82.8043> 1507.54 54.1642<21.506 164.873> 1624.13 53.3288<449.808 794.877>
LayerCount: 2
Back
SplineSet
918.525390625 604.599609375 m 4
 945 792.999938965 1154.09082031 913.9921875 1303.66894531 913.99609375 c 4
 1470.09277344 914 1603.0390625 858 1555.0390625 540 c 4
 1526.953125 353.934570312 1449.5390625 69.1796875 1449.5390625 69.1796875 c 5
 1445.609375 49.7138671875 1462.0625 0.9697265625 1506 0 c 5
 1564 0 1590.80175781 32 1602.328125 58 c 13
790.418945312 0 m 13
150.581054688 914 m 29
 150.581054688 914 287.014648438 966.076171875 285.581054688 914 c 28
 275.875 561.421875 125.418945312 0 125.418945312 0 c 13
264.796875 643 m 4
 290.1875 787 475.080078125 913.9921875 624.658203125 913.99609375 c 4
 791.081054688 914 952.8359375 801.024414062 918.525390625 604.599609375 c 5
 884.90625 404 851.702148438 193 789.918945312 0 c 5
EndSplineSet
Fore
SplineSet
1507.54197948 56.5992850634 m 0xbe
 1507.54197948 75.1163646067 1624.12733602 470.149862036 1624.12733602 657.485258209 c 0
 1624.12733602 863.865644439 1511.83546298 896.098632812 1382.96386719 896.098632812 c 0
 1256.19024433 896.098632812 1063.71649319 791.284075957 1032.72363281 617.161132812 c 0
 1032.23925781 613.78125 1031.69824219 610.37890625 1031.09960938 606.952148438 c 0
 997.708984375 407.720703125 964.677734375 197.48046875 903.166015625 4.046875 c 1
 902.904171202 -6.59936676961 886.875264971 -17.8994140625 869.903320312 -17.8994140625 c 0
 869.678697342 -17.8994140625 869.455301814 -17.8994140625 869.233162898 -17.8994140625 c 0
 855.34550559 -17.8994140625 846.36929599 -10.1116557488 849.431640625 -0.546875 c 0
 911.945986645 194.737399946 943.054256799 407.49813675 979.161132812 612.143554688 c 0
 981.122267141 625.945147785 982.062969691 639.277816091 982.062969691 652.133957699 c 0
 982.062969691 810.078330437 840.078991247 896.098632812 703.953125 896.098632812 c 0xbe
 580.113177963 896.098632812 402.645105151 788.685764895 377.360351562 645.290039062 c 0
 376.693359375 641.510742188 374.209960938 637.815429688 370.561523438 634.640625 c 1
 324.383789062 323.969726562 237.829101562 1.52734375 237.736328125 1.1845703125 c 0
 234.943066381 -9.24409544027 216.28189002 -16.7417163387 201.759445792 -16.7417163387 c 0
 192.031246263 -16.7417163387 184.16022171 -13.3773058207 184.16022171 -5.27580590707 c 0
 184.16022171 -4.02612825823 184.34750387 -2.6637369054 184.744140625 -1.18359375 c 2
 184.744140625 -1.18359375 334.833984375 559.516601562 344.482421875 909.971679688 c 0
 344.749023438 919.678710938 340.114257812 921.805664062 313.495117188 917.737304688 c 0
 267.726348582 910.742557255 250.633855135 895.838464102 229.658555793 895.838464102 c 0
 217.710561961 895.838464102 210.503045424 902.456416068 210.503045424 910.202190242 c 0
 210.503045424 916.668361251 215.525897145 923.920501143 227.006835938 928.764648438 c 0
 235.069531309 931.836045988 299.169594897 954.774752217 346.6133358 954.774752217 c 0xde
 375.582670257 954.774752217 398.341908762 946.222350261 398.341908762 919.372507488 c 0
 398.341908762 872.443440853 393.393369636 822.003902848 387.916992188 769.931640625 c 1
 465.072957338 862.819789496 596.769795249 931.892578281 717.016223941 931.892578281 c 0
 859.163283283 931.892578281 991.392541107 858.454603227 1026.72070312 730.4375 c 1
 1107.11450284 853.835019235 1266.22277188 931.892578281 1396.03526042 931.892578281 c 0
 1553.23551893 931.892578281 1677.45615921 881.303912895 1677.45615921 661.085394401 c 0
 1677.45615921 480.672916963 1567.85200101 92.498734974 1561.98144531 70.82421875 c 1
 1561.79572124 69.7247914364 1561.70622426 68.5559601656 1561.70622426 67.3306981222 c 0
 1561.70622426 49.1444213403 1581.4230979 18.5260120682 1598.84960938 17.8974609375 c 0
 1636.09765625 18.1611328125 1651.96582031 35.3896484375 1662.41601562 58.962890625 c 0
 1666.52269264 68.2254499937 1683.48799928 74.2546103974 1697.13248686 74.2546103974 c 0
 1707.17120027 74.2546103974 1715.41233933 70.9909986408 1715.41233933 63.3503459792 c 0
 1715.41233933 61.5064024321 1714.93236107 59.407532415 1713.88183594 57.0380859375 c 0
 1701.33203125 28.7265625 1664.26660156 -17.8994140625 1584.87695312 -17.8994140625 c 1
 1525.98243344 -16.5987961239 1507.54197948 29.3030131564 1507.54197948 56.5992850634 c 0xbe
EndSplineSet
Validated: 524289
Substitution2: "'smcp' Lowercase to Small Capitals in Latin lookup 0 subtable" m.sc
EndChar

StartChar: f
Encoding: 102 102 15
Width: 603
VWidth: 0
Flags: W
HStem: 896.103 35.7939<217.722 348.393 408.556 657.615> 1350.1 35.7939<596.933 731.032>
VStem: 806.036 53.9245<1201.27 1293.93>
LayerCount: 2
Back
SplineSet
-179.643554688 -405.799804688 m 4
 8.6416015625 -348 54.9501953125 -143.654296875 85.611328125 0 c 6
 327.48046875 1133.20019531 l 6
 353.095703125 1253.20996094 452.603515625 1368 571.388671875 1368 c 31
 667.217773438 1368 748.733398438 1289.64257812 733.334960938 1217.20019531 c 4
145.887695312 914 m 29
 533.887695312 914 l 29
EndSplineSet
Fore
SplineSet
859.960739208 1239.92696386 m 0
 859.960739208 1213.64701607 848.908042364 1200.29643591 821.584162121 1200.29643591 c 0
 811.903404619 1200.29643591 804.086668374 1203.72158067 804.086668374 1212.02907621 c 0
 804.086668374 1218.09374582 806.036274481 1224.3282251 806.036274481 1230.4746213 c 0
 806.036274481 1290.19286251 734.663068022 1350.1026153 662.641601562 1350.10351562 c 0
 573.112695255 1350.10351562 477.2743198 1253.8374018 451.916015625 1135.04492188 c 2
 408.555664062 931.896484375 l 1
 638.1953125 931.896484375 l 2
 652.422851562 931.896484375 661.344726562 923.748046875 657.790039062 914 c 0
 654.235351562 904.251953125 639.369140625 896.102539062 625.141601562 896.102539062 c 2
 400.916015625 896.102539062 l 1
 210.046875 1.8447265625 l 2
 180.341796875 -137.330078125 138.12890625 -356.068359375 -75.923828125 -421.778320312 c 0
 -80.8267602597 -423.283309927 -85.2216926361 -423.946817407 -89.0686109133 -423.946817407 c 0
 -101.178947184 -423.946817407 -107.858303295 -417.37126403 -107.858303295 -409.772648534 c 0
 -107.858303295 -402.390818727 -101.554629707 -394.043469257 -87.802734375 -389.821289062 c 0
 74.71484375 -339.931640625 125.119140625 -149.978515625 156.736328125 -1.8447265625 c 2
 348.392578125 896.102539062 l 1
 237.141601562 896.102539062 l 2
 222.913085938 896.102539062 213.991210938 904.251953125 217.546875 914 c 0
 221.1015625 923.748046875 235.966796875 931.896484375 250.1953125 931.896484375 c 2
 356.032226562 931.896484375 l 1
 398.604492188 1131.35546875 l 2
 425.647716463 1258.03509398 530.040579823 1385.89746094 675.696289062 1385.89746094 c 0
 779.4657728 1385.89656839 859.960739208 1313.86548653 859.960739208 1239.92696386 c 0
EndSplineSet
Validated: 524289
Substitution2: "'smcp' Lowercase to Small Capitals in Latin lookup 0 subtable" f.sc
EndChar

StartChar: y
Encoding: 121 121 16
Width: 1059
VWidth: 0
Flags: W
HStem: -424.69 21G<209.884 222.049> 911.067 20G<343.143 367.684 1057.64 1080.52>
VStem: 322.987 53.9969<708.442 929.735> 1044.48 54.2929<730.442 930.822>
LayerCount: 2
Back
SplineSet
372.446289062 914 m 21
 342.76953125 723.147460938 519.223632812 387.762695312 580.759765625 74.533203125 c 5
1076.44628906 914 m 21
 1173.02246094 699.651367188 754.741032549 302.971136922 582.958984375 70 c 5
 460.439453125 -97.2060546875 306.596679688 -298.799804688 241.553710938 -406.799804688 c 13
EndSplineSet
Fore
SplineSet
322.987290155 862.311748733 m 0
 322.987054293 864.873290283 l 0
 322.987054293 901.751282 323.431109947 931.0669065 362.854370057 931.0669065 c 0
 372.513927399 931.0669065 380.307489002 927.565197759 380.307489002 919.0131899 c 0
 380.307489002 904.359980084 376.984159054 889.312493251 376.984159054 873.049214958 c 0
 376.984159054 692.477399292 515.950920226 403.513446293 579.008789062 125.102539062 c 1
 748.903366555 339.728687628 1044.47737107 643.542255487 1044.47737107 840.217119439 c 0
 1044.47737107 863.514346465 1040.32996095 885.308233761 1031.33496094 905.272460938 c 0
 1030.64541606 906.803124098 1030.32519995 908.32939713 1030.32519995 909.832517891 c 0
 1030.32519995 921.55888456 1049.81387789 931.876180541 1065.47265499 931.876180541 c 0
 1095.56647093 931.876180541 1098.7702868 871.826015499 1098.7702868 846.793436587 c 0
 1098.7702868 614.379765092 737.845832196 269.429289668 587.55078125 65.5986328125 c 0
 465.00390625 -101.643554688 311.041015625 -303.611328125 247.1640625 -409.674804688 c 0
 241.934736652 -418.358323692 228.304882747 -424.690331243 215.793515446 -424.690331243 c 0
 203.974552284 -424.690331243 195.55940962 -418.821134757 195.55940962 -410.986245768 c 0
 195.55940962 -408.728070224 196.244676466 -406.334863215 197.696289062 -403.924804688 c 0
 262.98828125 -295.51171875 413.458984375 -98.23046875 535.0546875 67.490234375 c 0
 535.000976562 67.6953125 534.954101562 67.9013671875 534.913085938 68.1103515625 c 0
 478.550227839 355.00411991 322.987290155 660.993035089 322.987290155 862.311748733 c 0
EndSplineSet
Validated: 524289
Substitution2: "'smcp' Lowercase to Small Capitals in Latin lookup 0 subtable" y.sc
EndChar

StartChar: p
Encoding: 112 112 17
Width: 1048
VWidth: 0
Flags: W
HStem: -425.4 21G<124.328 136.427> -38.5967 35.7939<406.125 628.474> 875.399 35.7939<654.121 812.203> 896.104 35.7939<262.715 363.786> 919.352 35.9682<328.758 392.542>
VStem: 111.567 53.5424<-424.479 -317.218> 964.923 54.077<389.671 709.316>
LayerCount: 2
Back
SplineSet
213.915039062 959.299804688 m 29
 213.915039062 959.299804688 354.834960938 1011.61621094 348.915039062 959.299804688 c 28
 287.603515625 417.399414062 59.1376953125 -408.700195312 59.1376953125 -408.700195312 c 13
298.233398438 622.299804688 m 4
 328.841796875 766.299804688 541.912109375 893.295898438 659.912109375 893.295898438 c 4
 836.912109375 893.295898438 954.8125 700.299804688 898.060546875 433.299804688 c 4
 841.307617188 166.299804688 636.559570312 -20.7001953125 459.559570312 -20.7001953125 c 4
 321.559570312 -20.7001953125 167.385742188 -2.7001953125 224.137695312 264.299804688 c 4
EndSplineSet
Fore
SplineSet
1018.99953956 569.71366158 m 0xee
 1018.99953956 245.050284651 773.437019319 -38.5966796919 532.559264124 -38.5966796919 c 0
 435.470415028 -38.5964196487 329.871448356 -26.9909350394 285.998046875 59.6982421875 c 1
 221.901367188 -206.768554688 165.15625 -407.52734375 165.109375 -407.694335938 c 0
 162.190770367 -418.027129464 143.654372667 -425.400298443 129.199757305 -425.400298443 c 0
 119.455960871 -425.400298443 111.566947697 -422.049891866 111.566947697 -413.99715405 c 0
 111.566947697 -407.680040499 189.891819648 -135.569159896 267.637695312 205.350585938 c 1
 269.438526405 221.727683131 270.463401985 259.852505026 282.541015625 271.581054688 c 1
 307.388671875 383.55078125 331.448242188 500.083984375 351.89453125 613.440429688 c 1
 348.086082569 621.287367573 354.585502035 634.819512585 356.995117188 642.08203125 c 1
 373.470703125 735.841796875 387.284179688 826.952148438 396.811523438 910.963867188 c 0
 397.334960938 915.583007812 396.764648438 918.116210938 396.206054688 919.3515625 c 1xee
 384.573242188 919.131835938 330.478515625 896.103515625 282.134765625 896.103515625 c 0
 267.907226562 896.103515625 258.985351562 904.251953125 262.540039062 914 c 0
 266.095703125 923.749023438 280.9609375 931.897460938 295.189453125 931.897460938 c 0xd6
 306.822295006 931.897460938 366.52693764 955.319751214 408.519943756 955.319751214 c 0
 432.618623515 955.319751214 450.884312876 947.606065686 450.884312876 923.325332869 c 0
 450.884312876 921.341465886 450.762375292 919.247001067 450.51171875 917.037109375 c 0
 444.635742188 865.223632812 437.149414062 810.768554688 428.427734375 754.694335938 c 1
 513.911132812 845.126953125 649.2265625 911.192382812 745.962890625 911.193359375 c 0
 913.376621456 911.192554091 1018.99953956 769.498931484 1018.99953956 569.71366158 c 0xee
320.615234375 207.341796875 m 1
 318.888453183 191.745498303 318.062254338 177.304953173 318.062254338 163.93465591 c 0
 318.062254338 3.90948527775 436.415195596 -2.80273446584 545.589324979 -2.80273446584 c 0
 545.611328125 -2.802734375 l 0
 545.612811562 -2.8027343806 l 0
 674.889006507 -2.8027343806 846.287410397 124.852389034 924.986328125 340.940429688 c 0
 946.566238691 400.195000239 964.922501943 484.892336652 964.922501943 558.563327908 c 0
 964.922501943 752.794866856 858.348312861 875.3986027 732.909179688 875.399414062 c 0
 642.530275891 875.398431512 454.067124989 772.64845936 410.17578125 644.833007812 c 1
 384.634765625 499.662109375 352.798828125 348.411132812 320.615234375 207.341796875 c 1
EndSplineSet
Validated: 524289
Substitution2: "'smcp' Lowercase to Small Capitals in Latin lookup 0 subtable" p.sc
EndChar

StartChar: h
Encoding: 104 104 18
Width: 1057
VWidth: 0
Flags: W
HStem: -17.8965 35.7939<879.86 952.991> 896.099 35.7939<597.135 811.719> 1350.1 35.7939<315.801 412.503> 1373.41 34.7966<385.307 446.716>
VStem: 193.688 53.6122<-15.8595 103.598> 449.868 53.9499<1142.04 1373.36> 813.044 54.1632<21.506 164.873> 929.629 53.3285<449.807 794.875>
LayerCount: 2
Back
SplineSet
210.388671875 1368 m 29
 263.0390625 1368 350.027325489 1420.44531412 345.388671875 1368 c 28
 297.567382812 827.330078125 89.392578125 0 89.392578125 0 c 5
233.001953125 645 m 4
 258.393554688 789 414.053710938 913.9921875 563.631835938 913.99609375 c 4
 730.055664062 914 863.002258301 858 815.001953125 540 c 4
 786.916365852 353.934167288 709.501953125 69.1796875 709.501953125 69.1796875 c 5
 705.572265625 49.7138671875 722.025390625 0.9697265625 765.962890625 0 c 5
 823.962890625 0 850.764648438 32 862.291015625 58 c 13
EndSplineSet
Fore
SplineSet
813.043866243 56.5986960384 m 0xdf
 813.043866243 75.116389397 929.628927145 470.147302817 929.628927145 657.483829224 c 0
 929.628927145 863.85574287 817.348560914 896.098633072 688.485857455 896.098633072 c 0
 568.07759924 896.097071682 425.438120791 795.850505334 393.68359375 659.879882812 c 1
 323.047851562 302.2578125 247.348632812 1.576171875 247.299804688 1.3828125 c 0
 244.649770152 -9.14959313034 225.848293662 -16.7899464199 211.249800935 -16.7899464199 c 0
 201.538804535 -16.7899464199 193.687621065 -13.4091035132 193.687621065 -5.24974474091 c 0
 193.687621065 -1.32747081175 228.519343115 136.086760648 273.278809037 337.43896924 c 0
 320.731776897 550.908001678 372.119754766 805.202765545 408.262848871 1036.43892138 c 4
 426.183784306 1151.09341684 440.875012476 1262.99450424 449.868164062 1364.671875 c 0
 450.313476562 1369.70800781 449.477539062 1372.40917969 448.916992188 1373.41210938 c 1xdf
 437.560786104 1373.28125276 383.989561762 1350.10351559 335.223785009 1350.10351559 c 0
 320.993899848 1350.10365807 312.070660832 1358.25023032 315.625976562 1368 c 0
 319.181640625 1377.74804688 334.046875 1385.89746094 348.275390625 1385.89746094 c 1xef
 348.275390625 1385.89746094 409.653699828 1408.20869118 455.297313233 1408.20869118 c 0
 482.314020008 1408.20869118 503.818042347 1400.39190379 503.818042347 1375.50472977 c 0
 503.818042347 1203.68842577 456.285219784 994.093875066 420.881835938 802.162109375 c 1
 490.545967386 877.96445849 594.29158632 931.891141491 701.537213441 931.892578388 c 0
 858.73634906 931.892578388 982.957437632 881.304093455 982.957437632 661.086573401 c 0
 982.957437632 480.674675245 873.354557203 92.4985380519 867.482421875 70.82421875 c 1
 867.296587323 69.7244407431 867.207038239 68.5552300677 867.207038239 67.3295694056 c 0
 867.207038239 49.1424795739 886.924321462 18.5260009352 904.349609375 17.8974609375 c 0
 941.599609375 18.162109375 957.466796875 35.3896484375 967.91796875 58.962890625 c 0
 972.024520288 68.2260962665 988.988817054 74.2552266131 1002.63303954 74.2552266131 c 0
 1012.67232542 74.2552266131 1020.91416527 70.9911320576 1020.91416527 63.3495397776 c 0
 1020.91416527 61.5055223587 1020.43422578 59.4065941357 1019.38378906 57.037109375 c 0
 1006.83203125 28.7265625 969.766601562 -17.896484375 890.377929688 -17.896484375 c 1
 831.482984181 -16.5975277163 813.043866243 29.3027854889 813.043866243 56.5986960384 c 0xdf
EndSplineSet
Validated: 524289
Substitution2: "'smcp' Lowercase to Small Capitals in Latin lookup 0 subtable" h.sc
EndChar

StartChar: j
Encoding: 106 106 19
Width: 406
VWidth: 0
Flags: W
HStem: 896.104 35.7939<287.368 383.601> 919.456 34.8075<357.128 419.024> 1285.2 96<440.68 494.668>
VStem: 421.412 53.9063<693.361 919.401> 437.867 59.6139<1288.47 1377.93>
LayerCount: 2
Back
SplineSet
235.265625 914 m 29
 235.265625 914 373.615750875 966.542998085 370.265625 914 c 28
 347.08203125 550.395507812 176.989257812 0 176.989257812 0 c 6
 147.693359375 -143.939453125 100.01953125 -348 -88.265625 -405.799804688 c 4
EndSplineSet
Fore
SplineSet
437.866806372 1316.77994933 m 0x28
 437.866806372 1348.95314957 459.214606606 1381.20019531 477.875976562 1381.20019531 c 0
 489.968377699 1381.20019531 497.480731248 1368.03749003 497.480731248 1349.61948444 c 0
 497.480731248 1317.44627663 476.131872811 1285.20019531 457.470703125 1285.20019531 c 0
 445.378511399 1285.20019531 437.866806372 1298.36244471 437.866806372 1316.77994933 c 0x28
319.842773438 931.897460938 m 1xb0
 319.842773438 931.897460938 380.721116869 954.263572102 426.288655972 954.263572102 c 0
 453.541889285 954.263572102 475.318372499 946.263104007 475.318372499 920.692257836 c 0
 475.318372499 566.574486231 305.13446801 83.332806908 281.469726562 0.9482421875 c 0
 242.651367188 -134.19140625 210.026367188 -355.9921875 -4.2763671875 -421.778320312 c 0
 -9.1793750388 -423.283230423 -13.574362436 -423.946704347 -17.4213262638 -423.946704347 c 0
 -29.5320832692 -423.946704347 -36.2115175092 -417.371182367 -36.2115175092 -409.772624546 c 0
 -36.2115175092 -402.390726159 -29.9075573619 -394.043300314 -16.1552734375 -389.821289062 c 0
 146.112304688 -340.008789062 186.319335938 -148.171875 228.607421875 -0.9482421875 c 0
 254.879882812 90.5146484375 399.705078125 554.19921875 421.412109375 910.353515625 c 0
 421.754882812 915.735351562 420.823242188 918.294921875 420.099609375 919.456054688 c 1x70
 409.30588974 919.456054688 356.069608986 896.103515594 306.79117691 896.103515594 c 0
 292.561287339 896.103656589 283.638042289 904.250226606 287.193359375 914 c 0
 290.749023438 923.748046875 305.614257812 931.897460938 319.842773438 931.897460938 c 1xb0
EndSplineSet
Validated: 524289
Substitution2: "'smcp' Lowercase to Small Capitals in Latin lookup 0 subtable" j.sc
EndChar

StartChar: k
Encoding: 107 107 20
Width: 964
VWidth: 0
Flags: W
HStem: -16.8291 20.0365G<254.223 267.073 811.332 822.738> 896.173 35.7939<748.742 863.137> 1372.41 36.4409<390.263 482.612>
VStem: 896.934 54.0218<732.348 872.773>
LayerCount: 2
Back
SplineSet
257.606445312 537.599609375 m 4
 395.629882812 552.374023438 533.654296875 579.823242188 637.279296875 648.721679688 c 4
 696.978515625 688.415039062 772.7265625 773.043945312 736.779296875 855.721679688 c 4
 722.649414062 888.219726562 689.912109375 914.069335938 640.28125 914.069335938 c 4
 552.672851562 914.069335938 483.640625 841.5078125 435.883789062 785.935546875 c 4
 369.25 708.395507812 306.311523438 633.518554688 216.875976562 584.049804688 c 5
 366.186523438 394.952148438 505.123046875 197.145507812 644.892578125 0 c 4
  Spiro
    257.607 537.6 {
    637.279 648.722 o
    736.779 855.722 o
    350.156 687.722 o
    216.876 584.05 v
    364.298 391.178 o
    552.41 130.337 o
    644.892 0 v
    0 0 z
  EndSpiro
196.607421875 1368 m 29
 196.607421875 1368 335.63671875 1420.39160156 331.607421875 1368 c 28
 290.775390625 837.096679688 91.392578125 0 91.392578125 0 c 13
  Spiro
    196.608 1368 {
    331.608 1368 v
    91.3923 0 v
    0 0 z
  EndSpiro
EndSplineSet
Fore
SplineSet
824.673828125 931.966796875 m 0
 904.936181264 931.966796875 950.955375136 883.982064768 950.955375136 815.406016313 c 0
 950.955375136 741.9074703 885.696118031 673.597436065 831.719726562 637.708984375 c 0
 730.264648438 570.25390625 600.818359375 540.837890625 474.145507812 524.709960938 c 1
 603.15625 356.888671875 725.21484375 183.32421875 847.666992188 10.6044921875 c 0
 849.192892006 8.45228021776 849.879261526 6.26756664421 849.879261526 4.11493776902 c 0
 849.879261526 -7.28911240517 830.615641415 -17.7926746905 814.861253868 -17.7926746905 c 0
 807.80310419 -17.7926746905 801.449308259 -15.6844577737 797.84765625 -10.6044921875 c 0
 670.006298984 169.716924352 542.949313574 350.451815333 408.19140625 524.374023438 c 1
 350.342773438 230.217773438 295.884765625 1.7119140625 295.845703125 1.5458984375 c 0
 293.316407047 -9.07202030104 274.403053586 -16.8291389825 259.742681557 -16.8291389825 c 0
 248.704215416 -16.8291389825 240.076881146 -12.4314155562 242.669921875 -1.5458984375 c 2
 242.669921875 -1.5458984375 441.860351562 835.069335938 482.58203125 1364.53808594 c 0
 483.286132812 1373.69433594 480.37109375 1375.50488281 456.434570312 1372.40527344 c 0
 410.547909029 1366.46236168 387.495517484 1349.83295715 367.680903476 1349.83295715 c 0
 355.737517261 1349.83295715 348.588467979 1356.44093637 348.588467979 1364.17157891 c 0
 348.588467979 1370.68955749 353.670565161 1378.00561199 365.24609375 1382.83203125 c 0
 372.377144376 1385.51324389 438.085877634 1408.84614015 485.991985881 1408.84614015 c 0
 514.374916558 1408.84614015 536.508757887 1400.65581128 536.508757887 1375.12771538 c 0
 536.508757887 1154.19676899 473.705284365 869.206554146 427.994140625 627.09375 c 1
 487.591796875 671.10546875 537.625 729.448242188 591.103515625 791.6796875 c 0
 636.497070312 844.501953125 713.44140625 931.966796875 824.673828125 931.966796875 c 0
896.933545283 807.256490821 m 0
 896.933545283 859.388921164 860.239513468 896.172851562 811.620117188 896.172851562 c 0
 747.635742188 896.172851562 686.513671875 838.513671875 636.393554688 780.19140625 c 0
 574.677734375 708.374023438 513.7421875 635.603515625 428.727539062 583.155273438 c 1
 435.934570312 573.984375 442.56640625 565.498046875 449.518554688 556.559570312 c 1
 581.581054688 571.478515625 706.721679688 598.666015625 798.569335938 659.733398438 c 0
 842.582321646 688.997014494 896.933545283 746.375256925 896.933545283 807.256490821 c 0
EndSplineSet
Validated: 524289
Substitution2: "'smcp' Lowercase to Small Capitals in Latin lookup 0 subtable" k.sc
EndChar

StartChar: a
Encoding: 97 97 21
Width: 989
VWidth: 0
Flags: W
HStem: -17.8975 35.7949<351.617 592.403 811.475 883.913> 895.152 35.7939<530.078 712.028>
VStem: 107.798 56.3772<199.875 498.21>
LayerCount: 2
Back
SplineSet
688.375976562 67.2001953125 m 5
 595.25 39.3759765625 507.200195312 0 350.092773438 0 c 7
 158.724609375 0 11.3271484375 184.583984375 67.998046875 451.200195312 c 4
 124.668945312 717.81640625 357.298828125 913.049804688 548.666992188 913.049804688 c 15
 722.80078125 913.049804688 838.135742188 777.076171875 800.49609375 600 c 13
843.291015625 58 m 21
 831.764648438 32 804.962890625 0 746.962890625 0 c 5
 703.025390625 0.9697265625 685.922851562 47.5341796875 690.501953125 69.1796875 c 6
 869.026367188 913 l 29
EndSplineSet
Fore
SplineSet
745.458007812 76.8515625 m 1
 853.828125 589.080078125 l 1
 852.74609375 590.979492188 852.387695312 593.201171875 852.911132812 595.662109375 c 0
 857.556164735 617.51489564 859.764724445 638.628970576 859.764724445 658.841847075 c 0
 859.764724445 798.512141902 754.311224069 895.152343756 618.60042981 895.152343756 c 0
 497.726493379 895.151963841 340.672564243 799.128147765 243.995117188 631.560546875 c 0
 199.593226261 554.601611152 164.17480473 459.620489615 164.17480473 346.525006439 c 0
 164.17480473 144.825197894 295.366735639 17.8974609334 440.684113339 17.8974609334 c 0
 580.48274415 17.8974609334 656.688932933 48.9724928771 745.458007812 76.8515625 c 1
931.453125 75.822265625 m 0
 956.778974891 77.3584927684 952.186872244 61.2096298004 944.765625 48.3212890625 c 0
 928.951171875 20.84765625 887.256835938 -17.8974609375 816.477539062 -17.8974609375 c 1
 766.236328125 -16.7890625 746.84375 15.7333984375 742.711914062 42.3486328125 c 1
 661.188476562 16.23828125 566.356445312 -17.8974609375 420.024414062 -17.8974609375 c 0
 239.096000785 -17.8974609375 107.797578962 123.480802054 107.797578962 331.43097311 c 0
 107.797578962 367.986050252 111.854871774 406.598286348 120.413085938 446.861328125 c 0
 173.978973571 698.864650134 407.728927896 930.946289062 639.260742188 930.946289062 c 0
 762.98828125 930.946289062 854.651367188 871.173828125 894.3203125 780.470703125 c 1
 921.438476562 908.650390625 l 2
 923.439453125 918.106445312 937.791015625 927.991210938 952.9609375 930.360351562 c 0
 968.129882812 932.729492188 979.137695312 926.805664062 977.137695312 917.349609375 c 2
 798.61328125 73.529296875 l 2
 798.309533104 72.0931125302 798.163589345 70.5357857388 798.163589345 68.8854822462 c 0
 798.163589345 49.9015604068 817.475701032 18.6144304695 838.045898438 17.8974609334 c 0
 872.452157875 18.1414845484 885.836987001 32.088180405 896.595703125 56.3642578125 c 0
 900.899414062 66.072265625 916.770507812 74.931640625 931.453125 75.822265625 c 0
EndSplineSet
Validated: 524289
Substitution2: "'smcp' Lowercase to Small Capitals in Latin lookup 0 subtable" a.sc
EndChar

StartChar: d
Encoding: 100 100 22
Width: 1011
VWidth: 0
Flags: W
HStem: -17.8975 35.7939<364.861 604.953 816.703 888.995> 895.104 35.7939<538.559 718.346> 1350.1 35.7939<890.805 983.741> 1373.37 35.9721<956.228 1020.9>
VStem: 116.605 53.9111<207.823 497.161>
LayerCount: 2
Back
SplineSet
780.388671875 1368 m 29
 833.0390625 1368 921.026663012 1420.34762439 915.388671875 1368 c 28
 859.9453125 853.216796875 640.501953125 69.1796875 640.501953125 69.1796875 c 5
 636.572265625 49.7138671875 653.025390625 0.9697265625 696.962890625 0 c 5
 754.962890625 0 781.764648438 32 793.291015625 58 c 13
639.852539062 67 m 1
 546.901367188 39 458.611328125 0 301.611328125 0 c 3
 110.611328125 0 -37.2783203125 184 19.474609375 451 c 0
 76.2265625 718 309.67578125 913 500.67578125 913 c 11
 665.934570312 913 807.791992188 763 770.169921875 586 c 9
EndSplineSet
Fore
SplineSet
890.629882812 1368 m 0xe8
 894.184570312 1377.74804688 909.049804688 1385.89746094 923.278320312 1385.89746094 c 1xe8
 923.278320312 1385.89746094 985.582864654 1409.33930556 1031.34901779 1409.33930556 c 0
 1057.91500951 1409.33930556 1078.90841872 1401.44061628 1078.90841872 1376.47329443 c 0
 1078.90841872 1374.76431835 1078.81006042 1372.97537234 1078.60839844 1371.10351562 c 0
 1023.80761719 862.288085938 809.928710938 93.900390625 803.475585938 70.7734375 c 1
 803.309777544 69.6928523536 803.229737893 68.5549392266 803.229737893 67.3702680868 c 0
 803.229737893 48.7322498846 823.040858147 18.520860248 840.353515625 17.896484375 c 0
 877.602539062 18.1611328125 893.470703125 35.3896484375 903.919921875 58.9619140625 c 0
 908.026552208 68.2252974439 924.991736789 74.2549101546 938.63618865 74.2549101546 c 0
 948.674955908 74.2549101546 956.916166849 70.9910014538 956.916166849 63.3496961388 c 0
 956.916166849 61.5056492426 956.436212592 59.4066701339 955.385742188 57.037109375 c 0
 942.8359375 28.7265625 905.770507812 -17.8974609375 826.380859375 -17.8974609375 c 1
 776.837890625 -16.8037109375 756.778320312 15.08203125 751.122070312 41.29296875 c 1
 669.76171875 15.099609375 576.577148438 -17.8974609375 431.446289062 -17.8974609375 c 0
 248.953518709 -17.8974609375 116.604691813 125.118556376 116.604691813 333.979397074 c 0
 116.604691813 370.492824532 120.649624096 409.018644982 129.178710938 449.14453125 c 0
 185.47419411 713.975384524 422.787376017 930.896362637 643.564453125 930.897460938 c 0
 769.626953125 930.897460938 875.733398438 857.047851562 918.887695312 752.615234375 c 1
 963.573242188 958.859375 1004.92578125 1179.50390625 1024.89257812 1364.89648438 c 0
 1025.39453125 1369.5546875 1024.8359375 1372.00683594 1024.21289062 1373.3671875 c 1xd8
 1012.50806053 1373.14551251 958.622400884 1350.10351559 910.226709324 1350.10351559 c 0
 895.9978034 1350.10365915 887.073591113 1358.25023242 890.629882812 1368 c 0xe8
630.510742188 895.103515625 m 0
 442.236463613 895.103515625 170.515839369 652.567595248 170.515839369 343.591573796 c 0
 170.515839369 142.442718781 312.756546021 22.3788642883 444.500976562 17.896484375 c 1
 585.6328125 17.896484375 663.866210938 49.654296875 753.049804688 77.6708984375 c 1
 765.618164062 123.212890625 821.15234375 326.9296875 879.874023438 579.275390625 c 0
 879.5078125 580.801757812 879.510742188 582.435546875 879.874023438 584.14453125 c 0
 883.825951207 602.73711312 885.690998787 620.952051573 885.690998787 638.652823812 c 0
 885.690998787 784.27889649 759.454842394 895.103515625 630.510742188 895.103515625 c 0
EndSplineSet
Validated: 524289
Substitution2: "'smcp' Lowercase to Small Capitals in Latin lookup 0 subtable" d.sc
EndChar

StartChar: q
Encoding: 113 113 23
Width: 1015
VWidth: 0
Flags: W
HStem: -426.001 35.7939<736.86 809.941> -17.8975 35.7939<395.353 639.501> 895.153 35.793<545.737 721.092> 911.202 20G<968.151 980.605>
VStem: 143.421 53.9017<214.981 521.916> 669.938 54.236<-386.689 -260.857> 892.813 100.418<517.059 923.233> 939.418 53.8131<778.264 930.104>
LayerCount: 2
Back
SplineSet
855.571289062 914 m 28
 802.637695312 417.079101562 587.104492188 -338.924804688 587.104492188 -338.924804688 c 5
 583.174804688 -358.390625 599.627929688 -407.134765625 643.565429688 -408.104492188 c 5
 701.565429688 -408.104492188 728.3671875 -376.104492188 739.893554688 -350.104492188 c 13
693.481445312 67.2001953125 m 5
 601.36328125 39.3759765625 523.739257812 0 366.631835938 0 c 7
 175.263671875 0 21.1796875 184.583984375 68.19140625 451.200195312 c 4
 115.202148438 717.81640625 340.759765625 913.049804688 532.127929688 913.049804688 c 15
 699.336914062 913.049804688 835.794921875 759.076171875 804.571289062 582 c 13
899.129882812 -408 m 5
 643.565429688 -408.104492188 l 5
EndSplineSet
Fore
SplineSet
888.53515625 575.763671875 m 0xee
 888.298828125 577.014648438 888.29296875 578.334960938 888.53515625 579.708984375 c 0
 891.432433546 596.140447595 892.812894204 612.305325897 892.812894204 628.105164203 c 0
 892.812894204 778.073016947 768.443048436 895.153320312 636.306640625 895.153320312 c 0
 494.782226562 895.15234375 309.04296875 763.0703125 231.725585938 550.688476562 c 0
 212.212520725 497.091263016 197.322350127 430.166651071 197.322350127 361.43228496 c 0
 197.322350127 150.331640929 336.006458357 17.8973421781 483.864257812 17.896484375 c 0
 624.563476562 17.896484375 692.28125 49.4248046875 780.247070312 77.572265625 c 1
 816.95703125 228.731445312 856.659179688 404.495117188 888.53515625 575.763671875 c 0xee
939.41796875 910.8828125 m 0xed
 940.63301861 922.290587215 960.526791875 931.201515411 975.774977701 931.201515411 c 0
 985.435355694 931.201515411 993.23110429 927.624878683 993.23110429 918.840573843 c 0xde
 993.23110429 444.462493121 725.029284647 -335.205029812 724.418945312 -337.353515625 c 0
 724.253799928 -338.429552854 724.174074942 -339.562916924 724.174074942 -340.743080919 c 0
 724.174074942 -359.34759676 743.986903245 -389.582580341 761.299804688 -390.20703125 c 0
 798.548828125 -389.942382812 814.416992188 -372.71484375 824.866210938 -349.142578125 c 0
 828.97278206 -339.879328306 845.938145045 -333.849657978 859.582662945 -333.849657978 c 0
 869.621349399 -333.849657978 877.862465051 -337.11351373 877.862465051 -344.754769177 c 0
 877.862465051 -346.598820031 877.382508018 -348.697807699 876.33203125 -351.067382812 c 0
 863.782226562 -379.377929688 826.716796875 -426.000976562 747.328125 -426.000976562 c 1
 688.72556288 -424.707637367 669.938042554 -379.036067732 669.938042554 -351.656097071 c 0
 669.938042554 -332.60688029 713.231342503 -194.8790591 770.693359375 38.5029296875 c 1
 695.000976562 13.0869140625 610.325195312 -17.8974609375 470.810546875 -17.8974609375 c 0
 283.093934966 -17.896605943 143.420652726 133.510989863 143.420652726 351.922850016 c 0
 143.420652726 382.977889503 146.244395127 415.387538685 152.155273438 448.909179688 c 0
 198.780021565 713.326470777 427.561490513 930.946289062 649.360351562 930.946289062 c 0
 772.72265625 930.946289062 873.775390625 860.216796875 919.82421875 760.344726562 c 1
 927.654296875 812.352539062 934.30078125 862.840820312 939.41796875 910.8828125 c 0xed
EndSplineSet
Validated: 524289
Substitution2: "'smcp' Lowercase to Small Capitals in Latin lookup 0 subtable" q.sc
EndChar

StartChar: g
Encoding: 103 103 24
Width: 1056
VWidth: 0
Flags: W
HStem: -424.697 35.7939<345.787 571.19> -17.8965 35.793<386.704 623.224> 895.153 35.7939<537.222 645.599> 922.141 35.1256<999.837 1091.01>
VStem: 135.327 53.8268<-278.243 -127.912 210.677 523.267>
LayerCount: 2
Back
SplineSet
877.903320312 76.400390625 m 5
 785.78515625 48.576171875 687.604492188 0 530.497070312 0 c 7
 339.12890625 0 185.043945312 184.583984375 232.055664062 451.200195312 c 4
 279.067382812 717.81640625 504.624023438 913.049804688 695.9921875 913.049804688 c 15
 873.068359375 913.049804688 984.556640625 763.125976562 953.333984375 586.049804688 c 13
1190.35351562 913 m 29
 1190.35351562 913 1056.14746094 972.330078125 1036.35351562 913 c 28
 908.876953125 530.895507812 859.47265625 -78.7998046875 859.47265625 -78.7998046875 c 6
 824.520507812 -274.783203125 724.56640625 -406.799804688 520.637695312 -406.799804688 c 4
 369.637695312 -406.799804688 194.826171875 -332.001953125 228.1875 -142.799804688 c 4
  Spiro
    1190.35 913 {
    1036.35 913 v
    859.473 -78.7998 ]
    801.492 -250.795 o
    691.212 -365.395 o
    520.637 -406.8 o
    370.434 -380.455 o
    255.546 -295.217 o
    228.188 -142.8 o
    0 0 z
  EndSpiro
EndSplineSet
Fore
SplineSet
787.708007812 85.306640625 m 1xe8
 802.739257812 216.826171875 828.3671875 408.684570312 866.899414062 597.345703125 c 0
 868.872012304 611.956662635 869.827524347 626.289670116 869.827524347 640.281600254 c 0
 869.827524347 786.287247485 696.629856747 822.563192403 627.657226562 895.153320312 c 1
 486.131835938 895.15234375 300.393554688 763.0703125 223.075195312 550.688476562 c 0
 203.562656293 497.091020537 188.671614101 430.169983295 188.671614101 361.434674451 c 0
 188.671614101 150.332917111 327.356450647 17.8973421822 475.215820312 17.896484375 c 0
 612.568359375 17.896484375 698.403320312 56.16796875 787.708007812 85.306640625 c 1xe8
1029.99037314 957.266845891 m 0xd8
 1095.08336176 957.266845891 1155.22239672 931.028906344 1155.22239672 917.020163001 c 0
 1155.22239672 899.413803897 1123.86605963 891.307476618 1110.16894531 897.348632812 c 1
 1110.16894531 897.348632812 1051.81957736 922.141281056 1020.11611654 922.141281056 c 0xd8
 1010.21724505 922.141281056 1002.91607082 919.724257156 1000.79980469 913.380859375 c 0
 907.153320312 632.6796875 854.006835938 183.012695312 824.40234375 -76.533203125 c 1
 789.118772431 -274.377353707 682.089917278 -424.697265625 452.301757812 -424.697265625 c 0
 302.941027769 -424.696370563 135.327229161 -356.488065183 135.327229161 -192.338601115 c 0
 135.327229161 -177.391789028 136.716951311 -161.649508105 139.63671875 -145.090820312 c 0
 141.576783622 -134.090452484 160.976587039 -125.7918922 175.916639482 -125.7918922 c 0
 185.580224077 -125.7918922 193.377932276 -129.263854613 193.377932276 -137.722367443 c 0
 193.377932276 -153.677419588 189.153997995 -169.453131376 189.153997995 -183.895144278 c 0
 189.153997995 -331.605653962 338.101193344 -388.902426516 465.35546875 -388.903320312 c 0
 609.21875 -388.903320312 695.055664062 -318.204101562 743.721679688 -184.744140625 c 0
 776.83906916 -93.9220811787 767.92405446 -95.4595480668 783.528320312 47.859375 c 1
 703.5546875 20.4765625 603.931640625 -17.896484375 462.161132812 -17.896484375 c 0
 274.4440805 -17.896484375 134.770583286 133.511715435 134.770583286 351.924389155 c 0
 134.770583286 382.978959042 137.594223599 415.388091803 143.504882812 448.909179688 c 0
 190.129697076 713.326845847 418.912781662 930.946136111 640.7109375 930.947265625 c 0xe8
 772.280273438 930.947265625 865.263671875 859.938476562 903.833984375 759.521484375 c 1
 917.455078125 812.9765625 932.25390625 864.55078125 948.290039062 912.619140625 c 0
 958.755325184 943.987218556 997.541296458 957.266845891 1029.99037314 957.266845891 c 0xd8
EndSplineSet
Validated: 524289
Substitution2: "'smcp' Lowercase to Small Capitals in Latin lookup 0 subtable" g.sc
EndChar

StartChar: t
Encoding: 116 116 25
Width: 625
VWidth: 0
Flags: W
HStem: -18.0096 35.996<296.298 428.331> 896 36<223.348 370.228 431.88 631.409>
VStem: 205.04 56.3004<40.0975 244.344>
LayerCount: 2
Back
SplineSet
76 914 m 29
 432 914 l 29
228 1101.20019531 m 29
 228 144.200195312 l 22
 228 64.099609375 274.889287491 -0.788589798857 364 0 c 15
 452.869140625 0 548 61.200012207 564 109.200195312 c 4
EndSplineSet
Fore
SplineSet
633.097170169 920.458223594 m 0
 633.097170169 905.423870387 608.18193345 896 594.227539062 896 c 2
 424.227539062 896 l 1
 265.447265625 149 l 2
 262.683886761 135.999081307 261.340196377 123.66492351 261.340196377 112.141075554 c 0
 261.340196377 55.1568693744 294.196081785 17.9863402556 350.718737944 17.9863402556 c 0
 351.343781684 17.9863402556 351.971719533 17.9863402556 352.602539062 17.9863402556 c 0
 425.602539062 17.9863402556 518.868164062 71 539.9453125 109 c 0
 545.071289062 119 561.771484375 127 575.771484375 127 c 0
 589.771484375 127 597.283203125 120 592.158203125 110 c 0
 560.830078125 52 437.951171875 -18.0096347003 332.951171875 -18.0096347003 c 0
 332.248976531 -18.0096347003 331.54998833 -18.0096347003 330.854199692 -18.0096347003 c 0
 241.654321145 -18.0096347003 205.039761461 34.6666712425 205.039761461 99.1369397892 c 0
 205.039761461 112.378503679 206.584352169 126.117597655 209.53515625 140 c 2
 370.227539062 896 l 1
 238.227539062 896 l 2
 224.227539062 896 216.927734375 904 223.053710938 914 c 0
 229.178710938 924 244.879882812 932 258.879882812 932 c 2
 377.879882812 932 l 1
 412.951171875 1097 l 2
 415.109467554 1107.15357477 432.302552007 1119.38538707 450.400784811 1119.38538707 c 0
 462.633115386 1119.38538707 470.528056879 1113.82724461 468.864257812 1106 c 2
 431.879882812 932 l 1
 614.879882812 932 l 2
 625.687222526 932 633.097170169 927.232710543 633.097170169 920.458223594 c 0
EndSplineSet
Validated: 524289
Substitution2: "'smcp' Lowercase to Small Capitals in Latin lookup 0 subtable" t.sc
EndChar

StartChar: u
Encoding: 117 117 26
Width: 1121
VWidth: 0
Flags: W
HStem: -17.8975 35.7939<461.446 714.491 924.5 997.015> 895.847 32.8292<229.406 297.501 903.199 988.061> 918.613 35.9734<269.452 364.522 966.227 1059.68>
VStem: 254.728 53.8561<152.104 395.705> 364.139 53.8499<650.758 918.504> 1037.22 53.8506<700.63 932.653>
LayerCount: 2
Back
SplineSet
746.592773438 914 m 31
 799.243164062 914 881.592773438 966.650390625 881.592773438 914 c 7
 881.592773438 688.217773438 702.33203125 69.1796875 702.33203125 69.1796875 c 5
 698.40234375 49.7138671875 714.85546875 0.9697265625 758.79296875 0 c 5
 816.79296875 0 843.594726562 32 855.12109375 58 c 5
72.5810546875 914 m 29
 72.5810546875 914 204.733398438 965.2890625 207.581054688 914 c 28
 219.877929688 692.58203125 104.948242188 331.200195312 104.948242188 331.200195312 c 6
 72.716796875 148.17578125 175.180664062 0 366.548828125 0 c 7
 523.65625 0 610.279296875 39.3759765625 702.397460938 67.2001953125 c 5
EndSplineSet
Fore
SplineSet
345.283699612 918.612793762 m 0xbc
 300.831438295 918.612793762 266.955740032 895.846631138 248.455798928 895.846631138 c 0
 236.500582955 895.846631138 229.21595093 902.47554397 229.21595093 910.240340764 c 0
 229.21595093 916.638694573 234.162290554 923.808325206 245.517578125 928.67578125 c 0xdc
 256.405847679 932.888922257 317.030429546 954.586235949 363.164164611 954.586235949 c 0
 392.229092823 954.586235949 415.542336743 945.974172067 417.04296875 918.952148438 c 0
 417.684574113 907.399077608 417.988925223 895.487107619 417.988925223 883.283415174 c 0
 417.988925223 664.231291756 319.929957366 351.189030028 314.09765625 332.653320312 c 1
 310.38349095 311.125656899 308.583915974 290.247957749 308.583915974 270.172342572 c 0
 308.583915974 122.266075554 406.263853477 17.896484375 555.62890625 17.896484375 c 0
 696.42578125 17.896484375 772.920898438 49.7236328125 861.1484375 77.6455078125 c 1
 883.45703125 155.994140625 1037.22167969 703.494140625 1037.22167969 909.661132812 c 0
 1037.22167969 915.801398334 1035.64991335 919.496502269 1034.59187113 919.496502269 c 0
 1025.16633414 919.496502269 973.732426226 896.103515625 922.619140625 896.103515625 c 0
 908.391601562 896.103515625 899.469726562 904.251953125 903.024414062 914 c 0
 906.580078125 923.749023438 921.4453125 931.897460938 935.673828125 931.897460938 c 0
 951.042980259 931.897460938 1006.90707379 954.312993234 1047.2573017 954.312993234 c 0
 1072.1066954 954.312993234 1091.07226562 945.811628166 1091.07226562 918.337890625 c 0
 1091.07226562 695.89453125 922.735351562 109.733398438 911.853515625 71.986328125 c 1
 912.49979451 51.7754247977 926.922965374 18.6704236941 948.374023438 17.896484375 c 0
 985.623046875 18.1611328125 1001.49121094 35.3896484375 1011.94238281 58.962890625 c 0
 1016.04882472 68.2258489752 1033.01339713 74.2552208565 1046.65755302 74.2552208565 c 0
 1056.69635789 74.2552208565 1064.93768616 70.9912764644 1064.93768616 63.3498373418 c 0
 1064.93768616 61.5057513295 1064.45772151 59.4067255035 1063.40722656 57.037109375 c 0
 1050.85644531 28.7265625 1013.79101562 -17.8974609375 934.40234375 -17.8974609375 c 1
 884.915039062 -16.8056640625 864.844726562 15.0087890625 859.162109375 41.2041015625 c 1
 779.098632812 15.166015625 687.178710938 -17.8974609375 542.575195312 -17.8974609375 c 0
 356.058627999 -17.8974609375 254.727801819 105.598207258 254.727801819 261.574466821 c 0
 254.727801819 283.462609039 256.723258869 305.990375224 260.758789062 328.90625 c 0
 261.037877563 330.478951416 364.139066538 653.748138216 364.139066538 874.620033485 c 0
 364.139066538 896.851885326 369.966262096 918.612793762 345.283699612 918.612793762 c 0xbc
EndSplineSet
Validated: 524289
Substitution2: "'smcp' Lowercase to Small Capitals in Latin lookup 0 subtable" u.sc
EndChar

StartChar: degree
Encoding: 176 176 27
Width: 895
VWidth: 0
Flags: W
HStem: 896.104 35.7939<338.953 514.587> 1464.1 35.7939<421.412 597.046>
VStem: 147.75 55.771<1046.18 1266.94> 732.478 55.7717<1129.06 1349.82>
LayerCount: 2
Back
SplineSet
180 1198 m 4
 180 1354.76757812 309.024414062 1482 468 1482 c 4
 626.975585938 1482 756 1354.76757812 756 1198 c 4
 756 1041.23144531 626.975585938 914 468 914 c 4
 309.024414062 914 180 1041.23144531 180 1198 c 4
EndSplineSet
Fore
SplineSet
147.750240338 1142.47743324 m 0
 147.750240338 1203.40965998 163.620325732 1249.30149037 187.397460938 1293.44726562 c 0
 248.9765625 1407.77734375 382.268554688 1499.89648438 527.759765625 1499.89648438 c 0
 686.586170126 1499.89648438 788.249760896 1391.16556487 788.249760896 1253.52230495 c 0
 788.249760896 1192.59025589 772.379679487 1146.69754277 748.602539062 1102.55175781 c 0
 687.022820699 988.220534513 553.731134443 896.103914551 408.239302524 896.10351562 c 0
 249.413113126 896.10351562 147.750240338 1004.83403217 147.750240338 1142.47743324 c 0
508.393554688 1464.10253906 m 0
 366.774498784 1464.10253906 203.521226534 1335.54794523 203.521226534 1155.64495507 c 0
 203.521226534 1026.30926884 302.3728346 931.897460932 427.604705651 931.897460932 c 0
 569.227159803 931.897955326 732.478101299 1060.45087368 732.478101299 1240.35644876 c 0
 732.478101299 1369.69118097 633.626582573 1464.10253906 508.393554688 1464.10253906 c 0
EndSplineSet
Validated: 524289
EndChar

StartChar: A
Encoding: 65 65 28
Width: 1403
VWidth: 0
Flags: W
HStem: -17.8965 35.793<38.6497 190.836 243.083 390.818 974.117 1121.53 1179.64 1326.29> 453.109 35.7939<506.055 1058.77> 1350.1 35.7939<798.895 934.629>
LayerCount: 2
Back
SplineSet
910.513671875 471.166992188 m 25
 290 471 l 25
1220 0 m 21
 1120 0 1020 0 920 0 c 5
1073 0 m 29
 600 1368 l 21
285 0 m 21
 185 -0 85 0 -15 0 c 5
127 0 m 13
 600 1368 l 21
 500 1368 554 1368 454 1368 c 13
EndSplineSet
Fore
SplineSet
952.321289062 1288.2109375 m 1
 506.0546875 488.903320312 l 1
 1058.77148438 489.051757812 l 1
 952.321289062 1288.2109375 l 1
1328.00873946 6.43417191223 m 0
 1328.00873946 -8.43251709148 1304.19338007 -17.896484375 1289.63769531 -17.896484375 c 2
 989.63671875 -17.896484375 l 2
 975.408203125 -17.896484375 968.217773438 -9.748046875 973.845703125 0 c 0
 979.47265625 9.748046875 996.0703125 17.896484375 1010.29785156 17.896484375 c 2
 1121.53125 17.896484375 l 1
 1063.5390625 453.264648438 l 1
 486.0703125 453.109375 l 1
 243.083007812 17.896484375 l 1
 375.298828125 17.896484375 l 2
 389.52734375 17.896484375 396.716796875 9.748046875 391.08984375 0 c 0
 385.461914062 -9.748046875 368.865234375 -17.896484375 354.637695312 -17.896484375 c 2
 54.63671875 -17.896484375 l 2
 43.7038441309 -17.896484375 36.9262860285 -13.0856114717 36.9262860285 -6.43476481607 c 0
 36.9262860285 8.43205176149 60.7410865466 17.896484375 75.2978515625 17.896484375 c 2
 190.8359375 17.896484375 l 1
 934.62890625 1350.10253906 l 1
 814.4140625 1350.10253906 l 2
 800.185546875 1350.10253906 792.99609375 1358.25195312 798.623046875 1368 c 0
 804.250976562 1377.74804688 820.84765625 1385.89648438 835.075195312 1385.89648438 c 2
 981.076171875 1385.89648438 l 2
 990.05123886 1385.89648438 997.903769311 1382.21468569 998.75390625 1375.83300781 c 2
 1117.91210938 481.2734375 l 2
 1118.58203125 479.748046875 1118.8203125 478.056640625 1118.58105469 476.252929688 c 2
 1179.63574219 17.896484375 l 1
 1310.29882812 17.896484375 l 2
 1321.23127723 17.896484375 1328.00873946 13.0853255528 1328.00873946 6.43417191223 c 0
EndSplineSet
Validated: 524289
Substitution2: "'c2sc' Capitals to Small Capitals in Latin lookup 0 subtable" a.sc
EndChar

StartChar: I
Encoding: 73 73 29
Width: 522
VWidth: 0
Flags: W
HStem: -17.8975 35.7939<56.6503 205.831 259.688 408.817> 1350.1 35.7939<347.895 488.027 541.884 700.062>
VStem: 54.9268 646.859
LayerCount: 2
Back
SplineSet
383 1368 m 21
 283 1368 183 1368 83 1368 c 13
382 0 m 29
 82 0 l 21
228 0 m 13
 228 1368 l 29
EndSplineSet
Fore
SplineSet
701.785628034 1374.43476482 m 0
 701.785628034 1359.56808741 677.971602236 1350.10253906 663.4140625 1350.10253906 c 2
 541.883789062 1350.10253906 l 1
 259.6875 17.896484375 l 1
 393.297851562 17.896484375 l 2
 407.526367188 17.896484375 414.716796875 9.748046875 409.088867188 0 c 0
 403.461914062 -9.748046875 386.865234375 -17.8974609375 372.63671875 -17.8974609375 c 2
 72.6376953125 -17.8974609375 l 2
 61.7044633539 -17.8974609375 54.9268195482 -13.0856969391 54.9268195482 -6.43424554218 c 0
 54.9268195482 8.43265118356 78.7420883514 17.896484375 93.298828125 17.896484375 c 2
 205.831054688 17.896484375 l 1
 488.02734375 1350.10253906 l 1
 363.415039062 1350.10253906 l 2
 349.186523438 1350.10253906 341.99609375 1358.25195312 347.623046875 1368 c 0
 353.250976562 1377.74804688 369.84765625 1385.89648438 384.076171875 1385.89648438 c 2
 684.075195312 1385.89648438 l 2
 695.008069932 1385.89648438 701.785628034 1381.08561147 701.785628034 1374.43476482 c 0
EndSplineSet
Validated: 524289
Substitution2: "'c2sc' Capitals to Small Capitals in Latin lookup 0 subtable" i.sc
EndChar

StartChar: B
Encoding: 66 66 30
Width: 1032
VWidth: 0
Flags: W
HStem: -17.8975 35.7939<40.6431 189.84 243.69 618.087> 687.933 35.8633<393.734 677.333> 1350.1 35.7939<332.888 473.01 526.86 874.737>
VStem: 983.561 56.0387<304.042 532.786> 1062.38 55.771<985.867 1236.7>
LayerCount: 2
Back
SplineSet
420 705 m 5
 748 681 940 589.237304688 940 373 c 7
 940 111 740 0 472 0 c 13
 82 0 l 21
83 1368 m 21
 183 1368 323 1368 423 1368 c 5
 690 1368 874 1301.26833136 874 1038 c 7
 874 813.191115585 692 739 420 705 c 5
 229 706 l 13
228 0 m 13
 228 1368 l 29
EndSplineSet
Fore
SplineSet
38.9198507246 -6.43463872022 m 0
 38.9198507246 8.43251661585 62.7349902673 17.896484375 77.2919921875 17.896484375 c 2
 189.83984375 17.896484375 l 1
 473.009765625 1350.10351562 l 1
 348.407226562 1350.10351562 l 2
 334.1796875 1350.10351562 326.989257812 1358.25195312 332.616210938 1368 c 0
 338.244140625 1377.74804688 354.841796875 1385.89746094 369.0703125 1385.89746094 c 2
 709.0703125 1385.89746094 l 2
 950.250693875 1385.89746094 1118.14689702 1330.05379308 1118.14689702 1135.27311601 c 0
 1118.14689702 1098.16760959 1109.6473844 1044.99276074 1099.1015625 1009.40917969 c 0
 1047.47949219 835.188476562 892.413085938 752.01171875 687.793945312 709.607421875 c 1
 909.39741827 676.002526007 1039.599962 596.092081205 1039.599962 444.233373623 c 0
 1039.599962 362.038149293 1010.1857915 289.751842432 978.344726562 234.548828125 c 0
 878.200195312 60.927734375 671.563476562 -17.896484375 446.62890625 -17.8974609375 c 2
 56.6298828125 -17.8974609375 l 2
 45.696866282 -17.8974609375 38.9198507246 -13.085886559 38.9198507246 -6.43463872022 c 0
526.860351562 1350.10351562 m 1
 393.734375 723.795898438 l 1
 562.763671875 722.91015625 l 1
 832.092055531 756.029487878 1006.27300178 819.80282121 1051.74804688 1033.66113281 c 0
 1058.92151731 1067.41025874 1062.37591519 1097.7602692 1062.37591519 1125.02088609 c 0
 1062.37591519 1304.57794839 912.508925748 1350.10351562 688.408203125 1350.10351562 c 2
 526.860351562 1350.10351562 l 1
386.111328125 687.932617188 m 1
 243.690429688 17.896484375 l 1
 467.291992188 17.896484375 l 2
 729.177629051 17.8977337221 925.427882784 128.868912903 976.397460938 368.662109375 c 0
 981.194595798 391.230549888 983.561301282 412.378799393 983.561301282 432.179164387 c 0
 983.561301282 594.208213186 825.077970493 665.977942372 543.030273438 687.110351562 c 1
 386.111328125 687.932617188 l 1
EndSplineSet
Validated: 524289
Substitution2: "'c2sc' Capitals to Small Capitals in Latin lookup 0 subtable" b.sc
EndChar

StartChar: D
Encoding: 68 68 31
Width: 1238
VWidth: 0
Flags: W
HStem: -17.8975 35.7939<42.3104 191.491 245.348 660.854> 1350.1 35.7939<333.555 473.688 527.544 931.446>
VStem: 1269.76 56.3172<685.312 1029.25>
LayerCount: 2
Back
SplineSet
82 1368 m 21
 542 1368 l 14
 883.2421875 1368 1141 1071.44238281 1141 730.200195312 c 28
 1141 361.86328125 910.336914062 0 542 0 c 22
 82 0 l 5
228 0 m 13
 227 1368 l 29
EndSplineSet
Fore
SplineSet
40.5869757982 -6.43424554218 m 0
 40.5869757982 8.43265118356 64.4022446014 17.896484375 78.958984375 17.896484375 c 2
 191.491210938 17.896484375 l 1
 473.6875 1350.10253906 l 1
 349.075195312 1350.10253906 l 2
 334.846679688 1350.10253906 327.65625 1358.25195312 333.283203125 1368 c 0
 338.911132812 1377.74804688 355.5078125 1385.89648438 369.736328125 1385.89648438 c 2
 829.736328125 1385.89648438 l 2
 829.738054488 1385.89648438 l 0
 1140.41600786 1385.89648438 1326.07752221 1159.57450011 1326.07752221 877.660616593 c 0
 1326.07752221 831.208196805 1321.03665051 783.246408569 1310.68359375 734.5390625 c 0
 1288.33300781 629.38671875 1247.55273438 524.700195312 1191.85644531 428.196289062 c 0
 1051.75292969 185.4375 807.07421875 -17.896484375 518.297851562 -17.8974609375 c 2
 58.2978515625 -17.8974609375 l 2
 47.3646196039 -17.8974609375 40.5869757982 -13.0856969391 40.5869757982 -6.43424554218 c 0
527.543945312 1350.10253906 m 1
 245.34765625 17.896484375 l 1
 538.958984375 17.896484375 l 2
 779.185546875 17.8974609375 1000.84667969 187.756835938 1139.61230469 428.196289062 c 0
 1193.39355469 521.3828125 1233.19824219 623.341796875 1254.99023438 725.861328125 c 0
 1264.96671241 772.797006602 1269.76027551 818.728844845 1269.76027551 863.031380307 c 0
 1269.76027551 1137.93389275 1085.19129967 1350.10253907 809.076837064 1350.10253907 c 0
 809.075195312 1350.10253906 l 2
 527.543945312 1350.10253906 l 1
EndSplineSet
Validated: 524289
Substitution2: "'c2sc' Capitals to Small Capitals in Latin lookup 0 subtable" d.sc
EndChar

StartChar: E
Encoding: 69 69 32
Width: 1134
VWidth: 0
Flags: W
HStem: -17.8975 35.7939<36.0045 185.201 239.052 853.351> 711.103 35.7939<394.006 917.127> 1216.64 169.261<1165.76 1212.36> 1350.1 35.7939<328.249 468.371 522.222 1182.37>
LayerCount: 2
Back
SplineSet
756 729 m 29
 225 729 l 29
1056 214 m 21
 882 0 l 13
 82 0 l 21
83 1368 m 21
 183 1368 842 1368 942 1368 c 13
 942 1234 l 29
228 0 m 13
 228 1368 l 29
EndSplineSet
Fore
SplineSet
34.2811788496 -6.43463872022 m 0xd0
 34.2811788496 8.43251661585 58.0963183923 17.896484375 72.6533203125 17.896484375 c 2
 185.201171875 17.896484375 l 1
 333.87109375 717.330078125 l 1
 330.266800831 722.535025279 333.892361967 729.500176616 337.21875 733.08203125 c 1
 468.37109375 1350.10351562 l 1
 343.768554688 1350.10351562 l 2
 329.541015625 1350.10351562 322.350585938 1358.25195312 327.977539062 1368 c 0
 333.60546875 1377.74804688 350.203125 1385.89746094 364.431640625 1385.89746094 c 2
 1223.43164062 1385.89746094 l 2xd0
 1235.81347656 1385.89746094 1242.44726562 1379.39746094 1240.94628906 1372.33789062 c 2
 1212.46386719 1238.33886719 l 2
 1210.45410156 1228.88085938 1196.09472656 1219 1180.92675781 1216.63671875 c 0xe0
 1165.75878906 1214.2734375 1154.75976562 1220.20410156 1156.76953125 1229.66113281 c 2
 1182.37109375 1350.10351562 l 1
 522.221679688 1350.10351562 l 1
 394.005859375 746.896484375 l 1
 901.607421875 746.896484375 l 2
 915.834960938 746.896484375 923.024414062 738.748046875 917.3984375 729 c 0
 911.770507812 719.251953125 895.172851562 711.102539062 880.944335938 711.102539062 c 2
 386.397460938 711.102539062 l 1
 239.051757812 17.896484375 l 1
 853.350585938 17.896484375 l 1
 1059.87402344 219.255859375 l 2
 1069.43066406 228.57421875 1087.40820312 233.970703125 1099.35546875 231.107421875 c 0
 1111.3046875 228.245117188 1113.30273438 218.0625 1103.74609375 208.744140625 c 2
 884.2578125 -5.255859375 l 2
 876.450195312 -12.8681640625 862.653320312 -17.8974609375 851.990234375 -17.8974609375 c 2
 51.9912109375 -17.8974609375 l 2
 41.058194407 -17.8974609375 34.2811788496 -13.085886559 34.2811788496 -6.43463872022 c 0xd0
EndSplineSet
Validated: 524289
Substitution2: "'c2sc' Capitals to Small Capitals in Latin lookup 0 subtable" e.sc
EndChar

StartChar: H
Encoding: 72 72 33
Width: 1343
VWidth: 0
Flags: W
HStem: -17.8975 35.7939<55.9833 205.18 259.03 408.15 879.451 1028.16 1082.02 1231.15> 711.103 35.7939<413.984 1174.98> 1350.1 35.793<348.228 488.35 542.2 699.927 1170.23 1310.36 1364.22 1522.4>
LayerCount: 2
Back
SplineSet
1049 729 m 29
 225 729 l 29
1205 1368 m 21
 1105 1368 1005 1368 905 1368 c 13
1205 0 m 29
 905 0 l 21
1051 0 m 13
 1050 1368 l 29
383 1368 m 21
 283 1368 183 1368 83 1368 c 13
382 0 m 29
 82 0 l 21
228 0 m 13
 228 1368 l 29
EndSplineSet
Fore
SplineSet
1524.11907889 1374.43411266 m 0
 1524.11907889 1359.5673464 1500.30370734 1350.10351562 1485.74707031 1350.10351562 c 2
 1364.21582031 1350.10351562 l 1
 1082.01953125 17.896484375 l 1
 1215.63085938 17.896484375 l 2
 1229.859375 17.896484375 1237.04980469 9.748046875 1231.42285156 0 c 0
 1225.79492188 -9.748046875 1209.19824219 -17.8974609375 1194.96972656 -17.8974609375 c 2
 894.969726562 -17.8974609375 l 2
 880.741210938 -17.8974609375 873.551757812 -9.748046875 879.178710938 0 c 0
 884.806640625 9.748046875 901.403320312 17.896484375 915.631835938 17.896484375 c 2
 1028.1640625 17.896484375 l 1
 1174.9765625 711.102539062 l 1
 406.375976562 711.102539062 l 1
 259.030273438 17.896484375 l 1
 392.630859375 17.896484375 l 2
 406.859375 17.896484375 414.049804688 9.748046875 408.421875 0 c 0
 402.794921875 -9.748046875 386.198242188 -17.8974609375 371.969726562 -17.8974609375 c 2
 71.970703125 -17.8974609375 l 2
 61.0374711664 -17.8974609375 54.2598273607 -13.0856969391 54.2598273607 -6.43424554218 c 0
 54.2598273607 8.43265118356 78.0750961639 17.896484375 92.6318359375 17.896484375 c 2
 205.1796875 17.896484375 l 1
 353.849609375 717.330078125 l 1
 350.245372256 722.534944698 353.871051552 729.500363936 357.197265625 733.08203125 c 1
 488.349609375 1350.10351562 l 1
 363.747070312 1350.10351562 l 2
 349.51953125 1350.10351562 342.329101562 1358.25195312 347.956054688 1368 c 0
 353.583984375 1377.74804688 370.180664062 1385.89648438 384.409179688 1385.89648438 c 2
 684.408203125 1385.89648438 l 2
 698.63671875 1385.89648438 705.827148438 1377.74804688 700.19921875 1368 c 0
 694.572265625 1358.25195312 677.975585938 1350.10351562 663.747070312 1350.10351562 c 2
 542.200195312 1350.10351562 l 1
 413.984375 746.896484375 l 1
 1182.58496094 746.896484375 l 1
 1310.36035156 1350.10351562 l 1
 1185.74707031 1350.10351562 l 2
 1171.51953125 1350.10351562 1164.32910156 1358.25195312 1169.95605469 1368 c 0
 1175.58398438 1377.74804688 1192.18066406 1385.89648438 1206.40917969 1385.89648438 c 2
 1506.40820312 1385.89648438 l 2
 1517.34143508 1385.89648438 1524.11907889 1381.08529698 1524.11907889 1374.43411266 c 0
EndSplineSet
Validated: 524289
Substitution2: "'c2sc' Capitals to Small Capitals in Latin lookup 0 subtable" h.sc
EndChar

StartChar: K
Encoding: 75 75 34
Width: 1241
VWidth: 0
Flags: W
HStem: -17.8965 35.793<49.8782 199.18 253.041 402.15 789.451 931.015 990.926 1141.15> 1350.1 35.7939<341.228 482.35 537.184 692.927 1050.23 1186.17 1239.76 1402.4>
LayerCount: 2
Back
SplineSet
1091.25195312 1368 m 21
 991.251953125 1368 891.251953125 1368 791.251953125 1368 c 13
1120.50488281 0 m 29
 820.504882812 0 l 21
502.625976562 786.3515625 m 5
 604.256835938 676.376953125 723.240234375 535.905273438 760.625976562 462.3515625 c 6
 970.504882812 0 l 6
947.251953125 1371.72363281 m 5
 595.625976562 870.3515625 l 6
 528.424050049 774.530516073 343.625976562 675.351287842 229.625976562 657.3515625 c 4
382 0 m 29
 82 0 l 21
228 0 m 13
 229 1368 l 29
382 1368 m 21
 282 1368 182 1368 82 1368 c 13
382 0 m 29
 82 0 l 21
228 0 m 13
 228 1368 l 29
EndSplineSet
Fore
SplineSet
48.2600117521 -6.43353532216 m 0
 48.2600117521 8.48798251853 72.0764177875 17.896484375 86.6318359375 17.896484375 c 2
 199.1796875 17.896484375 l 1
 482.349609375 1350.10351562 l 1
 356.748046875 1350.10351562 l 2
 342.51953125 1350.10351562 335.329101562 1358.25195312 340.956054688 1368 c 0
 346.583984375 1377.74804688 363.181640625 1385.89746094 377.41015625 1385.89746094 c 2
 677.409179688 1385.89746094 l 2
 691.637695312 1385.89746094 698.827148438 1377.74804688 693.19921875 1368 c 0
 687.572265625 1358.25195312 670.975585938 1350.10351562 656.747070312 1350.10351562 c 2
 537.18359375 1350.10351562 l 1
 394.171875 679.594726562 l 1
 463.100585938 695.875 558.423828125 736.751953125 637.944335938 785.26171875 c 1
 641.952008245 792.943090673 653.819042256 800.488268261 665.604492188 802.883789062 c 1
 700.211914062 825.946289062 730.40234375 850.198242188 752.057617188 873.983398438 c 2
 1186.16503906 1350.10351562 l 1
 1065.74707031 1350.10351562 l 2
 1051.51855469 1350.10351562 1044.328125 1358.25195312 1049.95605469 1368 c 0
 1055.58300781 1377.74804688 1072.18164062 1385.89746094 1086.40917969 1385.89746094 c 2
 1224.65136719 1385.89746094 l 1
 1230.71849192 1388.4169296 1237.37310265 1389.88459966 1243.40826337 1389.88459966 c 0
 1249.23802605 1389.88459966 1254.31717844 1388.38332562 1257.30859375 1385.89746094 c 1
 1386.41015625 1385.89746094 l 2
 1397.34238993 1385.89746094 1404.11922391 1381.08591514 1404.11922391 1374.43469798 c 0
 1404.11922391 1359.56761991 1380.30409653 1350.10351562 1365.74804688 1350.10351562 c 2
 1239.76464844 1350.10351562 l 1
 798.391601562 866.016601562 l 2
 773.0546875 838.1875 739.106445312 810.391601562 700.46484375 784.236328125 c 1
 776.971679688 676.051757812 860.030273438 544.91796875 881.29296875 470.942382812 c 1
 990.92578125 17.896484375 l 1
 1125.63183594 17.896484375 l 2
 1139.859375 17.896484375 1147.04980469 9.748046875 1141.42285156 0 c 0
 1135.79492188 -9.748046875 1119.19824219 -17.896484375 1104.96972656 -17.896484375 c 2
 804.970703125 -17.896484375 l 2
 790.7421875 -17.896484375 783.551757812 -9.748046875 789.1796875 0 c 0
 794.806640625 9.748046875 811.403320312 17.896484375 825.631835938 17.896484375 c 2
 931.014648438 17.896484375 l 1
 825.709960938 453.056640625 l 1
 806.44140625 519.614257812 726.735351562 647.864257812 652.315429688 753.873046875 c 1
 565.611328125 702.809570312 465.389648438 661.577148438 386.69921875 644.556640625 c 1
 253.041015625 17.896484375 l 1
 386.630859375 17.896484375 l 2
 401.008827371 17.896484375 407.964347286 9.59920025301 402.421875 0 c 0
 396.794921875 -9.748046875 380.198242188 -17.896484375 365.969726562 -17.896484375 c 2
 65.970703125 -17.896484375 l 2
 55.0375823847 -17.896484375 48.2600117521 -13.085088014 48.2600117521 -6.43353532216 c 0
EndSplineSet
Validated: 524289
Substitution2: "'c2sc' Capitals to Small Capitals in Latin lookup 0 subtable" k.sc
EndChar

StartChar: F
Encoding: 70 70 35
Width: 1087
VWidth: 0
Flags: W
HStem: -17.8975 35.7939<58.3101 207.507 261.357 407.478> 711.103 35.7939<416.312 939.432> 1216.64 169.261<1188.06 1234.67> 1350.1 35.7939<350.555 490.677 544.527 1204.68>
LayerCount: 2
Back
SplineSet
756 729 m 29
 225 729 l 29
379 0 m 13
 82 0 l 21
83 1368 m 21
 183 1368 842 1368 942 1368 c 13
 942 1234 l 29
228 0 m 13
 228 1368 l 29
EndSplineSet
Fore
SplineSet
56.5868429121 -6.43463872022 m 0xd0
 56.5868429121 8.43251661585 80.4019824548 17.896484375 94.958984375 17.896484375 c 2
 207.506835938 17.896484375 l 1
 356.176757812 717.330078125 l 1
 352.572464893 722.535025279 356.198026029 729.500176616 359.524414062 733.08203125 c 1
 490.676757812 1350.10351562 l 1
 366.07421875 1350.10351562 l 2
 351.846679688 1350.10351562 344.65625 1358.25195312 350.283203125 1368 c 0
 355.911132812 1377.74804688 372.508789062 1385.89746094 386.737304688 1385.89746094 c 2
 1245.73730469 1385.89746094 l 2xd0
 1258.11914062 1385.89746094 1264.75292969 1379.39746094 1263.25195312 1372.33789062 c 2
 1234.76953125 1238.33886719 l 2
 1232.75976562 1228.88085938 1218.40039062 1219 1203.23242188 1216.63671875 c 0xe0
 1188.06445312 1214.2734375 1177.06542969 1220.20410156 1179.07519531 1229.66113281 c 2
 1204.67675781 1350.10351562 l 1
 544.52734375 1350.10351562 l 1
 416.311523438 746.896484375 l 1
 923.913085938 746.896484375 l 2
 938.140625 746.896484375 945.330078125 738.748046875 939.704101562 729 c 0
 934.076171875 719.251953125 917.478515625 711.102539062 903.25 711.102539062 c 2
 408.703125 711.102539062 l 1
 261.357421875 17.896484375 l 1
 391.958984375 17.896484375 l 2
 406.186523438 17.896484375 413.376953125 9.748046875 407.75 0 c 0
 402.122070312 -9.748046875 385.524414062 -17.8974609375 371.295898438 -17.8974609375 c 2
 74.296875 -17.8974609375 l 2
 63.3638584695 -17.8974609375 56.5868429121 -13.085886559 56.5868429121 -6.43463872022 c 0xd0
EndSplineSet
Validated: 524289
Substitution2: "'c2sc' Capitals to Small Capitals in Latin lookup 0 subtable" f.sc
EndChar

StartChar: L
Encoding: 76 76 36
Width: 1134
VWidth: 0
Flags: W
HStem: -17.8975 35.7939<36.0045 185.201 239.052 853.351> 1350.1 35.7939<328.249 468.371 522.222 667.95>
LayerCount: 2
Back
SplineSet
1056 214 m 21
 882 0 l 13
 82 0 l 21
83 1368 m 21
 183 1368 271 1368 371 1368 c 13
228 0 m 13
 228 1368 l 29
EndSplineSet
Fore
SplineSet
34.2811788496 -6.43463872022 m 0
 34.2811788496 8.43251661585 58.0963183923 17.896484375 72.6533203125 17.896484375 c 2
 185.201171875 17.896484375 l 1
 468.37109375 1350.10351562 l 1
 343.768554688 1350.10351562 l 2
 329.541015625 1350.10351562 322.350585938 1358.25195312 327.977539062 1368 c 0
 333.60546875 1377.74804688 350.203125 1385.89746094 364.431640625 1385.89746094 c 2
 652.430664062 1385.89746094 l 2
 666.659179688 1385.89746094 673.848632812 1377.74902344 668.221679688 1368 c 0
 662.59375 1358.25195312 645.997070312 1350.10351562 631.768554688 1350.10351562 c 2
 522.221679688 1350.10351562 l 1
 239.051757812 17.896484375 l 1
 853.350585938 17.896484375 l 1
 1059.87402344 219.255859375 l 2
 1069.19373368 228.343195887 1109.79275153 242.225925446 1109.79275153 220.494392853 c 0
 1109.79275153 216.842939304 1107.81856167 212.715067345 1103.74609375 208.744140625 c 2
 884.2578125 -5.255859375 l 2
 876.450195312 -12.8681640625 862.653320312 -17.8974609375 851.990234375 -17.8974609375 c 2
 51.9912109375 -17.8974609375 l 2
 41.058194407 -17.8974609375 34.2811788496 -13.085886559 34.2811788496 -6.43463872022 c 0
EndSplineSet
Validated: 524289
Substitution2: "'c2sc' Capitals to Small Capitals in Latin lookup 0 subtable" l.sc
EndChar

StartChar: O
Encoding: 79 79 37
Width: 1261
VWidth: 0
Flags: W
HStem: -17.8965 35.793<473.43 764.387> 1351.1 35.793<744.897 1045.65>
VStem: 146.198 56.6057<224.446 639.573> 1309.37 56.6157<717.355 1145>
LayerCount: 2
Back
SplineSet
709 1369 m 3
 562 1369 386 1329 282 1193 c 0
 191 1074 162 872 162 681 c 7
 162 480 190 284 290 165 c 4
 393 42 569 0 709 0 c 7
 849 0 1025 42 1128 165 c 4
 1228 284 1256 480 1256 681 c 7
 1256 872 1227 1074 1136 1193 c 0
 1032 1329 856 1369 709 1369 c 3
EndSplineSet
Fore
SplineSet
892.301757812 1351.10351562 m 0
 751.67578125 1351.10351562 583.887695312 1314.33984375 460.68359375 1188.26953125 c 0
 350.873046875 1075.90429688 277.64453125 875.428710938 237.239257812 685.337890625 c 0
 216.416302827 587.37279876 202.803177929 490.896772424 202.803177929 404.440317431 c 0
 202.803177929 314.31200461 217.597172794 235.072410443 254.439453125 176.385742188 c 0
 328.518554688 57.8310546875 489.182617188 17.896484375 621.97265625 17.896484375 c 0
 755.272460938 17.8974609375 924.938476562 57.07421875 1044.06152344 170.529296875 c 0
 1161.92285156 282.469726562 1232.96191406 476.3203125 1275.54589844 676.661132812 c 0
 1295.97994615 772.798386733 1309.37008855 871.606284826 1309.37008855 960.676667806 c 0
 1309.37008855 1047.57640339 1296.62462996 1125.20744772 1265.24023438 1182.046875 c 0
 1192.71191406 1313.40234375 1032.39257812 1351.10351562 892.301757812 1351.10351562 c 0
912.962890625 1386.89648438 m 0
 1066.87207031 1386.89648438 1241.54589844 1344.59667969 1319.203125 1203.95214844 c 0
 1352.67245564 1143.33657964 1365.98582588 1063.07887919 1365.98582588 974.256165082 c 0
 1365.98582588 882.987419583 1351.92910268 782.675432276 1331.23925781 685.337890625 c 0
 1288.37402344 483.670898438 1220.11035156 285.546875 1087.34960938 159.455078125 c 0
 948.213867188 26.939453125 748.009765625 -17.896484375 601.311523438 -17.896484375 c 0
 454.095703125 -17.896484375 280.625 26.1611328125 200.981445312 153.622070312 c 0
 161.634879958 216.297909437 146.197511157 298.482823282 146.197511157 390.734253834 c 0
 146.197511157 479.524291835 160.498153472 577.639601301 181.545898438 676.661132812 c 0
 222.337890625 868.571289062 292.982421875 1072.09667969 415.759765625 1197.73046875 c 0
 558.373046875 1343.66113281 759.587890625 1386.89648438 912.962890625 1386.89648438 c 0
EndSplineSet
Validated: 524289
Substitution2: "'c2sc' Capitals to Small Capitals in Latin lookup 0 subtable" o.sc
EndChar

StartChar: Q
Encoding: 81 81 38
Width: 1273
VWidth: 0
Flags: W
HStem: -153.897 35.7939<844.655 1009.17> -17.8965 35.793<476.353 664.642> 1351.1 35.793<747.929 1048.68>
VStem: 149.23 56.6057<224.446 639.573> 1312.4 56.6154<717.355 1145>
LayerCount: 2
Back
SplineSet
1259 -32 m 4
 1191 -104 1121.00976562 -136 1019 -136 c 31
 886.977539062 -136 841.022460938 0 709 0 c 31
 583.83984375 0 505.08984375 -31.58203125 413 -124 c 13
709 1369 m 7
 562 1369 386 1329 282 1193 c 4
 191 1074 162 872 162 681 c 7
 162 480 190 284 290 165 c 4
 393 42 569 0 709 0 c 7
 849 0 1025 42 1128 165 c 4
 1228 284 1256 480 1256 681 c 7
 1256 872 1227 1074 1136 1193 c 4
 1032 1329 856 1369 709 1369 c 7
EndSplineSet
Fore
SplineSet
895.333007812 1351.10351562 m 0
 754.70703125 1351.10351562 586.918945312 1314.33984375 463.715820312 1188.26953125 c 0
 353.905273438 1075.90429688 280.676757812 875.428710938 240.271484375 685.337890625 c 0
 219.44852939 587.37279876 205.835404492 490.896772424 205.835404492 404.440317431 c 0
 205.835404492 314.31200461 220.629399356 235.072410443 257.471679688 176.385742188 c 0
 331.549804688 57.8330078125 492.215820312 17.896484375 625.004882812 17.896484375 c 0
 758.303710938 17.896484375 927.970703125 57.07421875 1047.09375 170.529296875 c 0
 1164.95507812 282.469726562 1235.99414062 476.3203125 1278.578125 676.661132812 c 0
 1299.01217271 772.798386733 1312.40231511 871.606284826 1312.40231511 960.676667806 c 0
 1312.40231511 1047.57640339 1299.65685653 1125.20744772 1268.27246094 1182.046875 c 0
 1195.74316406 1313.40234375 1035.42382812 1351.10351562 895.333007812 1351.10351562 c 0
915.995117188 1386.89648438 m 0
 1069.90429688 1386.89648438 1244.578125 1344.59667969 1322.23535156 1203.95214844 c 0
 1355.70434771 1143.33631311 1369.01768132 1063.07817342 1369.01768132 974.254993439 c 0
 1369.01768132 882.986561095 1354.96124071 782.675015759 1334.27148438 685.337890625 c 0
 1291.40625 483.670898438 1223.14257812 285.546875 1090.38183594 159.455078125 c 0
 987.557617188 61.5234375 851.380859375 11.478515625 728.095703125 -7.9736328125 c 1
 797.520507812 -47.4267578125 828.138671875 -118.103515625 906.09765625 -118.103515625 c 0
 997.161132812 -118.103515625 1059.12988281 -93.0498046875 1137.40917969 -25.3935546875 c 0
 1147.890625 -16.333984375 1165.96972656 -11.7685546875 1177.11621094 -15.3671875 c 0
 1188.26171875 -18.9658203125 1188.81738281 -29.546875 1178.33496094 -38.6064453125 c 0
 1090.00488281 -114.951171875 998.391601562 -153.896484375 885.434570312 -153.897460938 c 0
 729.53125 -153.896484375 712.485351562 -17.896484375 604.34375 -17.896484375 c 0
 488.668945312 -17.896484375 418.823242188 -42.90625 312.185546875 -131.108398438 c 0
 301.370117188 -140.0546875 283.270507812 -144.295898438 272.448242188 -140.423828125 c 0
 261.625 -136.551757812 261.6328125 -125.836914062 272.448242188 -116.890625 c 0
 339.263671875 -61.625 400.928710938 -25.4873046875 466.66796875 -4.673828125 c 1
 360.640625 16.44921875 259.53125 64.7724609375 204.013671875 153.622070312 c 0
 164.66710652 216.297909437 149.229737719 298.482823282 149.229737719 390.734253834 c 0
 149.229737719 479.524291835 163.530380035 577.639601301 184.578125 676.661132812 c 0
 225.369140625 868.571289062 296.014648438 1072.09667969 418.791992188 1197.73046875 c 0
 561.404296875 1343.66113281 762.620117188 1386.89648438 915.995117188 1386.89648438 c 0
EndSplineSet
Validated: 524289
Substitution2: "'c2sc' Capitals to Small Capitals in Latin lookup 0 subtable" q.sc
EndChar

StartChar: R
Encoding: 82 82 39
Width: 1153
VWidth: 0
Flags: W
HStem: -17.8975 35.7939<44.1483 193.345 247.195 396.315 713.12 855.912 915.028 1064.82> 644.028 35.833<387.9 667.037> 1350.1 35.7939<338.556 476.515 530.365 893.258>
VStem: 1074 55.9301<982.103 1226.49>
LayerCount: 2
Back
SplineSet
1050.50488281 0 m 29
 750.504882812 0 l 21
490.504882812 661.200195312 m 4
 640.504882812 655.200195312 681.62890625 518.7421875 744.504882812 382.200195312 c 6
 900.504882812 0 l 6
85.1630859375 1368 m 21
 183.671875 1368 379.997070312 1368 478.504882812 1368 c 5
 752.3671875 1368 883.763671875 1240.39746094 883.763671875 1036.10839844 c 23
 883.763671875 860.671875 736.484375 660.420898438 490.504882812 661.200195312 c 6
 228.985351562 662.028320312 l 12
382 0 m 29
 82 0 l 21
228 0 m 13
 228 1368 l 29
EndSplineSet
Fore
SplineSet
530.365234375 1350.10253906 m 1
 387.900390625 679.861328125 l 1
 628.533203125 679.070030451 l 2
 628.987001818 679.070030451 629.44076389 679.070030451 629.894487682 679.070030451 c 0
 828.6266324 679.070030451 1020.01491036 821.94876892 1064.61425781 1031.77050781 c 0
 1070.85766521 1061.14352226 1074.00389789 1088.76507796 1074.00389789 1114.51459159 c 0
 1074.00389789 1263.7486174 968.324948535 1350.10253906 747.416992188 1350.10253906 c 2
 530.365234375 1350.10253906 l 1
42.4248664232 -6.43424554218 m 0
 42.4248664232 8.43265118356 66.2401352264 17.896484375 80.796875 17.896484375 c 2
 193.344726562 17.896484375 l 1
 476.514648438 1350.10253906 l 1
 354.075195312 1350.10253906 l 2
 339.846679688 1350.10253906 332.65625 1358.25195312 338.284179688 1368 c 0
 343.911132812 1377.74804688 360.5078125 1385.89648438 374.736328125 1385.89648438 c 2
 768.079101562 1385.89648438 l 2
 1015.25369037 1385.89648438 1129.93401555 1285.85414899 1129.93401555 1125.92836893 c 0
 1129.93401555 1040.66765609 1106.6990386 977.203864211 1070.31835938 914.724609375 c 0
 1004.63574219 801.921875 879.930664062 692.224609375 721.634765625 655.887695312 c 1
 806.086914062 607.995117188 816.344726562 494.624023438 842.086914062 390.79296875 c 1
 915.028320312 17.896484375 l 1
 1049.30175781 17.896484375 l 2
 1063.52929688 17.896484375 1070.71972656 9.748046875 1065.09277344 0 c 0
 1059.46484375 -9.748046875 1042.86816406 -17.8974609375 1028.640625 -17.8974609375 c 2
 728.639648438 -17.8974609375 l 2
 714.411132812 -17.8974609375 707.220703125 -9.748046875 712.848632812 0 c 0
 718.475585938 9.748046875 735.073242188 17.896484375 749.30078125 17.896484375 c 2
 855.912109375 17.896484375 l 1
 786.333007812 373.60546875 l 1
 751.641601562 513.8125 734.866210938 638.172851562 607.581054688 643.30859375 c 1
 380.284179688 644.028320312 l 1
 247.1953125 17.896484375 l 1
 380.795898438 17.896484375 l 2
 395.024414062 17.896484375 402.21484375 9.748046875 396.586914062 0 c 0
 390.959960938 -9.748046875 374.36328125 -17.8974609375 360.134765625 -17.8974609375 c 2
 60.1357421875 -17.8974609375 l 2
 49.2025102289 -17.8974609375 42.4248664232 -13.0856969391 42.4248664232 -6.43424554218 c 0
EndSplineSet
Validated: 524289
Substitution2: "'c2sc' Capitals to Small Capitals in Latin lookup 0 subtable" r.sc
EndChar

StartChar: T
Encoding: 84 84 40
Width: 1195
VWidth: 0
Flags: W
HStem: -17.8975 35.7939<406.792 545.521 599.371 758.493> 1350.1 35.7939<399.541 828.691 882.541 1310.69>
LayerCount: 2
Back
SplineSet
154 1068 m 21
 154 1168 154 1268 154 1368 c 5
 254 1368 1019 1368 1119 1368 c 5
 1119 1268 1119 1168 1119 1068 c 13
801 0 m 29
 501 0 l 21
637 0 m 13
 637 1368 l 29
EndSplineSet
Fore
SplineSet
758.764648438 0 m 0
 753.137695312 -9.748046875 736.541015625 -17.8974609375 722.3125 -17.8974609375 c 2
 422.311523438 -17.8974609375 l 2
 408.083984375 -17.8974609375 400.893554688 -9.748046875 406.520507812 0 c 0
 412.1484375 9.748046875 428.745117188 17.896484375 442.973632812 17.896484375 c 2
 545.521484375 17.896484375 l 1
 828.69140625 1350.10253906 l 1
 399.541015625 1350.10253906 l 1
 340.5 1072.33886719 l 2
 338.490234375 1062.88085938 324.129882812 1053 308.961914062 1050.63671875 c 0
 293.793945312 1048.2734375 282.794921875 1054.20410156 284.8046875 1063.66113281 c 2
 348.572265625 1363.66113281 l 2
 351.17578125 1375.91210938 372.838867188 1385.89746094 386.750976562 1385.89648438 c 2
 1351.75097656 1385.89648438 l 2
 1364.1328125 1385.89648438 1370.76757812 1379.3984375 1369.26660156 1372.33789062 c 2
 1305.5 1072.33886719 l 2
 1303.49023438 1062.88085938 1289.13085938 1053 1273.96191406 1050.63671875 c 0
 1258.79492188 1048.2734375 1247.79589844 1054.20410156 1249.80566406 1063.66113281 c 2
 1310.69140625 1350.10253906 l 1
 882.541015625 1350.10253906 l 1
 599.37109375 17.896484375 l 1
 742.973632812 17.896484375 l 2
 757.202148438 17.896484375 764.392578125 9.748046875 758.764648438 0 c 0
EndSplineSet
Validated: 524289
Substitution2: "'c2sc' Capitals to Small Capitals in Latin lookup 0 subtable" t.sc
EndChar

StartChar: U
Encoding: 85 85 41
Width: 1446
VWidth: 0
Flags: W
HStem: -17.8965 35.793<572.308 850.964> 1350.1 35.7939<335.896 476.017 529.866 687.595 1295.89 1436.02 1489.87 1648.06>
VStem: 281.669 56.5781<205.041 562.607> 476.017 53.8496<1282.66 1350.1>
LayerCount: 2
Back
SplineSet
1339 1368 m 21
 1239 1368 1139 1368 1039 1368 c 13
379 1368 m 21
 279 1368 179 1368 79 1368 c 13
224 1368 m 29
 224 1051.46972656 224 872.913085938 224 556.3828125 c 23
 224 393.170898438 252 233.856445312 352 137.227539062 c 4
 455 37.3515625 569 0 709 0 c 7
 849 0 953 30.8564453125 1056 130.732421875 c 4
 1156 227.360351562 1184 378.862304688 1184 549.723632812 c 31
 1184 868.8515625 1184 1048.87207031 1184 1368 c 29
EndSplineSet
Fore
SplineSet
1649.78608321 1374.43470541 m 0
 1649.78608321 1359.56752093 1625.97192232 1350.10351562 1611.41503906 1350.10351562 c 2
 1489.86621094 1350.10351562 l 1
 1320.66210938 554.0625 l 2
 1284.23242188 382.672851562 1225.21386719 227.500976562 1095.18261719 123.264648438 c 0
 963.694335938 17.5517578125 837.838867188 -17.896484375 690.637695312 -17.896484375 c 0
 542.888671875 -17.896484375 430.846679688 22.5888671875 347.118164062 124.857421875 c 0
 299.55275132 182.699035829 281.668724799 260.781498813 281.668724799 347.879471196 c 0
 281.668724799 412.499793953 291.513084212 482.082752766 306.383789062 552.043945312 c 2
 476.016601562 1350.10351562 l 1
 351.415039062 1350.10351562 l 2
 337.186523438 1350.10351562 329.99609375 1358.25195312 335.624023438 1368 c 0
 341.250976562 1377.74902344 357.848632812 1385.89746094 372.076171875 1385.89746094 c 2
 672.075195312 1385.89746094 l 2
 686.303710938 1385.89746094 693.494140625 1377.74804688 687.8671875 1368 c 0
 682.239257812 1358.25195312 665.642578125 1350.10351562 651.415039062 1350.10351562 c 2
 529.866210938 1350.10351562 l 1
 362.077148438 560.720703125 l 2
 347.473500572 492.015494688 338.246832252 424.331442545 338.246832252 362.10255925 c 0
 338.246832252 277.457793553 355.317916594 202.906123684 399.1484375 149.606445312 c 0
 478.973632812 52.10546875 579.041015625 17.896484375 711.298828125 17.896484375 c 0
 844.09375 17.8974609375 939.375976562 44.17578125 1056.30761719 138.18359375 c 0
 1167.39648438 227.236328125 1228.76074219 375.044921875 1264.96777344 545.384765625 c 2
 1436.01660156 1350.10351562 l 1
 1311.4140625 1350.10351562 l 2
 1297.18652344 1350.10351562 1289.99609375 1358.25097656 1295.62304688 1368 c 0
 1301.25 1377.74804688 1317.84765625 1385.89746094 1332.07519531 1385.89746094 c 2
 1632.07617188 1385.89746094 l 2
 1643.00862098 1385.89746094 1649.78608321 1381.08630212 1649.78608321 1374.43470541 c 0
EndSplineSet
Validated: 524289
Substitution2: "'c2sc' Capitals to Small Capitals in Latin lookup 0 subtable" u.sc
EndChar

StartChar: P
Encoding: 80 80 42
Width: 1009
VWidth: 0
Flags: W
HStem: -17.8975 35.7939<41.6431 190.84 244.69 393.81> 472.579 35.1969<373.38 632.755> 1350.1 35.7939<333.888 474.01 527.86 822.814>
VStem: 1085.71 56.1514<904.56 1161.55>
LayerCount: 2
Back
SplineSet
83 1368 m 21
 183 1368 313 1368 413 1368 c 5
 691.010513306 1368 914 1214.79394531 914 963.723632812 c 31
 914 644.724609375 595.010513306 408.72303772 229 516.72265625 c 13
382 0 m 29
 82 0 l 21
228 0 m 13
 228 1368 l 29
EndSplineSet
Fore
SplineSet
527.860351562 1350.10351562 m 1
 353.6328125 530.430664062 l 1
 405.945170786 514.986798479 458.190177077 507.775475755 509.367664611 507.775475755 c 0
 787.92577952 507.775475755 1025.49565718 717.270605295 1076.95996094 959.384765625 c 0
 1082.87108315 987.194761239 1085.70898706 1013.72976326 1085.70898706 1038.92042383 c 0
 1085.70898706 1235.40630915 913.053140209 1350.10351562 679.408203125 1350.10351562 c 2
 527.860351562 1350.10351562 l 1
39.9198507246 -6.43463872022 m 0
 39.9198507246 8.43251661585 63.7349902673 17.896484375 78.2919921875 17.896484375 c 2
 190.83984375 17.896484375 l 1
 474.009765625 1350.10351562 l 1
 349.407226562 1350.10351562 l 2
 335.1796875 1350.10351562 327.989257812 1358.25195312 333.616210938 1368 c 0
 339.244140625 1377.74804688 355.841796875 1385.89746094 370.0703125 1385.89746094 c 2
 700.0703125 1385.89746094 l 2
 959.290119591 1385.89746094 1141.86035613 1259.83569201 1141.86035613 1051.89593517 c 0
 1141.86035613 1025.26361925 1138.86552194 997.288198328 1132.65332031 968.0625 c 0
 1075.38713979 698.646133822 797.343978177 472.578586786 486.55843196 472.578586786 c 0
 439.291169596 472.578586786 391.763311279 477.917588418 344.866210938 489.186523438 c 1
 244.690429688 17.896484375 l 1
 378.291015625 17.896484375 l 2
 392.51953125 17.896484375 399.709960938 9.748046875 394.08203125 0 c 0
 388.455078125 -9.748046875 371.857421875 -17.8974609375 357.62890625 -17.8974609375 c 2
 57.6298828125 -17.8974609375 l 2
 46.696866282 -17.8974609375 39.9198507246 -13.085886559 39.9198507246 -6.43463872022 c 0
EndSplineSet
Validated: 524289
Substitution2: "'c2sc' Capitals to Small Capitals in Latin lookup 0 subtable" p.sc
EndChar

StartChar: C
Encoding: 67 67 43
Width: 1127
VWidth: 0
Flags: W
HStem: -17.8965 35.793<478.132 775.506> 1351.1 35.793<749.597 1036.84>
VStem: 150.9 56.6057<224.446 639.573>
LayerCount: 2
Back
SplineSet
1104 1329.20019531 m 21
 1104 1229.20019531 1104 1129.20019531 1104 1029.20019531 c 5
1104 1213.20019531 m 4
 988 1325.40039062 856 1369 709 1369 c 7
 562 1369 386 1329 282 1193 c 4
 191 1074 162 872 162 681 c 7
 162 480 190 284 290 165 c 4
 393 42 569 0 709 0 c 7
 849 0 986.864257812 32.013671875 1108 137.200195312 c 4
EndSplineSet
Fore
SplineSet
1297.56445312 1346.56347656 m 0
 1312.73242188 1348.92675781 1323.73144531 1342.99609375 1321.72070312 1333.5390625 c 2
 1257.95410156 1033.53808594 l 2
 1255.94433594 1024.08105469 1241.58496094 1014.20019531 1226.41601562 1011.83691406 c 0
 1211.24902344 1009.47363281 1200.25 1015.40429688 1202.25976562 1024.86132812 c 2
 1240.38476562 1204.22460938 l 1
 1150.56152344 1311.48535156 1034.25976562 1351.10253906 897.00390625 1351.10351562 c 0
 756.377929688 1351.10351562 588.58984375 1314.33984375 465.385742188 1188.26953125 c 0
 355.575195312 1075.90429688 282.346679688 875.428710938 241.94140625 685.337890625 c 0
 221.118451265 587.37279876 207.505326367 490.896772424 207.505326367 404.440317431 c 0
 207.505326367 314.31200461 222.299321231 235.072410443 259.141601562 176.385742188 c 0
 333.220703125 57.8310546875 493.884765625 17.896484375 626.674804688 17.896484375 c 0
 760.408203125 17.8974609375 891.728515625 46.9619140625 1026.41601562 145.693359375 c 0
 1038.12207031 154.274414062 1056.14355469 157.580078125 1065.99707031 152.954101562 c 0
 1075.85058594 148.327148438 1074.30273438 137.288085938 1062.59667969 128.70703125 c 0
 910.297851562 17.0654296875 752.280273438 -17.896484375 606.013671875 -17.896484375 c 0
 458.797851562 -17.896484375 285.327148438 26.1611328125 205.68359375 153.622070312 c 0
 166.337028395 216.297909437 150.899659594 298.482823282 150.899659594 390.734253834 c 0
 150.899659594 479.524291835 165.20030191 577.639601301 186.248046875 676.661132812 c 0
 227.040039062 868.571289062 297.684570312 1072.09667969 420.461914062 1197.73046875 c 0
 563.073584785 1343.65948482 764.285494445 1386.89648439 917.659842868 1386.89648439 c 0
 1051.47017421 1386.89605839 1165.13197294 1352.19797885 1254.21875 1269.30859375 c 1
 1266.02734375 1324.86230469 l 2
 1268.03710938 1334.31933594 1282.39648438 1344.20019531 1297.56445312 1346.56347656 c 0
EndSplineSet
Validated: 524289
Substitution2: "'c2sc' Capitals to Small Capitals in Latin lookup 0 subtable" c.sc
EndChar

StartChar: G
Encoding: 71 71 44
Width: 1206
VWidth: 0
Flags: W
HStem: -423.648 2.12997<730.49 743.593> -17.8965 35.793<468.437 763.404> 519.303 35.7939<901.985 1088.12 1141.99 1253.68> 1351.1 35.793<739.902 1027.14>
VStem: 141.205 56.6053<224.446 639.573>
LayerCount: 2
Back
SplineSet
1216 537.200195312 m 21
 1116 537.200195312 1016 537.200195312 916 537.200195312 c 13
1107 534 m 21
 1108 0 l 6
 1108.26953125 -143.9453125 1105 -348 929 -405.799804688 c 4
1104 1329.20019531 m 17
 1104 1229.20019531 1104 1129.20019531 1104 1029.20019531 c 1
1104 1213.20019531 m 0
 988 1325.40039062 856 1369 709 1369 c 3
 562 1369 386 1329 282 1193 c 0
 191 1074 162 872 162 681 c 3
 162 480 190 284 290 165 c 0
 393 42 569 0 709 0 c 3
 849 0 986.864257812 32.013671875 1108 137.200195312 c 0
EndSplineSet
Fore
SplineSet
1287.87011719 1346.56347656 m 0
 1303.03710938 1348.92675781 1314.03613281 1342.99609375 1312.02636719 1333.5390625 c 2
 1248.25878906 1033.53808594 l 2
 1246.24902344 1024.08105469 1231.88964844 1014.20019531 1216.72167969 1011.83691406 c 0
 1201.5546875 1009.47363281 1190.5546875 1015.40429688 1192.56542969 1024.86132812 c 2
 1230.69042969 1204.22460938 l 1
 1140.8671875 1311.48535156 1024.56542969 1351.10253906 887.30859375 1351.10351562 c 0
 746.682617188 1351.10351562 578.89453125 1314.33984375 455.69140625 1188.26953125 c 0
 345.880859375 1075.90429688 272.65234375 875.428710938 232.247070312 685.337890625 c 0
 211.423541937 587.372350594 197.81014371 490.895889715 197.81014371 404.43913088 c 0
 197.81014371 314.311309144 212.604170409 235.072152904 249.446289062 176.385742188 c 0
 323.525390625 57.8310546875 484.190429688 17.896484375 616.98046875 17.896484375 c 0
 747.857421875 17.896484375 876.424804688 45.734375 1008.09863281 139.463867188 c 1
 1088.125 519.302734375 l 1
 917.50390625 519.302734375 l 2
 903.275390625 519.302734375 896.0859375 527.452148438 901.712890625 537.200195312 c 0
 907.33984375 546.948242188 923.938476562 555.096679688 938.166015625 555.096679688 c 2
 1238.16601562 555.096679688 l 2
 1252.39355469 555.096679688 1259.58300781 546.948242188 1253.95605469 537.200195312 c 0
 1248.32910156 527.452148438 1231.73144531 519.302734375 1217.50292969 519.302734375 c 2
 1141.99121094 519.302734375 l 1
 1062.78222656 143.345703125 l 2
 1062.72949219 142.146484375 1062.26269531 140.90234375 1061.99414062 139.637695312 c 2
 1033.5 4.359375 l 2
 1004.40917969 -133.721679688 963.12890625 -354.192382812 743.813476562 -421.517578125 c 0
 739.10275165 -422.963630127 734.482126066 -423.64754891 730.293307139 -423.64754891 c 0
 698.218762227 -423.64754891 715.101909634 -396.795999564 736.973632812 -390.083007812 c 0
 894.23046875 -341.807617188 946.234375 -154.169921875 977.797851562 -4.359375 c 2
 998.075195312 91.890625 l 1
 862.997070312 9.20703125 725.102539062 -17.896484375 596.318359375 -17.896484375 c 0
 449.102539062 -17.896484375 275.6328125 26.1611328125 195.989257812 153.622070312 c 0
 156.642375493 216.298414335 141.204821371 298.484147399 141.204821371 390.736483288 c 0
 141.204821371 479.525934237 155.505165574 577.640430087 176.552734375 676.661132812 c 0
 217.344726562 868.571289062 287.990234375 1072.09667969 410.766601562 1197.73046875 c 0
 553.378272285 1343.65948482 754.591158485 1386.89648439 907.96550693 1386.89648439 c 0
 1041.77583827 1386.89605839 1155.437637 1352.19797885 1244.52441406 1269.30859375 c 1
 1256.33203125 1324.86230469 l 2
 1258.34277344 1334.31933594 1272.70117188 1344.20019531 1287.87011719 1346.56347656 c 0
EndSplineSet
Validated: 524289
Substitution2: "'c2sc' Capitals to Small Capitals in Latin lookup 0 subtable" g.sc
EndChar

StartChar: J
Encoding: 74 74 45
Width: 584
VWidth: 0
Flags: W
HStem: -423.648 33.5953<-51.3767 10.4034> 1349.3 35.7939<453.058 639.188 693.046 805.226>
LayerCount: 2
Back
SplineSet
336 1367.20019531 m 21
 236 1367.20019531 136 1367.20019531 36 1367.20019531 c 13
227 1364 m 21
 228 230 l 6
 228.202825592 -0.00422105499237 208.989501953 -308 -91 -405.799804688 c 4
EndSplineSet
Fore
SplineSet
806.948846884 1373.63535329 m 0
 806.948846884 1358.76841734 783.13573626 1349.30273438 768.577148438 1349.30273438 c 2
 693.045898438 1349.30273438 l 1
 457.038085938 234.348632812 l 2
 409.3359375 8.9921875 328.400390625 -314.828125 -21.630859375 -421.546875 c 0
 -26.3095936997 -422.973439409 -30.8952688003 -423.648029729 -35.0543988464 -423.648029729 c 0
 -44.8367742791 -423.648029729 -53.0397633472 -420.083904741 -53.0397633472 -412.432638791 c 0
 -53.0397633472 -404.18293689 -42.3852739349 -394.353964913 -28.2763671875 -390.052734375 c 0
 263.247070312 -301.171875 351.670898438 -9 401.340820312 225.65234375 c 2
 639.188476562 1349.30273438 l 1
 468.577148438 1349.30273438 l 2
 454.349609375 1349.30273438 447.16015625 1357.45214844 452.786132812 1367.20019531 c 0
 458.4140625 1376.94824219 475.01171875 1385.09667969 489.240234375 1385.09667969 c 2
 789.239257812 1385.09667969 l 2
 800.171916998 1385.09667969 806.948846884 1380.28599638 806.948846884 1373.63535329 c 0
EndSplineSet
Validated: 524289
Substitution2: "'c2sc' Capitals to Small Capitals in Latin lookup 0 subtable" j.sc
EndChar

StartChar: W
Encoding: 87 87 46
Width: 2066
VWidth: 0
Flags: W
HStem: -17.8614 21G<650.989 663.799 1341.02 1353.86> 1350.1 35.7939<340.427 486.854 544.619 692.595 1905.89 2054.01 2106.28 2258.06>
LayerCount: 2
Back
SplineSet
1561.5 1368 m 21
 1661.5 1368 1761.5 1368 1861.5 1368 c 5
-3.5 1368 m 21
 96.5 1368 196.5 1368 296.5 1368 c 5
143.5 1368 m 29
 586.5 0 l 29
 933 1044 l 21
 1276.5 0 l 13
 1719.5 1368 l 21
EndSplineSet
Fore
SplineSet
338.704030412 1361.56496065 m 0
 338.704030412 1376.43235831 362.518877904 1385.89648438 377.075195312 1385.89648438 c 2
 677.076171875 1385.89648438 l 2
 691.303710938 1385.89648438 698.495117188 1377.74902344 692.8671875 1368 c 0
 687.240234375 1358.25195312 670.642578125 1350.10253906 656.4140625 1350.10253906 c 2
 544.619140625 1350.10253906 l 1
 685.515625 83.892578125 l 1
 1208.02929688 1043.59765625 l 2
 1211.55646782 1050.07623392 1233.7269791 1062.55395617 1248.6848822 1062.55395617 c 0
 1255.92678294 1062.55395617 1261.47802459 1059.62913701 1262.40429688 1051.68261719 c 2
 1375.06738281 84.328125 l 1
 2054.01269531 1350.10253906 l 1
 1921.41308594 1350.10253906 l 2
 1907.18554688 1350.10253906 1899.99609375 1358.25195312 1905.62304688 1368 c 0
 1911.25097656 1377.74804688 1927.84765625 1385.89648438 1942.07519531 1385.89648438 c 2
 2099.34179688 1385.89648438 l 2
 2099.82421875 1385.90527344 2100.296875 1385.89648438 2100.765625 1385.89648438 c 2
 2242.07617188 1385.89648438 l 2
 2253.00904649 1385.89648438 2259.7866046 1381.08561147 2259.7866046 1374.43476482 c 0
 2259.7866046 1359.56796471 2235.97081495 1350.10253906 2221.4140625 1350.10253906 c 2
 2106.27636719 1350.10253906 l 1
 1382.36816406 0.5009765625 l 2
 1377.66140159 -8.2739424143 1361.79175269 -17.8613991404 1345.91922559 -17.8613991404 c 0
 1336.1194408 -17.8613991404 1328.68843782 -14.111973413 1327.94042969 -7.6826171875 c 2
 1215.15527344 960.706054688 l 1
 692.314453125 0.40234375 l 2
 687.404857952 -8.61751468039 671.702290881 -17.8613991404 655.896081661 -17.8613991404 c 0
 646.082464829 -17.8613991404 638.652953572 -14.0836040789 637.935546875 -7.6357421875 c 2
 486.853515625 1350.10253906 l 1
 356.4140625 1350.10253906 l 2
 345.48104597 1350.10253906 338.704030412 1354.91353686 338.704030412 1361.56496065 c 0
EndSplineSet
Validated: 524289
Substitution2: "'c2sc' Capitals to Small Capitals in Latin lookup 0 subtable" w.sc
EndChar

StartChar: S
Encoding: 83 83 47
Width: 991
VWidth: 0
Flags: W
HStem: -18.1885 35.7864<396.899 649.226> 1350.12 35.7927<636.224 866.679>
VStem: 300.013 56.2048<894.149 1122.26> 932.811 56.2097<246.816 477.047>
LayerCount: 2
Back
SplineSet
331.279296875 355.130859375 m 17
 331.279296875 255.130859375 331.279296875 155.130859375 331.279296875 55.130859375 c 1
  Spiro
    331.279 355.131 {
    331.279 55.1308 v
    0 0 z
  EndSpiro
1104 1329.20019531 m 17
 1104 1229.20019531 1104 1129.20019531 1104 1029.20019531 c 1
  Spiro
    1104 1329.2 {
    1104 1029.2 v
    0 0 z
  EndSpiro
1108 1209.19995117 m 0
 1009.20023898 1305.67749836 874.085102177 1366.65298651 736 1368 c 0
 648.768429648 1368.85093975 559.841286544 1344.36450734 491.183583541 1290.54823858 c 0
 456.854732039 1263.64010421 427.974706648 1229.63824769 407.913021908 1190.90781332 c 0
 387.851337168 1152.17737895 376.752401052 1108.81132164 376 1065.19995117 c 0
 375.189032379 1018.19389065 386.418513128 971.171403389 407.335690503 929.067970222 c 0
 428.252867877 886.964537054 458.624071276 849.870689522 494.193842043 819.12953142 c 0
 565.333383576 757.647215217 655.168061449 722.818764877 744 692 c 0
 850.23150832 655.144743536 960.695597001 618.913117155 1044.11893387 543.520875146 c 0
 1085.8306023 505.824754141 1119.73030427 458.872853947 1138.77226052 405.974227078 c 0
 1157.81421676 353.075600208 1161.49246893 294.578513212 1148 240 c 0
 1128.66226632 161.776751255 1073.98979387 94.284660948 1004.46077445 53.559483888 c 0
 934.931755028 12.8343068281 852.53321327 -2.68814963799 772 0 c 0
 611.240277413 5.36606168469 456.187233905 76.1976428988 334.279449463 181.130836487 c 0
  Spiro
    1108 1209.2 {
    736 1368 o
    376 1065.2 o
    744 692 o
    1148 240 o
    772 0 o
    334.279 181.131 o
    0 0 z
  EndSpiro
EndSplineSet
Fore
SplineSet
765.90730704 1385.91730933 m 0
 891.963547233 1385.91730933 1000.2920572 1340.82016141 1079.79101562 1268.47558594 c 1
 1091.77636719 1324.86230469 l 2
 1093.78710938 1334.31933594 1108.14550781 1344.20019531 1123.31445312 1346.56347656 c 0
 1138.48144531 1348.92675781 1149.48046875 1342.99609375 1147.47070312 1333.5390625 c 2
 1123.76757812 1222.0234375 l 1
 1127.86968152 1216.94172733 1126.47342428 1210.31135026 1119.91113281 1203.8828125 c 1
 1083.703125 1033.53808594 l 2
 1081.69335938 1024.08105469 1067.33398438 1014.20019531 1052.16601562 1011.83691406 c 0
 1036.99804688 1009.47363281 1025.99902344 1015.40429688 1028.00976562 1024.86132812 c 2
 1066.09667969 1204.04980469 l 1
 988.62205635 1295.04595642 871.732188784 1350.12462815 745.052546654 1350.12462815 c 0
 562.382183501 1350.12462815 399.982539602 1228.90777504 363.3125 1069.34375 c 0
 358.545565907 1048.60062275 356.217731167 1027.77336724 356.217731167 1007.37560756 c 0
 356.217731167 929.41165491 386.428384328 874.933710549 426.936523438 832.045898438 c 0
 554.859614645 696.609605139 791.319589749 698.462552809 918.471679688 556.225585938 c 0
 960.602240849 509.099739232 989.020303102 452.612065945 989.020303102 374.169371891 c 0
 989.020303102 330.677899607 979.057822099 285.1201118 958.97265625 241.435546875 c 0
 892.59049785 97.0515984789 714.366033854 -18.1884577978 512.096540205 -18.1884577978 c 0
 352.167132947 -18.1884577978 220.102285288 41.6232468281 119.102539062 130.811523438 c 1
 103.938476562 59.4697265625 l 2
 101.927734375 50.01171875 87.5673828125 40.130859375 72.400390625 37.767578125 c 0
 57.232421875 35.404296875 46.232421875 41.3349609375 48.2431640625 50.7919921875 c 2
 112.009765625 350.791992188 l 2
 114.020507812 360.25 128.380859375 370.130859375 143.548828125 372.494140625 c 0
 158.716796875 374.857421875 169.71484375 368.926757812 167.705078125 359.469726562 c 2
 132.336914062 193.075195312 l 1
 233.209816459 87.3076480227 372.949538716 17.5979673839 533.179671232 17.5979673839 c 0
 707.205093306 17.5979673839 846.495624128 110.792358688 905.240234375 238.563476562 c 0
 923.503463538 278.285346266 932.810647204 320.711348413 932.810647204 361.287181602 c 0
 932.810647204 434.235733202 906.183318656 486.994845625 867.009765625 530.815429688 c 0
 717.79663945 697.729792771 380.852736076 671.274009632 310.161132812 919.970703125 c 0
 303.472442378 943.502875951 300.012937705 968.480231022 300.012937705 994.179874057 c 0
 300.012937705 1077.74144139 328.021521549 1136.3541544 369.241210938 1192.77734375 c 0
 399.23046875 1233.82714844 437.858398438 1270.43261719 481.903320312 1300.02539062 c 0
 569.207608607 1358.68513549 672.667818629 1385.91730933 765.90730704 1385.91730933 c 0
EndSplineSet
Validated: 524289
Substitution2: "'c2sc' Capitals to Small Capitals in Latin lookup 0 subtable" s.sc
EndChar

StartChar: V
Encoding: 86 86 48
Width: 1436
VWidth: 0
Flags: W
HStem: -17.8402 21G<681.042 693.748> 1350.1 35.7939<340.427 487.077 545.181 692.595 1275.89 1423.63 1475.88 1628.06>
LayerCount: 2
Back
SplineSet
-3.5 1368 m 21
 96.5 1368 196.5 1368 296.5 1368 c 5
143.5 1368 m 29
 616.5 0 l 29
 1089.5 1368 l 21
931.5 1368 m 21
 1031.5 1368 1131.5 1368 1231.5 1368 c 5
EndSplineSet
Fore
SplineSet
338.704030412 1361.56509354 m 0
 338.704030412 1376.43222157 362.519096729 1385.89746094 377.075195312 1385.89746094 c 2
 677.076171875 1385.89746094 l 2
 691.303710938 1385.89746094 698.495117188 1377.74902344 692.8671875 1368 c 0
 687.240234375 1358.25195312 670.642578125 1350.10351562 656.4140625 1350.10351562 c 2
 545.180664062 1350.10351562 l 1
 714.390625 79.7890625 l 1
 1423.62890625 1350.10351562 l 1
 1291.41308594 1350.10351562 l 2
 1277.18457031 1350.10351562 1269.99609375 1358.25195312 1275.62304688 1368 c 0
 1281.25097656 1377.74804688 1297.84765625 1385.89746094 1312.07519531 1385.89746094 c 2
 1612.07617188 1385.89746094 l 2
 1623.00847906 1385.89746094 1629.78648383 1381.08642702 1629.78648383 1374.43496445 c 0
 1629.78648383 1359.56774281 1605.97201427 1350.10351562 1591.4140625 1350.10351562 c 2
 1475.87695312 1350.10351562 l 1
 722.220703125 0.232421875 l 2
 717.363000168 -8.46978991182 701.602706622 -17.8402353911 685.892448229 -17.8402353911 c 0
 676.190973021 -17.8402353911 668.803748381 -14.1734235554 667.958984375 -7.8330078125 c 2
 487.077148438 1350.10351562 l 1
 356.4140625 1350.10351562 l 2
 345.48104597 1350.10351562 338.704030412 1354.91393684 338.704030412 1361.56509354 c 0
EndSplineSet
Validated: 524289
Substitution2: "'c2sc' Capitals to Small Capitals in Latin lookup 0 subtable" v.sc
EndChar

StartChar: N
Encoding: 78 78 49
Width: 1335
VWidth: 0
Flags: W
HStem: -17.8975 35.7939<56.6503 195.847 249.697 358.818> 1350.1 35.793<338.895 479.017 1178.89 1319.02 1372.87 1531.06>
LayerCount: 2
Back
SplineSet
83 1368 m 21
 228 1368 l 6
 285.145507812 1368 356.014648438 1314.08203125 379 1269.20019531 c 6
 1068 0 l 13
 1068 1368 l 29
342 0 m 29
 92 0 l 21
228 0 m 13
 228 1368 l 29
1223 1368 m 21
 1123 1368 1023 1368 923 1368 c 13
EndSplineSet
Fore
SplineSet
1532.78607108 1374.43411266 m 0
 1532.78607108 1359.5673464 1508.97069953 1350.10351562 1494.4140625 1350.10351562 c 2
 1372.86621094 1350.10351562 l 1
 1086.81445312 4.337890625 l 2
 1085.01502575 -4.1312337175 1061.80553953 -18.4789293411 1045.71022434 -18.4789293411 c 0
 1038.97206914 -18.4789293411 1033.48074424 -15.964350814 1031.32910156 -9.451171875 c 2
 612.068359375 1259.86621094 l 2
 602.487304688 1291.84960938 565.60546875 1326.9375 531.1953125 1342.24023438 c 1
 249.697265625 17.896484375 l 1
 343.298828125 17.896484375 l 2
 357.526367188 17.896484375 364.716796875 9.748046875 359.08984375 0 c 0
 353.461914062 -9.748046875 336.865234375 -17.8974609375 322.63671875 -17.8974609375 c 2
 72.6376953125 -17.8974609375 l 2
 61.7044633539 -17.8974609375 54.9268195482 -13.0856969391 54.9268195482 -6.43424554218 c 0
 54.9268195482 8.43265118356 78.7420883514 17.896484375 93.298828125 17.896484375 c 2
 195.846679688 17.896484375 l 1
 479.016601562 1350.10351562 l 1
 354.4140625 1350.10351562 l 2
 340.186523438 1350.10351562 332.99609375 1358.25195312 338.623046875 1368 c 0
 344.250976562 1377.74804688 360.84765625 1385.89648438 375.076171875 1385.89648438 c 2
 520.076171875 1385.89648438 l 2
 595.0703125 1385.89648438 653.229492188 1325.90722656 667.421875 1278.53417969 c 1
 1054.62890625 106.259765625 l 1
 1319.01660156 1350.10351562 l 1
 1194.41503906 1350.10351562 l 2
 1180.18652344 1350.10351562 1172.99609375 1358.25195312 1178.62304688 1368 c 0
 1184.25097656 1377.74804688 1200.84765625 1385.89648438 1215.07617188 1385.89648438 c 2
 1515.07519531 1385.89648438 l 2
 1526.00842727 1385.89648438 1532.78607108 1381.08529698 1532.78607108 1374.43411266 c 0
EndSplineSet
Validated: 524289
Substitution2: "'c2sc' Capitals to Small Capitals in Latin lookup 0 subtable" n.sc
EndChar

StartChar: M
Encoding: 77 77 50
Width: 1706
VWidth: 0
Flags: W
HStem: -17.8965 35.7939<55.6502 204.848 258.697 407.818 1242.12 1390.85 1444.7 1593.82> 1350.1 35.793<347.895 488.017 1615.03 1673.96 1727.87 1886.06>
LayerCount: 2
Back
SplineSet
1599 1368 m 21
 1444 1368 l 6
 1366.98632812 1368 1326.59082031 1351.41894531 1297.60495388 1277.19995117 c 6
 868 177.200195312 l 5
 410.245923316 1289.19995117 l 6
 388.854492188 1341.1640625 344 1368 258 1368 c 5
 258 1368 213 1368 113 1368 c 13
1598 0 m 21
 1498 0 1398 0 1298 0 c 5
1444 0 m 13
 1444 1368 l 29
412 0 m 29
 112 0 l 21
258 0 m 13
 258 1368 l 29
EndSplineSet
Fore
SplineSet
1887.78608321 1374.43417191 m 0
 1887.78608321 1359.56748291 1863.97150979 1350.10351562 1849.41503906 1350.10351562 c 2
 1727.86621094 1350.10351562 l 1
 1444.69726562 17.8974609375 l 1
 1578.29980469 17.8974609375 l 2
 1592.52734375 17.8974609375 1599.71679688 9.7490234375 1594.08984375 0 c 0
 1588.46289062 -9.748046875 1571.86523438 -17.896484375 1557.63769531 -17.896484375 c 2
 1257.63671875 -17.896484375 l 2
 1243.40917969 -17.896484375 1236.21875 -9.7490234375 1241.84570312 0 c 0
 1247.47265625 9.748046875 1264.07128906 17.8974609375 1278.29882812 17.8974609375 c 2
 1390.84765625 17.8974609375 l 1
 1673.95703125 1349.82421875 l 1
 1623.68359375 1348.13671875 1601.37792969 1337.22460938 1564.98535156 1276.8828125 c 2
 901.567382812 176.8828125 l 2
 895.618635407 167.020982234 852.223992923 146.155185935 847.71875 168.795898438 c 2
 626.327148438 1280.79589844 l 2
 618.326171875 1320.98339844 594.291992188 1342.59570312 541.514648438 1348.45214844 c 1
 258.697265625 17.8974609375 l 1
 392.299804688 17.8974609375 l 2
 406.528320312 17.8974609375 413.717773438 9.748046875 408.08984375 0 c 0
 402.462890625 -9.748046875 385.865234375 -17.896484375 371.637695312 -17.896484375 c 2
 71.63671875 -17.896484375 l 2
 60.7042696467 -17.896484375 53.9268074169 -13.0853255528 53.9268074169 -6.43417191223 c 0
 53.9268074169 8.43250061998 77.7431559338 17.8974609375 92.298828125 17.8974609375 c 2
 204.84765625 17.8974609375 l 1
 488.016601562 1350.10351562 l 1
 363.4140625 1350.10351562 l 2
 349.185546875 1350.10351562 341.99609375 1358.25195312 347.623046875 1368 c 0
 353.250976562 1377.74804688 369.84765625 1385.89648438 384.075195312 1385.89648438 c 2
 529.075195312 1385.89648438 l 2
 624.859375 1385.89648438 670.977539062 1353.74707031 682.155273438 1297.60449219 c 2
 891.392578125 246.650390625 l 1
 1513.11621094 1277.51660156 l 2
 1561.65332031 1357.99804688 1626.37304688 1385.89648438 1715.07617188 1385.89648438 c 2
 1870.07617188 1385.89648438 l 2
 1881.00862098 1385.89648438 1887.78608321 1381.08532555 1887.78608321 1374.43417191 c 0
EndSplineSet
Validated: 524289
Substitution2: "'c2sc' Capitals to Small Capitals in Latin lookup 0 subtable" m.sc
EndChar

StartChar: dieresis
Encoding: 168 168 51
Width: 470
VWidth: 0
Flags: W
HStem: 1285.2 96<238.96 292.948 498.82 552.948>
VStem: 236.147 59.614<1288.47 1377.93> 496.147 59.614<1288.47 1378.25>
LayerCount: 2
Fore
SplineSet
236.147079809 1316.77994933 m 0
 236.147079809 1348.95340828 257.495661071 1381.20019531 276.157226562 1381.20019531 c 0
 288.249418289 1381.20019531 295.761123315 1368.03794591 295.761123315 1349.6204413 c 0
 295.761123315 1317.44698234 274.412542055 1285.20019531 255.750976562 1285.20019531 c 0
 243.658784836 1285.20019531 236.147079809 1298.36244471 236.147079809 1316.77994933 c 0
555.761123315 1349.6204413 m 0
 555.761123315 1317.44698234 534.412542055 1285.20019531 515.750976562 1285.20019531 c 0
 503.658784836 1285.20019531 496.147079809 1298.36244471 496.147079809 1316.77994933 c 0
 496.147079809 1321.90341768 496.728386158 1327.43357309 497.954101562 1333.20019531 c 0
 503.5859375 1359.69628906 520.701171875 1381.20019531 536.157226562 1381.20019531 c 0
 548.249418289 1381.20019531 555.761123315 1368.03794591 555.761123315 1349.6204413 c 0
EndSplineSet
Validated: 524289
EndChar

StartChar: underscore
Encoding: 95 95 53
Width: 823
VWidth: 0
Flags: W
HStem: -185 36<-27.166 850.166>
LayerCount: 2
Fore
SplineSet
-29.1840050594 -173.847610994 m 0
 -29.1840050594 -158.567070836 -4.38648666242 -149 9.826171875 -149 c 2
 834.826171875 -149 l 2
 845.425248733 -149 852.184005059 -153.585323683 852.184005059 -160.152389006 c 0
 852.184005059 -175.432929164 827.386486663 -185 813.173828125 -185 c 2
 -11.826171875 -185 l 2
 -22.4252487327 -185 -29.1840050594 -180.414676317 -29.1840050594 -173.847610994 c 0
EndSplineSet
Validated: 524289
EndChar

StartChar: X
Encoding: 88 88 54
Width: 1472
VWidth: 0
Flags: W
HStem: -17.8965 35.7939<61.6502 219.43 272.997 413.818 997.117 1135.26 1199.67 1348.82> 1350.1 35.7939<352.427 502.047 566.458 704.595 1287.43 1428.72 1482.28 1640.06>
LayerCount: 2
Back
SplineSet
1231.5 0 m 21
 1131.5 0 1031.5 0 931.5 0 c 5
138.5 0 m 12
 1089.5 1368 l 4
296.5 0 m 21
 196.5 0 96.5 0 -3.5 0 c 5
-3.5 1368 m 21
 96.5 1368 196.5 1368 296.5 1368 c 5
143.5 1368 m 28
 1084.5 0 l 12
931.5 1368 m 21
 1031.5 1368 1131.5 1368 1231.5 1368 c 5
EndSplineSet
Fore
SplineSet
1285.70403041 1361.56496065 m 0
 1285.70403041 1376.43172366 1309.51940651 1385.89746094 1324.07519531 1385.89746094 c 2
 1624.07617188 1385.89746094 l 2
 1635.00847906 1385.89746094 1641.78648383 1381.08642702 1641.78648383 1374.43496445 c 0
 1641.78648383 1359.56786551 1617.97288732 1350.10351562 1603.41503906 1350.10351562 c 2
 1482.28271007 1350.10351562 l 1
 881.198570722 687.921114921 l 1
 1199.66633806 17.8974609375 l 1
 1333.29882812 17.8974609375 l 2
 1347.52636719 17.8974609375 1354.71777344 9.7490234375 1349.08984375 0 c 0
 1343.46289062 -9.748046875 1326.86621094 -17.896484375 1312.63769531 -17.896484375 c 2
 1012.63671875 -17.896484375 l 2
 998.408203125 -17.896484375 991.21875 -9.748046875 996.845703125 0 c 0
 1002.47363281 9.748046875 1019.0703125 17.8974609375 1033.29785156 17.8974609375 c 2
 1135.25507491 17.8974609375 l 1
 838.923471063 641.348887924 l 1
 272.99667504 17.8974609375 l 1
 398.298828125 17.8974609375 l 2
 412.52734375 17.8974609375 419.717773438 9.7490234375 414.08984375 0 c 0
 408.462890625 -9.748046875 391.866210938 -17.896484375 377.637695312 -17.896484375 c 2
 77.63671875 -17.896484375 l 2
 66.7042696467 -17.896484375 59.9268074169 -13.0853255528 59.9268074169 -6.43417191223 c 0
 59.9268074169 8.43237793267 83.7422828623 17.8974609375 98.2978515625 17.8974609375 c 2
 219.430090452 17.8974609375 l 1
 820.514288937 680.079926792 l 1
 502.046552561 1350.10351562 l 1
 368.4140625 1350.10351562 l 2
 357.48104597 1350.10351562 350.704030412 1354.91353686 350.704030412 1361.56496065 c 0
 350.704030412 1376.43235831 374.518877904 1385.89746094 389.075195312 1385.89746094 c 2
 531.577074707 1385.89746094 l 2
 533.822764073 1386.32854045 536.02306194 1386.56368306 538.11984941 1386.56368306 c 0
 540.105931174 1386.56368306 541.999144232 1386.35271498 543.75009785 1385.89746094 c 2
 689.076171875 1385.89746094 l 2
 703.303710938 1385.89746094 710.495117188 1377.74902344 704.8671875 1368 c 0
 699.240234375 1358.25195312 682.643554688 1350.10351562 668.415039062 1350.10351562 c 2
 566.457815718 1350.10351562 l 1
 862.789388596 726.652153789 l 1
 1428.71612548 1350.10351562 l 1
 1303.4140625 1350.10351562 l 2
 1292.48104597 1350.10351562 1285.70403041 1354.9139799 1285.70403041 1361.56496065 c 0
EndSplineSet
Validated: 524289
Substitution2: "'c2sc' Capitals to Small Capitals in Latin lookup 0 subtable" x.sc
EndChar

StartChar: Y
Encoding: 89 89 55
Width: 1445
VWidth: 0
Flags: W
HStem: -17.8975 35.7939<517.784 670.513 724.362 869.484> 1350.1 35.793<343.094 493.749 558.266 695.261 1279.09 1420.04 1473.73 1631.73>
LayerCount: 2
Back
SplineSet
611 0 m 4
 611 694 l 5
 1090 1368 l 4
761 0 m 21
 661 0 561 0 461 0 c 5
-4 1368 m 21
 96 1368 196 1368 296 1368 c 5
144 1368 m 20
 611 694 l 5
932 1368 m 21
 1032 1368 1132 1368 1232 1368 c 5
EndSplineSet
Fore
SplineSet
1277.37050119 1361.5647805 m 0
 1277.37050119 1376.4319285 1301.18421822 1385.89648438 1315.7421875 1385.89648438 c 2
 1615.7421875 1385.89648438 l 2
 1626.6746366 1385.89648438 1633.45209883 1381.08532555 1633.45209883 1374.43417191 c 0
 1633.45209883 1359.5673767 1609.63576805 1350.10351562 1595.07910156 1350.10351562 c 2
 1473.73461476 1350.10351562 l 1
 868.096679688 694.111328125 l 1
 724.362443516 17.896484375 l 1
 853.96484375 17.896484375 l 2
 868.192382812 17.896484375 875.3828125 9.748046875 869.755859375 0 c 0
 864.127929688 -9.748046875 847.530273438 -17.8974609375 833.301757812 -17.8974609375 c 2
 533.302734375 -17.8974609375 l 2
 519.07421875 -17.8974609375 511.884765625 -9.748046875 517.51171875 0 c 0
 523.139648438 9.748046875 539.736328125 17.896484375 553.96484375 17.896484375 c 2
 670.513353956 17.896484375 l 1
 812.586784547 686.303001009 l 1
 493.749483049 1350.10351562 l 1
 359.081054688 1350.10351562 l 2
 348.148180068 1350.10351562 341.370621966 1354.91393385 341.370621966 1361.5647805 c 0
 341.370621966 1376.43158061 365.186411613 1385.89648438 379.743164062 1385.89648438 c 2
 523.220060207 1385.89648438 l 2
 525.467216648 1386.32819563 527.669252661 1386.56369819 529.768008608 1386.56369819 c 0
 531.755879251 1386.56369819 533.651094891 1386.35242325 535.404235812 1385.89648438 c 2
 679.7421875 1385.89648438 l 2
 693.969726562 1385.89648438 701.16015625 1377.74804688 695.533203125 1368 c 0
 689.905273438 1358.25195312 673.30859375 1350.10351562 659.080078125 1350.10351562 c 2
 558.265872307 1350.10351562 l 1
 853.17981436 736.110028718 l 1
 1420.04219131 1350.10351562 l 1
 1295.08105469 1350.10351562 l 2
 1284.14761267 1350.10351562 1277.37050119 1354.91387989 1277.37050119 1361.5647805 c 0
EndSplineSet
Validated: 524289
Substitution2: "'c2sc' Capitals to Small Capitals in Latin lookup 0 subtable" y.sc
EndChar

StartChar: Z
Encoding: 90 90 56
Width: 1138
VWidth: 0
Flags: W
HStem: -17.8975 35.7939<108.587 848.03> 1350.1 35.7939<380.899 1175.19>
LayerCount: 2
Back
SplineSet
82 1234 m 29
 82 1368 l 21
 368.333007812 1368 654.666992188 1368 941 1368 c 13
 82 0 l 29
 872 0 l 21
 1046 214 l 13
EndSplineSet
Fore
SplineSet
325.606445312 1216.63671875 m 0
 310.438476562 1214.27441406 299.439453125 1220.20410156 301.450195312 1229.66210938 c 2
 329.932617188 1363.66113281 l 2
 332.536132812 1375.91210938 354.197265625 1385.89648438 368.110351562 1385.89648438 c 2
 1227.11132812 1385.89648438 l 2
 1238.8549339 1385.89648438 1244.47239655 1380.50875697 1244.47239655 1374.15117035 c 0
 1244.47239655 1371.10252608 1243.18067434 1367.83108954 1240.65332031 1364.82421875 c 2
 108.586914062 17.896484375 l 1
 848.030273438 17.896484375 l 1
 1054.55371094 219.255859375 l 2
 1064.11035156 228.57421875 1082.08789062 233.970703125 1094.03515625 231.107421875 c 0
 1105.984375 228.245117188 1107.98339844 218.0625 1098.42578125 208.744140625 c 2
 878.9375 -5.255859375 l 2
 871.775390625 -12.2392578125 858.295898438 -17.8974609375 846.670898438 -17.8974609375 c 2
 56.6708984375 -17.8974609375 l 2
 48.71044571 -17.8974609375 39.1542752986 -13.4101418978 39.1542752986 -5.83435938997 c 0
 39.1542752986 -3.18797480269 40.3203726439 -0.164718634425 43.1279296875 3.17578125 c 2
 1175.19433594 1350.10253906 l 1
 380.899414062 1350.10253906 l 1
 357.143554688 1238.33886719 l 2
 355.133789062 1228.88085938 340.774414062 1219 325.606445312 1216.63671875 c 0
EndSplineSet
Validated: 524289
Substitution2: "'c2sc' Capitals to Small Capitals in Latin lookup 0 subtable" z.sc
EndChar

StartChar: period
Encoding: 46 46 57
Width: 406
VWidth: 0
Flags: W
HStem: -14.7998 96<180.96 234.948>
VStem: 178.147 59.614<-11.5265 77.9269>
LayerCount: 2
Fore
SplineSet
178.147079809 16.7799493291 m 0
 178.147079809 48.9534082802 199.495661071 81.2001953125 218.157226562 81.2001953125 c 0
 230.249418289 81.2001953125 237.761123315 68.0379459166 237.761123315 49.6204412975 c 0
 237.761123315 17.4469823464 216.412542055 -14.7998046875 197.750976562 -14.7998046875 c 0
 185.658784836 -14.7998046875 178.147079809 -1.63755529081 178.147079809 16.7799493291 c 0
EndSplineSet
Validated: 524289
EndChar

StartChar: comma
Encoding: 44 44 58
Width: 406
VWidth: 0
Flags: W
HStem: -160 241.2
VStem: 190.626 58.5888<20.3743 73.7868>
LayerCount: 2
Fore
SplineSet
190.625976562 20 m 0
 196.2578125 46.49609375 218.1328125 81.2001953125 233.588867188 81.2001953125 c 0
 244.393112495 81.2001953125 249.214822774 64.2422829507 249.214822774 44.9842056698 c 0
 249.214822774 36.6925664116 248.320990443 27.9745303664 246.625976562 20 c 0
 240.994140625 -6.49609375 113.821289062 -160 98.365234375 -160 c 0
 97.2796262257 -160 96.7738983526 -159.24269935 96.7738983526 -157.825299861 c 0
 96.7738983526 -139.062854502 185.389711624 -4.63505120842 190.625976562 20 c 0
EndSplineSet
Validated: 524289
EndChar

StartChar: colon
Encoding: 58 58 59
Width: 432
VWidth: 0
Flags: W
HStem: 85.2002 96<150.807 204.795> 651.2 96<270.974 325.101>
VStem: 147.994 59.6139<88.4735 177.927> 268.301 59.6139<654.474 744.253>
LayerCount: 2
Fore
SplineSet
147.993759497 116.779949327 m 0
 147.993759497 148.953149568 169.341559731 181.200195312 188.002929688 181.200195312 c 0
 200.095330824 181.200195312 207.607684373 168.037490029 207.607684373 149.619484439 c 0
 207.607684373 117.446276635 186.258825936 85.2001953125 167.59765625 85.2001953125 c 0
 155.505464523 85.2001953125 147.993759497 98.3624447081 147.993759497 116.779949327 c 0
327.914443628 715.620441295 m 0
 327.914443628 683.447241055 306.566643395 651.200195312 287.905273438 651.200195312 c 0
 275.812872301 651.200195312 268.300518752 664.362900595 268.300518752 682.780906185 c 0
 268.300518752 687.904106218 268.881782776 693.433932082 270.107421875 699.200195312 c 0
 275.739257812 725.696289062 292.854492188 747.200195312 308.310546875 747.200195312 c 0
 320.402738601 747.200195312 327.914443628 734.037945915 327.914443628 715.620441295 c 0
EndSplineSet
Validated: 524289
EndChar

StartChar: semicolon
Encoding: 59 59 60
Width: 394
VWidth: 0
Flags: W
HStem: 651.2 96<256.545 310.533>
VStem: 130.473 58.5886<120.374 173.786> 253.732 59.6139<654.474 743.927>
LayerCount: 2
Fore
SplineSet
253.732159377 682.780906185 m 0
 253.732159377 714.954113989 275.081017814 747.200195312 293.7421875 747.200195312 c 0
 305.834379227 747.200195312 313.346084253 734.037945916 313.346084253 715.620441297 c 0
 313.346084253 683.447241056 291.998284019 651.200195312 273.336914062 651.200195312 c 0
 261.244512926 651.200195312 253.732159377 664.362900595 253.732159377 682.780906185 c 0
130.47265625 120 m 0
 136.104492188 146.49609375 157.978515625 181.200195312 173.434570312 181.200195312 c 0
 184.239137425 181.200195312 189.061290342 164.24127275 189.061290342 144.982484854 c 0
 189.061290342 136.691360214 188.167552873 127.9739787 186.47265625 120 c 0
 180.840820312 93.50390625 53.66796875 -60 38.2119140625 -60 c 0
 37.1263059132 -60 36.6205780401 -59.2426993499 36.6205780401 -57.8252998608 c 0
 36.6205780401 -39.0628545016 125.236391311 95.3649487916 130.47265625 120 c 0
EndSplineSet
Validated: 524289
EndChar

StartChar: three
Encoding: 51 51 61
Width: 1134
VWidth: 0
Flags: W
HStem: -18.6035 35.7939<395.859 602.58> 729.385 35.3467<621.3 714.376> 1350.6 35.7939<584.412 828.304>
VStem: 913.2 55.8115<297.095 555.217> 1023.03 55.7274<1001.36 1214.81>
LayerCount: 2
Back
SplineSet
234 1159.20019531 m 4
 284.876199522 1291.19593097 427.867712427 1368.49331344 590.729488176 1368.49331344 c 4
 777.796335124 1368.49331344 978.440027016 1268.92848583 978.440027016 1070.18832757 c 4
 978.440027016 879.888568006 801.048334225 769.829479793 632 747.200195312 c 5
 826.414499903 734.151611656 991.014762225 574.510714013 991.014762225 367.053508409 c 4
 991.014762225 162.885078935 818.729262904 -0.70614196286 615.180307639 -0.70614196286 c 4
 448.10766987 -0.70614196286 306.038876913 99.2482836634 219 199.200195312 c 4
  Spiro
    234 1159.2 {
    310.939 1271.91 o
    568 1368 o
    978 1046 o
    810.439 807.659 o
    632 747.2 v
    988 414 o
    592 0 o
    330.033 98.3108 o
    219 199.2 v
    0 0 z
  EndSpiro
EndSplineSet
Fore
SplineSet
504.150390625 17.1904296875 m 0
 694.46831483 17.1904296875 913.200212331 186.988108065 913.200212331 426.892078037 c 0
 913.200212331 596.982306009 787.913477477 718.729248846 631.037109375 729.384765625 c 0
 597.150797617 731.686642219 625.274706057 761.838742587 647.391601562 764.731445312 c 0
 803.564037962 785.154607123 986.589566551 882.935217081 1018.86523438 1065.84960938 c 0
 1021.68415397 1081.8366769 1023.03148143 1097.14263111 1023.03148143 1111.76946717 c 0
 1023.03148143 1271.85956765 861.632299966 1350.59667969 701.759765625 1350.59667969 c 0
 553.67578125 1350.59667969 413.440429688 1282.92871094 343.791015625 1158.94628906 c 0
 338.315429688 1149.19921875 321.908203125 1141.16699219 307.756835938 1141.30566406 c 0
 293.60546875 1141.44433594 286.352539062 1149.70800781 291.828125 1159.45507812 c 0
 370.479492188 1299.46289062 543.486328125 1386.38964844 721.125976562 1386.390625 c 0
 904.044262829 1386.390625 1078.75887284 1297.96338874 1078.75887284 1124.32245905 c 0
 1078.75887284 1108.43620224 1077.29646611 1091.83668466 1074.24414062 1074.52636719 c 0
 1045.31933594 910.48828125 896.529296875 798.502929688 736.784179688 750.635742188 c 1
 876.808099653 709.315590305 969.011678819 591.418241004 969.011678819 440.347558115 c 0
 969.011678819 361.725271956 948.988184424 301.948205792 918.451171875 245.30859375 c 0
 838.456054688 96.939453125 666.099609375 -18.6025390625 484.784179688 -18.603515625 c 0
 303.424804688 -18.6025390625 177.532226562 86.568359375 107.342773438 187.637695312 c 0
 106.241289134 189.22352466 105.720156257 190.993059501 105.720156257 192.856928332 c 0
 105.720156257 203.324368283 127.851119147 217.559350933 144.645173133 217.559350933 c 0
 150.875093893 217.559350933 156.370595921 215.600457105 159.729492188 210.763671875 c 0
 228.368164062 111.927734375 351.364257812 17.1904296875 504.150390625 17.1904296875 c 0
EndSplineSet
Validated: 524289
EndChar

StartChar: zero
Encoding: 48 48 62
Width: 1278
VWidth: 0
Flags: W
HStem: -17.8965 35.7939<425.704 596.416> 1350.1 35.7939<646.996 816.988>
VStem: 136.464 56.1717<308.42 734.851> 1054.81 56.151<628.157 1055.76>
LayerCount: 2
Back
SplineSet
703 0 m 7
 481 0 263 282 263 683 c 7
 263 1084 481 1368 703 1368 c 7
 925 1368 1149 1084 1149 683 c 7
 1149 282 925 0 703 0 c 7
EndSplineSet
Fore
SplineSet
510.155273438 17.8974609375 m 0
 638.047851562 17.8974609375 809.452148438 137.125976562 928.41015625 357.150390625 c 0
 998.963708384 487.645859652 1054.81369804 656.524562361 1054.81369804 850.83618771 c 0
 1054.81369804 1154.98554594 899.048986746 1350.10189315 732.003307236 1350.10253907 c 0
 605.725175304 1350.10253907 438.9555664 1232.70026893 321.55078125 1015.59277344 c 0
 249.787416671 882.884834351 192.635311348 709.600492885 192.635311348 511.594199514 c 0
 192.635311348 209.9188611 343.854896252 17.8974609375 510.155273438 17.8974609375 c 0
490.7890625 -17.896484375 m 0
 283.212347121 -17.896484375 136.463566312 190.204113534 136.463566312 494.224601036 c 0
 136.463566312 699.330889765 194.431480114 877.136205605 269.3046875 1015.59277344 c 0
 386.062130743 1231.50517654 570.517387971 1385.89648438 751.369377862 1385.89648438 c 0
 959.764498174 1385.89592174 1110.96467913 1174.68924482 1110.96467913 868.030190497 c 0
 1110.96467913 666.684965053 1054.28051708 493.32311002 980.65625 357.150390625 c 0
 862.166015625 137.991210938 673.001953125 -17.896484375 490.7890625 -17.896484375 c 0
EndSplineSet
Validated: 524289
EndChar

StartChar: one
Encoding: 49 49 63
Width: 886
VWidth: 0
Flags: W
HStem: -17.8975 35.7939<180.909 329.394 383.244 533.029> 1365.82 20G<599.969 608.836>
VStem: 179.349 442.72
LayerCount: 2
Back
SplineSet
-13.6953125 1190.28320312 m 21
 66.8701171875 1249.52246094 147.435546875 1308.76074219 228 1368 c 13
 228 0 l 21
382 0 m 29
 82 0 l 21
EndSplineSet
Fore
SplineSet
179.348790647 -6.07579851749 m 0
 179.348790647 8.56278200253 202.276246712 17.896484375 216.845703125 17.896484375 c 2
 329.393554688 17.896484375 l 1
 559.86328125 1324.95410156 l 1
 337.471679688 1180.20019531 l 2
 330.504569126 1175.66524971 322.052062363 1173.68400992 314.398374337 1173.68400992 c 0
 302.811592713 1173.68400992 293.055575133 1178.22469281 293.055575133 1185.31984514 c 0
 293.055575133 1189.56323307 296.545166717 1194.72031913 305.219726562 1200.36621094 c 2
 578.251953125 1378.08300781 l 2
 586.00905703 1383.13200006 595.7802636 1385.82121117 604.157436466 1385.82121117 c 0
 613.514904937 1385.82121117 623.641907442 1381.24401295 622.068359375 1372.33789062 c 2
 383.244140625 17.896484375 l 1
 516.844726562 17.896484375 l 2
 531.073242188 17.896484375 538.55859375 9.748046875 533.284179688 0 c 0
 528.010742188 -9.748046875 511.708007812 -17.8974609375 497.479492188 -17.8974609375 c 2
 197.48046875 -17.8974609375 l 2
 186.351796321 -17.8974609375 179.348790647 -12.9121309249 179.348790647 -6.07579851749 c 0
EndSplineSet
Validated: 524289
EndChar

StartChar: four
Encoding: 52 52 64
Width: 1147
VWidth: 0
Flags: W
HStem: -17.8975 35.7939<485.528 633.625 687.475 837.261> 438.551 35.8086<142.475 707.809 767.962 1018.37> 1365.87 20G<901.116 913.888>
LayerCount: 2
Back
SplineSet
778 0 m 9
 778 1368 l 17
 140 457.200195312 l 13
 1032 456.200195312 l 29
932 0 m 25
 632 0 l 17
EndSplineSet
Fore
SplineSet
714.123046875 474.419921875 m 1
 858.16015625 1291.296875 l 1
 142.474609375 475.060546875 l 1
 714.123046875 474.419921875 l 1
1019.64920187 462.276058382 m 0
 1019.64920187 447.616682679 996.675032796 438.287706893 982.110351562 438.303710938 c 2
 761.647460938 438.55078125 l 1
 687.474609375 17.896484375 l 1
 821.077148438 17.896484375 l 2
 835.305664062 17.896484375 842.791015625 9.748046875 837.516601562 0 c 0
 832.243164062 -9.748046875 815.939453125 -17.8974609375 801.711914062 -17.8974609375 c 2
 501.7109375 -17.8974609375 l 2
 487.483398438 -17.8974609375 479.999023438 -9.748046875 485.272460938 0 c 0
 490.545898438 9.748046875 506.848632812 17.896484375 521.076171875 17.896484375 c 2
 633.625 17.896484375 l 1
 707.80859375 438.611328125 l 1
 90.2861328125 439.302734375 l 2
 80.9033355705 439.313268952 72.355924359 444.200255843 72.355924359 451.575843993 c 0
 72.355924359 454.456086184 73.659389131 457.715835573 76.7255859375 461.212890625 c 2
 875.32421875 1372.01269531 l 2
 881.331473879 1378.86460542 894.164297759 1385.87256155 908.068561586 1385.87256155 c 0
 919.708120186 1385.87256155 927.729176058 1380.44551281 926.299804688 1372.33886719 c 2
 767.961914062 474.359375 l 1
 1001.56152344 474.09765625 l 2
 1012.66778298 474.084688777 1019.64920187 469.102608069 1019.64920187 462.276058382 c 0
EndSplineSet
Validated: 524289
EndChar

StartChar: two
Encoding: 50 50 65
Width: 1195
VWidth: 0
Flags: W
HStem: -17.8975 35.7939<70.7607 807.309> 1350.11 35.7939<561.943 792.965>
VStem: 1011.67 55.7496<915.777 1168.27>
LayerCount: 2
Back
SplineSet
1046 214 m 5
 872 0 l 5
 82 0 l 5
 168.086458109 114.999577933 267.38759822 219.79742347 374.840778829 315.136791895 c 4
 482.293959437 410.47616032 599.134763184 495.021280793 704 593.200012207 c 4
 801.707661623 684.677555755 914.79728698 810.53291494 914.79728698 987.42069286 c 4
 914.79728698 1208.50811744 721.183968752 1368.0023275 502.494476863 1368.0023275 c 4
 339.782050388 1368.0023275 180.414122552 1286.46883763 79 1159.20019531 c 4
  Spiro
    1046 214 {
    872 0 v
    82 0 v
    704 593.2 o
    914 963.724 o
    504 1368 o
    79 1159.2 v
    0 0 z
  EndSpiro
EndSplineSet
Fore
SplineSet
1045.58886719 231.107421875 m 0
 1057.64160156 228.245117188 1060.00976562 218.0625 1050.7890625 208.744140625 c 2
 839.0546875 -5.255859375 l 2
 831.522460938 -12.869140625 817.909179688 -17.8974609375 807.245117188 -17.8974609375 c 2
 17.24609375 -17.8974609375 l 2
 5.24312024486 -17.8974609375 -0.495304608983 -12.3677369329 -0.495304608983 -5.84275094259 c 0
 -0.495304608983 -2.43403811806 1.07077689651 1.24629303881 4.1279296875 4.5517578125 c 0
 111.734375 120.893554688 230.936523438 226.959960938 356.665039062 323.422851562 c 0
 482.657226562 420.086914062 614.069335938 504.4375 734.197265625 600.969726562 c 0
 846.119140625 690.907226562 975.869140625 811.381835938 1006.14453125 983.08203125 c 0
 1009.8817182 1004.27683402 1011.67237526 1024.84634938 1011.67237526 1044.70918588 c 0
 1011.67237526 1227.24916472 860.439616108 1350.10546875 678.956054688 1350.10546875 c 0
 530.736328125 1350.10546875 369.583007812 1276.35644531 250.624023438 1154.11914062 c 0
 241.528320312 1144.77246094 223.771484375 1139.27246094 211.625976562 1142.04003906 c 0
 199.481445312 1144.80664062 196.931640625 1154.93359375 206.028320312 1164.28125 c 0
 334.78125 1296.58203125 521.116210938 1385.89941406 698.321289062 1385.89941406 c 0
 910.916396423 1385.89941406 1067.42200936 1249.78586828 1067.42200936 1057.58955029 c 0
 1067.42200936 1036.2979599 1065.50132501 1014.31810471 1061.5234375 991.758789062 c 0
 1029.41894531 809.684570312 888.607421875 678.447265625 772.853515625 585.4296875 c 0
 648.627929688 485.60546875 516.543945312 400.865234375 394.006835938 306.8515625 c 0
 279.21875 218.782226562 170.904296875 123.383789062 70.7607421875 17.896484375 c 1
 807.30859375 17.896484375 l 1
 1006.53613281 219.255859375 l 2
 1015.75585938 228.57421875 1033.53710938 233.970703125 1045.58886719 231.107421875 c 0
EndSplineSet
Validated: 524289
EndChar

StartChar: five
Encoding: 53 53 66
Width: 1188
VWidth: 0
Flags: W
HStem: -17.8965 35.793<368.554 563.183> 896.103 35.7939<495.181 703.211> 1350.1 35.793<380.377 1025.53>
VStem: 107.917 55.532<167.992 244.872> 909.785 55.8612<388.025 686.943>
LayerCount: 2
Back
SplineSet
216 229 m 5
 273 77 450 0 584 0 c 4
 775 0 970 187 970 454 c 4
 970 721 775 914 584 914 c 5
 452 914 294 869 236 697 c 13
 236 1368 l 21
 522 1368 649 1368 935 1368 c 13
 935 1234 l 29
EndSplineSet
Fore
SplineSet
107.917245932 222.73067289 m 0
 107.917245932 233.336166053 132.035928626 247.204350153 148.57949275 247.204350153 c 0
 156.068038895 247.204350153 162.004461458 244.362792574 163.44921875 237.090820312 c 0
 192.607421875 90.322265625 351.66015625 17.896484375 473.075195312 17.896484375 c 0
 486.860351562 17.896484375 500.741210938 19.01171875 514.729492188 21.1787109375 c 0
 682.2178289 47.1208538683 909.785120155 248.393234184 909.785120155 539.079149476 c 0
 909.785120155 754.109569961 764.414033405 896.102539066 614.87343208 896.102539066 c 0
 490.144790458 896.10217957 347.375422773 858.541306477 264.591796875 697.336914062 c 0
 259.309570312 687.051757812 241.724609375 678.521484375 227.068359375 679.134765625 c 0
 215.040039062 679.638671875 209.581054688 686.875 210.6015625 692.661132812 c 2
 328.916992188 1363.66210938 l 2
 331.077148438 1375.91210938 352.376953125 1385.89648438 366.290039062 1385.89648438 c 2
 1065.29101562 1385.89648438 l 2
 1077.67285156 1385.89648438 1084.54199219 1379.3984375 1083.29785156 1372.33886719 c 2
 1059.66992188 1238.33789062 l 2
 1057.77429339 1227.59007672 1034.31174538 1217.02936106 1018.47197757 1217.02936106 c 0
 1009.30174341 1217.02936106 1002.68642526 1220.56898055 1004.29003906 1229.66113281 c 2
 1025.52734375 1350.10351562 l 1
 380.376953125 1350.10351562 l 1
 282.734375 796.345703125 l 1
 383.669586351 900.678396991 523.785388734 931.896230681 634.239809516 931.896484379 c 0
 821.072492192 931.896484379 965.646289841 774.514789874 965.646289841 553.249513876 c 0
 965.646289841 522.745157708 962.898479284 491.026612092 957.134765625 458.338867188 c 0
 913.659179688 211.779296875 714.78515625 18.38671875 508.443359375 -13.5732421875 c 0
 489.95703125 -16.4365234375 471.626953125 -17.896484375 453.708984375 -17.896484375 c 0
 329.2787133 -17.896484375 107.917245932 64.0653374296 107.917245932 222.73067289 c 0
EndSplineSet
Validated: 524289
EndChar

StartChar: six
Encoding: 54 54 67
Width: 1213
VWidth: 0
Flags: W
HStem: -17.8965 35.793<426.572 602.683> 896.103 35.7939<566.577 744.567> 1350.1 35.7939<799.758 981.473>
VStem: 168.352 55.8533<217.565 536.02> 950.806 55.8615<383.075 687.037>
LayerCount: 2
Back
SplineSet
835 1368 m 4
 320 1368 237 914 245.259765625 454.200195312 c 4
625.419921875 0 m 4
 434.051757812 0 245.259765625 187.583984375 245.259765625 454.200195312 c 4
 245.259765625 720.81640625 433.916992188 914 625.28515625 914 c 5
 816.65234375 914 1010.98046875 720.81640625 1010.98046875 454.200195312 c 4
 1010.98046875 187.583984375 816.788085938 0 625.419921875 0 c 4
EndSplineSet
Fore
SplineSet
1006.66762567 553.516145943 m 0
 1006.66762567 241.656379117 744.807850294 -17.896484375 495.129882812 -17.896484375 c 0
 308.677325529 -17.896484375 168.352305561 134.394572087 168.352305561 353.212875755 c 0
 168.352305561 384.115326391 171.15098825 416.344615641 177.013671875 449.661132812 c 0
 247.821035547 896.771841138 404.836874683 1385.89746094 965.290039062 1385.89746094 c 0
 979.518554688 1385.89746094 987.002929688 1377.74804688 981.728515625 1368 c 0
 976.455078125 1358.25195312 960.153320312 1350.10351562 945.924804688 1350.10351562 c 0
 903.796875 1350.10351562 864.646484375 1346.92675781 828.265625 1341.00292969 c 0
 519.391601562 1290.70800781 364.787109375 1024.42578125 281.133789062 698.599609375 c 1
 378.476065055 836.347928882 528.883228383 931.896484382 675.521189424 931.896484382 c 0
 862.638705312 931.895861313 1006.66762567 774.449775014 1006.66762567 553.516145943 c 0
514.495117188 17.896484375 m 0
 637.233398438 17.896484375 792.802734375 111.765625 883.158203125 278.920898438 c 0
 922.06130904 350.889455431 950.806130283 435.445667096 950.806130283 539.341452182 c 0
 950.806130283 754.05739767 805.967965763 896.101932872 656.156330372 896.10253907 c 0
 535.486714579 896.10253907 384.065941121 801.716913261 294.155273438 635.442382812 c 0
 254.044955451 561.264740301 224.205653395 474.166878233 224.205653395 367.304072763 c 0
 224.205653395 154.688223538 365.017363755 17.896484375 514.495117188 17.896484375 c 0
EndSplineSet
Validated: 524289
EndChar

StartChar: seven
Encoding: 55 55 68
Width: 1170
VWidth: 0
Flags: W
HStem: -17.8947 21G<202.143 214.177> 699.304 35.7939<329.907 664.547 741.251 1053.64> 1350.1 35.7939<308.297 1105.18>
LayerCount: 2
Back
SplineSet
268 717.200195312 m 13
 940 717.200195312 l 29
82 1234 m 29
 82 1368 l 21
 368.333007812 1368 654.666992188 1368 941 1368 c 13
 256 0 l 29
EndSplineSet
Fore
SplineSet
207.568866485 -17.8947252842 m 0
 196.717578839 -17.8947252842 189.519173069 -12.9753657388 189.519173069 -6.06883864857 c 0
 189.519173069 -3.65783751664 190.379564818 -1.03049550858 192.202148438 1.6611328125 c 2
 664.546875 699.303710938 l 1
 346.090820312 699.303710938 l 2
 331.86328125 699.303710938 324.377929688 707.452148438 329.651367188 717.200195312 c 0
 334.926757812 726.948242188 351.228515625 735.09765625 365.45703125 735.09765625 c 2
 688.78125 735.09765625 l 1
 1105.17578125 1350.10253906 l 1
 308.296875 1350.10253906 l 1
 288.58984375 1238.33886719 l 2
 286.6942757 1227.59028607 263.232376802 1217.02954127 247.39261504 1217.02954127 c 0
 238.222080263 1217.02954127 231.606415399 1220.56940531 233.209960938 1229.66210938 c 2
 256.837890625 1363.66113281 l 2
 258.998046875 1375.91210938 280.296875 1385.89648438 294.209960938 1385.89648438 c 2
 1153.20996094 1385.89648438 l 2
 1165.26198227 1385.89648438 1171.03908892 1380.11332445 1171.03908892 1373.63646134 c 0
 1171.03908892 1371.21249011 1170.2299262 1368.69135628 1168.63769531 1366.33984375 c 2
 741.250976562 735.09765625 l 1
 1037.45703125 735.09765625 l 2
 1051.68554688 735.09765625 1059.16992188 726.948242188 1053.89550781 717.200195312 c 0
 1048.62207031 707.452148438 1032.31933594 699.303710938 1018.09179688 699.303710938 c 2
 717.016601562 699.303710938 l 1
 242.422851562 -1.6611328125 l 2
 236.218891106 -10.8246285732 220.784825236 -17.8947252842 207.568866485 -17.8947252842 c 0
EndSplineSet
Validated: 524289
EndChar

StartChar: eight
Encoding: 56 56 69
Width: 1065
VWidth: 0
Flags: W
HStem: -18.3557 35.7939<362.859 593.46> 1351.1 35.7939<575.604 719.596>
VStem: 83.8248 55.7245<189.894 430.267> 262.568 55.778<940.049 1146.33> 921.366 55.7982<295.029 519.912> 993.488 55.6927<1007.34 1196.69>
LayerCount: 2
Back
SplineSet
593.7578125 750.221679688 m 4
 429.194335938 782.448242188 225.826171875 893.215820312 225.826171875 1070.6953125 c 4
 225.826171875 1269.43554688 396.469726562 1369 583.537109375 1369 c 4
 770.603515625 1369 948.440429688 1268.92871094 948.440429688 1070.18847656 c 4
 948.440429688 893.15625 756.401367188 782.627929688 593.758789062 750.2265625 c 4
 402.452148438 732.0625 173.251953125 571.060546875 173.251953125 367.560546875 c 4
 173.251953125 146.165039062 364.431908782 1.55986412033 585.536956787 -0.438255852069 c 4
 808.74690358 -2.45539773439 1001.01464844 146.340820312 1001.01464844 367.053710938 c 4
 1001.01464844 566.286132812 780.641601562 726.686523438 593.7578125 750.221679688 c 4
EndSplineSet
Fore
SplineSet
459.58404442 -18.3556614551 m 0
 243.617824167 -18.3556614551 83.8247504394 106.275600432 83.8247504394 297.880519796 c 0
 83.8247504394 318.87636075 85.7432910465 340.681477769 89.7177734375 363.221679688 c 0
 121.961914062 546.087890625 327.084960938 699.314453125 520.5703125 751.252929688 c 1
 389.688397649 794.692113008 262.568188735 887.18520754 262.568188735 1024.96381941 c 0
 262.568188735 1083.28923499 280.536425517 1130.92953653 302.698242188 1172.04003906 c 0
 378.36328125 1312.39746094 548.860351562 1386.89648438 713.955078125 1386.89648438 c 0
 895.944062113 1386.89648438 1049.18106744 1299.03888983 1049.18106744 1129.46453113 c 0
 1049.18106744 1112.01517133 1047.55850176 1093.70054524 1044.17773438 1074.52734375 c 0
 1016.16992188 915.682617188 846.953125 804.4140625 685.774414062 753.844726562 c 1
 838.552662208 708.828939016 977.163757541 581.35152904 977.163757541 421.048955038 c 0
 977.163757541 404.816244353 975.74241387 388.246938398 972.770507812 371.392578125 c 0
 937.864257812 173.426757812 757.493164062 21.5478515625 544.10546875 -11.74609375 c 0
 516.03916502 -16.1248991286 487.742932384 -18.3556614551 459.58404442 -18.3556614551 c 0
614.837890625 768.904296875 m 1
 785.878563698 804.461888344 993.488411249 912.66511588 993.488411249 1117.24706716 c 0
 993.488411249 1274.49925233 770.861521836 1291.42828428 694.58984375 1351.10253906 c 1
 519.765755099 1351.10253906 353.708063413 1256.84175388 321.653320312 1075.03417969 c 0
 319.415958104 1062.34570523 318.346210033 1050.00192973 318.346210033 1038.009555 c 0
 318.346210033 892.9011486 474.969475836 799.241803129 614.837890625 768.904296875 c 1
139.549263056 310.468865479 m 0
 139.549263056 129.415275747 291.749727131 17.4382566859 478.973777625 17.4382566859 c 0
 503.100839097 17.4382566859 526.938664176 19.346164236 550.288085938 22.9892578125 c 0
 720.7109375 49.580078125 884.1171875 174.008789062 917.390625 362.71484375 c 0
 920.080658218 377.970827505 921.365519179 392.999334385 921.365519179 407.751200205 c 0
 921.365519179 577.186520706 751.865354804 710.127071198 595.161132812 732.079101562 c 1
 411.806172331 712.574417176 178.7270704 562.621806846 145.096679688 371.8984375 c 0
 141.347725032 350.636947386 139.549263056 330.142614221 139.549263056 310.468865479 c 0
EndSplineSet
Validated: 524289
EndChar

StartChar: nine
Encoding: 57 57 70
Width: 1098
VWidth: 0
Flags: W
HStem: -17.8975 35.7939<176.462 358.179> 436.104 35.7939<413.37 591.359> 1350.1 35.793<555.254 731.364>
VStem: 151.268 55.8619<680.962 984.92> 933.729 55.8524<831.979 1150.44>
LayerCount: 2
Back
SplineSet
421.240234375 0 m 4
 936.240234375 0 1019.24023438 454 1010.98046875 913.799804688 c 4
630.8203125 1368 m 4
 822.188476562 1368 1010.98046875 1180.41601562 1010.98046875 913.799804688 c 4
 1010.98046875 647.18359375 822.323242188 454 630.955078125 454 c 5
 439.587890625 454 245.259765625 647.18359375 245.259765625 913.799804688 c 4
 245.259765625 1180.41601562 439.452148438 1368 630.8203125 1368 c 4
EndSplineSet
Fore
SplineSet
151.2682372 814.484470198 m 0
 151.2682372 1126.33717889 413.137654409 1385.89648438 662.806640625 1385.89648438 c 0
 849.258400122 1385.89648438 989.581093999 1233.60458347 989.581093999 1014.78664193 c 0
 989.581093999 983.884320018 986.782471755 951.655190221 980.919921875 918.338867188 c 0
 910.114540136 471.227347186 753.100374928 -17.8974609375 192.645507812 -17.8974609375 c 0
 178.41796875 -17.8974609375 170.93359375 -9.748046875 176.20703125 0 c 0
 181.481445312 9.748046875 197.783203125 17.896484375 212.01171875 17.896484375 c 0
 254.139648438 17.896484375 293.290039062 21.0732421875 329.671875 26.998046875 c 0
 638.541992188 77.291015625 793.14453125 343.568359375 876.798828125 669.388671875 c 1
 779.45557561 531.645235206 629.05134201 436.103515618 482.416310692 436.103515618 c 0
 295.297498283 436.104138702 151.2682372 593.550208915 151.2682372 814.484470198 c 0
643.44140625 1350.10351562 m 0
 520.704101562 1350.10351562 365.131835938 1256.22363281 274.776367188 1089.06738281 c 0
 235.873922699 1017.10004942 207.130090909 932.551063371 207.130090909 828.655900945 c 0
 207.130090909 613.940446342 351.968145461 471.89806714 501.781169749 471.89746093 c 0
 622.449808962 471.89746093 773.869605777 566.276250864 863.778320312 732.55078125 c 0
 903.897838162 806.742915958 933.728685177 893.819072993 933.728685177 1000.69660108 c 0
 933.728685177 1213.31149458 792.918454313 1350.10351562 643.44140625 1350.10351562 c 0
EndSplineSet
Validated: 524289
EndChar

StartChar: dollar
Encoding: 36 36 71
Width: 991
VWidth: 0
Flags: W
HStem: -18.1878 35.7856<385.979 534.269> 1350.12 35.7952<624.628 771.412>
VStem: 227.919 55.7381<898.534 1132.04> 884.01 55.7561<240.012 466.279>
LayerCount: 2
Back
SplineSet
686.671875 1545.40039062 m 29
 686.671875 -152.599609375 l 29
476.671875 1545.40039062 m 29
 476.671875 -152.599609375 l 29
151.279296875 355.130859375 m 21
 151.279296875 255.130859375 151.279296875 155.130859375 151.279296875 55.130859375 c 5
  Spiro
    151.279 355.131 {
    151.279 55.1308 v
    0 0 z
  EndSpiro
924 1329.20019531 m 21
 924 1229.20019531 924 1129.20019531 924 1029.20019531 c 5
  Spiro
    924 1329.2 {
    924 1029.2 v
    0 0 z
  EndSpiro
928 1209.20019531 m 4
 829.200195312 1305.67773438 694.084960938 1366.65332031 556 1368 c 4
 468.768554688 1368.85058594 379.840820312 1344.36425781 311.18359375 1290.54785156 c 4
 276.854492188 1263.63964844 247.974609375 1229.63867188 227.913085938 1190.90820312 c 4
 207.8515625 1152.17773438 196.751953125 1108.81152344 196 1065.20019531 c 4
 195.189453125 1018.19433594 206.418945312 971.171875 227.3359375 929.068359375 c 4
 248.252929688 886.96484375 278.624023438 849.87109375 314.193359375 819.129882812 c 4
 385.333007812 757.647460938 475.16796875 722.818359375 564 692 c 4
 670.231445312 655.14453125 780.6953125 618.913085938 864.119140625 543.520507812 c 4
 905.831054688 505.825195312 939.73046875 458.873046875 958.772460938 405.974609375 c 4
 977.814453125 353.075195312 981.4921875 294.578125 968 240 c 4
 948.662109375 161.776367188 893.990234375 94.2841796875 824.4609375 53.5595703125 c 4
 754.931640625 12.833984375 672.533203125 -2.6884765625 592 0 c 4
 431.240234375 5.3662109375 276.1875 76.197265625 154.279296875 181.130859375 c 4
  Spiro
    928 1209.2 {
    556 1368 o
    196 1065.2 o
    564 692 o
    968 240 o
    592 0 o
    154.279 181.131 o
    0 0 z
  EndSpiro
EndSplineSet
Fore
SplineSet
595.772460938 28.1845703125 m 1
 717.418218275 55.0511385201 815.383815979 131.54886817 860.709960938 238.564453125 c 0
 876.193677881 275.12382138 884.009523065 313.974448107 884.009523065 351.564971078 c 0
 884.009523065 487.921380922 792.387193 564.781015398 698.759765625 612.252929688 c 1
 595.772460938 28.1845703125 l 1
385.978515625 29.3564453125 m 1
 422.142002468 21.7162882199 456.888761593 17.5978348343 496.660189949 17.5978348343 c 0
 511.249268772 17.5978348343 525.854712325 18.2516436237 540.408203125 19.5947265625 c 1
 648.956054688 635.19921875 l 1
 601.54206749 655.245005307 551.21595926 672.115734072 502.692382812 691.270507812 c 1
 385.978515625 29.3564453125 l 1
772.4140625 1335.3671875 m 1
 736.088702872 1345.04738355 699.219125506 1350.12471658 660.243480711 1350.12471658 c 0
 646.365744725 1350.12471658 632.426001488 1349.43823128 618.5 1348.046875 c 1
 510.708984375 736.735351562 l 1
 558.296615595 716.228149485 607.738189656 699.77365947 656.948242188 680.530273438 c 1
 772.4140625 1335.3671875 l 1
562.995117188 1338.66503906 m 1
 430.171546032 1306.72953484 315.52771655 1208.01473339 288.682617188 1069.34472656 c 0
 285.306530682 1051.90173888 283.657080895 1034.39911625 283.657080895 1017.14238319 c 0
 283.657080895 882.611102026 370.768069513 807.554233568 461.004882812 760.251953125 c 1
 562.995117188 1338.66503906 l 1
624.627929688 1382.8046875 m 1
 643.430676872 1384.91134374 662.055902172 1385.9199513 680.415301694 1385.9199513 c 0
 714.581162204 1385.9199513 747.826435637 1382.42702033 779.58203125 1376.01757812 c 1
 808.68359375 1541.06152344 l 2
 810.543477205 1551.60775954 828.01050511 1563.28310936 845.881381223 1563.28310936 c 0
 857.568748641 1563.28310936 865.48241126 1557.78888614 864.063476562 1549.73828125 c 2
 831.076171875 1362.66015625 l 1
 894.298828125 1342.48828125 950.795898438 1310.01269531 997.946289062 1268.47558594 c 1
 1007.88867188 1324.86132812 l 2
 1009.78431908 1335.61035813 1033.24686093 1346.17081487 1049.08689641 1346.17081487 c 0
 1058.25747965 1346.17081487 1064.87313051 1342.6311323 1063.26953125 1333.5390625 c 2
 1043.60644531 1222.02246094 l 1
 1047.90395348 1216.99346169 1046.72856195 1210.30329487 1040.40820312 1203.88378906 c 1
 1010.37109375 1033.53808594 l 2
 1008.47641228 1022.78934822 985.014588515 1012.22956998 969.174539914 1012.22956998 c 0
 960.00364826 1012.22956998 953.387611503 1015.76925733 954.991210938 1024.86132812 c 2
 986.586914062 1204.04980469 l 1
 942.079101562 1254.19140625 885.798828125 1293.35058594 823.280273438 1318.44726562 c 1
 707.123046875 659.6875 l 1
 820.874233289 608.98283298 939.765621011 524.90084275 939.765621011 363.747700924 c 0
 939.765621011 323.437526719 931.368462602 281.643079901 914.338867188 241.436523438 c 0
 862.930499386 120.055534439 738.475518548 24.4339796089 589.634765625 -6.6201171875 c 1
 564.66015625 -148.26171875 l 2
 562.800164848 -158.807477963 545.331890874 -170.482647212 527.460744559 -170.482647212 c 0
 515.773703284 -170.482647212 507.861391687 -164.987949831 509.280273438 -156.938476562 c 2
 534.268554688 -15.224609375 l 1
 514.892418979 -17.2318948948 495.700790536 -18.1877643857 476.876076385 -18.1877643857 c 0
 441.870135094 -18.1877643857 410.733707521 -15.3017287014 379.024414062 -10.0849609375 c 1
 354.66015625 -148.26171875 l 2
 352.800188831 -158.808430958 335.33095728 -170.482647212 317.460686098 -170.482647212 c 0
 305.77343422 -170.482647212 297.860415125 -164.987949831 299.279296875 -156.938476562 c 2
 327.094726562 0.8095703125 l 1
 232.420898438 25.0498046875 148.307617188 71.05859375 78.4755859375 130.811523438 c 1
 65.896484375 59.4697265625 l 2
 64.0009224131 48.721179958 40.5389679364 38.1603570287 24.6992019939 38.1603570287 c 0
 15.5286889958 38.1603570287 8.9130496554 41.7002285742 10.5166015625 50.79296875 c 2
 63.4140625 350.791992188 l 2
 65.3096576044 361.540726723 88.7721396245 372.101497083 104.611915496 372.101497083 c 0
 113.782188328 372.101497083 120.397551033 368.561833003 118.793945312 359.469726562 c 2
 89.4541015625 193.07421875 l 1
 157.17578125 124.666992188 241.5234375 71.9287109375 334.50390625 42.8271484375 c 1
 452.57421875 712.439453125 l 1
 341.732529569 763.001102123 227.918967696 845.310462184 227.918967696 1004.61673013 c 0
 227.918967696 1142.86209164 311.647505431 1239.92827526 398.916015625 1300.02441406 c 0
 451.186523438 1336.02050781 509.96875 1360.18359375 569.133789062 1373.48046875 c 1
 598.682617188 1541.06152344 l 2
 600.542576641 1551.60710151 618.012240311 1563.28310936 635.882333564 1563.28310936 c 0
 647.569743467 1563.28310936 655.482385503 1557.78790877 654.063476562 1549.73828125 c 2
 624.627929688 1382.8046875 l 1
EndSplineSet
Validated: 524289
EndChar

StartChar: parenleft
Encoding: 40 40 72
Width: 441
VWidth: 0
Flags: W
VStem: 48.4771 55.6263<227.738 710.203>
LayerCount: 2
Back
SplineSet
457 -178.799804688 m 4
 356.487304688 -81.0224609375 273.45703125 34.67578125 213 161.200195312 c 4
 132.830078125 328.98046875 100 486.038085938 100 701.200195312 c 28
 100 916.362304688 132.830078125 1073.41992188 213 1241.20019531 c 4
 273.45703125 1367.72460938 356.487304688 1483.421875 457 1581.20019531 c 4
EndSplineSet
Fore
SplineSet
625.042009483 1599.05768523 m 0
 634.339165754 1599.05768523 642.910740961 1594.98522359 642.910740961 1587.39227448 c 0
 642.910740961 1583.09745833 640.256333918 1578.20929849 634.940429688 1573.79492188 c 0
 385.190176856 1366.41532504 194.086863347 1082.11438079 127.686523438 705.5390625 c 0
 111.871382647 615.845363138 104.1034225 536.582033427 104.1034225 462.513958006 c 0
 104.1034225 197.025888119 199.737804071 -13.007155908 330.412109375 -166.4453125 c 0
 341.430379362 -179.382061947 313.151574785 -196.624586872 295.206664056 -196.624586872 c 0
 288.275729675 -196.624586872 282.343154196 -194.791202653 279.24609375 -191.154296875 c 0
 195.008789062 -92.2431640625 131.814453125 24.5654296875 93.3173828125 152.252929688 c 0
 63.6670110505 250.594020543 48.4771376575 345.509099865 48.4771376575 450.350882745 c 0
 48.4771376575 525.734732401 56.3302531153 606.250655717 72.3076171875 696.862304688 c 0
 140.393735845 1082.99876054 337.75311205 1374.67666422 595.389648438 1588.60351562 c 0
 603.260686417 1595.1396992 615.064582357 1599.05768523 625.042009483 1599.05768523 c 0
EndSplineSet
Validated: 524289
EndChar

StartChar: parenright
Encoding: 41 41 73
Width: 428
VWidth: 0
Flags: W
VStem: 323.897 55.6263<692.199 1174.66>
LayerCount: 2
Back
SplineSet
-32 -178.799804688 m 0
 68.5126953125 -81.0224609375 151.54296875 34.67578125 212 161.200195312 c 0
 292.169921875 328.98046875 328 485.795898438 328 701.200195312 c 24
 328 916.604492188 292.169921875 1073.41992188 212 1241.20019531 c 0
 151.54296875 1367.72460938 68.5126953125 1483.421875 -32 1581.20019531 c 0
  Spiro
    -32 -178.8 {
    212 161.2 o
    328 701.2 o
    212 1241.2 o
    -32 1581.2 o
    0 0 z
  EndSpiro
EndSplineSet
Fore
SplineSet
-197.040943011 -196.657462336 m 0
 -206.338094825 -196.657462336 -214.911105258 -192.585347532 -214.911105258 -184.992673682 c 0
 -214.911105258 -180.698028572 -212.256456767 -175.809986439 -206.940429688 -171.395507812 c 0
 42.8099297201 35.9862977454 233.912869643 320.283755356 300.313476562 696.862304688 c 0
 316.128617353 786.555595083 323.8965775 865.818687094 323.8965775 939.88662436 c 0
 323.8965775 1205.37439221 228.262253976 1415.40717569 97.5869140625 1568.84472656 c 0
 86.5686068204 1581.78151976 114.847489327 1599.0249775 132.792359383 1599.0249775 c 0
 139.723293763 1599.0249775 145.655869242 1597.19159328 148.752929688 1593.5546875 c 0
 232.991210938 1494.64257812 296.184570312 1377.83496094 334.682617188 1250.14746094 c 0
 364.33298895 1151.80637009 379.522862342 1056.89129076 379.522862342 952.049700127 c 0
 379.522862342 876.665988699 371.669746885 796.150303 355.692382812 705.5390625 c 0
 287.606035829 319.399570766 90.2465015126 27.7262514396 -167.389648438 -186.204101562 c 0
 -175.260405978 -192.740052268 -187.063741234 -196.657462336 -197.040943011 -196.657462336 c 0
EndSplineSet
Validated: 524289
EndChar

StartChar: quotedbl
Encoding: 34 34 74
Width: 482
VWidth: 0
Flags: W
HStem: 1185.2 244<143.41 159.233 313.41 329.233>
VStem: 129.158 67.37<1241.56 1418.64> 299.158 67.37<1241.56 1418.64>
LayerCount: 2
Fore
SplineSet
196.527497698 1388.67694958 m 0
 196.527497698 1358.2369643 153.577915901 1185.20019531 136.48828125 1185.20019531 c 0
 131.071504511 1185.20019531 129.157501567 1204.39810168 129.157501567 1230.47813439 c 0
 129.157501567 1278.81401934 135.732046327 1350.78980923 138.766601562 1368 c 0
 143.438476562 1394.49609375 164.055664062 1429.20019531 179.51171875 1429.20019531 c 0
 191.115499521 1429.20019531 196.527497698 1409.63957854 196.527497698 1388.67694958 c 0
366.527497698 1388.67694958 m 0
 366.527497698 1358.2369643 323.577915901 1185.20019531 306.48828125 1185.20019531 c 0
 301.071504511 1185.20019531 299.157501567 1204.39810168 299.157501567 1230.47813439 c 0
 299.157501567 1278.81401934 305.732046327 1350.78980923 308.766601562 1368 c 0
 313.438476562 1394.49609375 334.055664062 1429.20019531 349.51171875 1429.20019531 c 0
 361.115499521 1429.20019531 366.527497698 1409.63957854 366.527497698 1388.67694958 c 0
EndSplineSet
Validated: 524289
EndChar

StartChar: quotesingle
Encoding: 39 39 75
Width: 312
VWidth: 0
Flags: W
HStem: 1185.2 244<143.41 159.233>
VStem: 129.158 67.37<1241.56 1418.64>
LayerCount: 2
Fore
SplineSet
196.527497698 1388.67694958 m 0
 196.527497698 1358.2369643 153.577915901 1185.20019531 136.48828125 1185.20019531 c 0
 131.071504511 1185.20019531 129.157501567 1204.39810168 129.157501567 1230.47813439 c 0
 129.157501567 1278.81401934 135.732046327 1350.78980923 138.766601562 1368 c 0
 143.438476562 1394.49609375 164.055664062 1429.20019531 179.51171875 1429.20019531 c 0
 191.115499521 1429.20019531 196.527497698 1409.63957854 196.527497698 1388.67694958 c 0
EndSplineSet
Validated: 524289
EndChar

StartChar: bracketleft
Encoding: 91 91 76
Width: 424
VWidth: 0
Flags: W
HStem: -197.897 35.7939<103.089 252.876> 1560.1 35.793<406.761 564.246>
VStem: 45.3184 520.487
LayerCount: 2
Back
SplineSet
383 1578 m 21
 283 1578 328 1578 228 1578 c 13
 228 -180 l 29
 382 -180 l 29
EndSplineSet
Fore
SplineSet
565.805516326 1584.07624206 m 0
 565.805516326 1569.4373795 542.879155401 1560.10351562 528.309570312 1560.10351562 c 2
 406.760742188 1560.10351562 l 1
 103.088867188 -162.103515625 l 1
 236.69140625 -162.103515625 l 2
 250.918945312 -162.103515625 258.404296875 -170.250976562 253.130859375 -180 c 0
 247.857421875 -189.748046875 231.553710938 -197.897460938 217.326171875 -197.897460938 c 2
 63.326171875 -197.897460938 l 2
 52.7041015625 -197.897460938 43.8671875 -192.569335938 45.318359375 -184.338867188 c 2
 355.301757812 1573.66113281 l 2
 357.480558953 1586.29817937 377.238906868 1595.89648438 392.673828125 1595.89648438 c 2
 547.674804688 1595.89648438 l 2
 558.802684505 1595.89648438 565.805516326 1590.91275414 565.805516326 1584.07624206 c 0
EndSplineSet
Validated: 524289
EndChar

StartChar: bracketright
Encoding: 93 93 77
Width: 424
VWidth: 0
Flags: W
HStem: -197.896 35.7939<-139.246 17.2393> 1560.1 35.7939<170.124 320.911>
VStem: -140.806 519.487
LayerCount: 2
Back
SplineSet
41 1578 m 21
 141 1578 96 1578 196 1578 c 13
 196 -180 l 29
 42 -180 l 29
EndSplineSet
Fore
SplineSet
-140.805516326 -186.075732745 m 0
 -140.805516326 -171.437358736 -117.877887569 -162.102539062 -103.30859375 -162.102539062 c 2
 17.2392578125 -162.102539062 l 1
 320.911132812 1560.10253906 l 1
 186.30859375 1560.10253906 l 2
 172.081054688 1560.10253906 164.595703125 1568.25195312 169.869140625 1578 c 0
 175.143554688 1587.74804688 191.446289062 1595.89746094 205.674804688 1595.89648438 c 2
 360.674804688 1595.89648438 l 2
 373.056640625 1595.89648438 379.926757812 1589.3984375 378.681640625 1582.33789062 c 2
 68.6982421875 -175.661132812 l 2
 66.5380859375 -187.912109375 45.2392578125 -197.896484375 31.326171875 -197.896484375 c 2
 -122.674804688 -197.896484375 l 2
 -133.802684505 -197.896484375 -140.805516326 -192.911777571 -140.805516326 -186.075732745 c 0
EndSplineSet
Validated: 524289
EndChar

StartChar: bar
Encoding: 124 124 78
Width: 456
VWidth: 0
Flags: W
VStem: 45.3184 365.362
LayerCount: 2
Back
SplineSet
228 1578 m 13
 228 -180 l 29
EndSplineSet
Fore
SplineSet
355.301757812 1573.66113281 m 2
 357.161710953 1584.20776406 374.628819542 1595.88271874 392.499255686 1595.88271874 c 0
 404.187598639 1595.88271874 412.100430003 1590.38849551 410.680664062 1582.33789062 c 2
 100.698242188 -175.662109375 l 2
 98.8392976492 -186.208107564 81.3697345806 -197.883037838 63.4994326916 -197.883037838 c 0
 51.811789221 -197.883037838 43.8994776248 -192.388340456 45.318359375 -184.338867188 c 2
 355.301757812 1573.66113281 l 2
EndSplineSet
Validated: 524289
EndChar

StartChar: ampersand
Encoding: 38 38 79
Width: 1210
VWidth: 0
Flags: W
HStem: -17.941 35.7942<279.766 498.938> 471.303 35.7939<787.789 955.52 1003.03 1139.91> 1350.1 35.7939<612.776 780.139>
VStem: 27.6134 55.6585<172.699 410.532> 301.446 55.7021<797.221 1090.51> 871.775 55.8968<1061.51 1277.81>
LayerCount: 2
Back
SplineSet
1148 489.200195312 m 17
 1048 489.200195312 948 489.200195312 848 489.200195312 c 9
  Spiro
    1148 489.2 {
    848 489.2 v
    0 0 z
  EndSpiro
1022 489.200012207 m 0
 1005.22821424 359.066383021 942.953015858 234.998681664 847.673181734 144.78888479 c 0
 752.636143134 54.808963789 625.188954743 -1.84862612787 492 0 c 0
 385.321478284 1.48066859528 277.737505821 43.8970673092 206.380554805 123.210905425 c 0
 156.157539038 179.034200641 121.009048358 247.931621064 121.009048358 344.077969667 c 0
 121.009048358 546.677600392 310.461914062 617.706054688 432 713.200195312 c 0
 544 801.200195312 680.268681186 852.054782412 762 969.200012207 c 0
 795.057442536 1016.58113561 816.308939175 1071.74113962 816.308939175 1131.44478884 c 0
 816.308939175 1185.69826994 800.669921875 1247.76367188 765.302734375 1288.89453125 c 0
 723.069335938 1338.01074219 664.258789062 1368 588 1368 c 3
 544.212890625 1368 500.416015625 1356.78222656 461.302734375 1336.89453125 c 0
 354.631835938 1282.65527344 277.312394619 1166.04820456 277.312394619 1019.83079386 c 0
 277.312394619 869.56317991 347.168844099 760.921114104 418 669.200012207 c 0
 510.580799142 549.314732857 623.205968999 446.672292196 729.600717754 338.858369106 c 0
 835.995466509 231.044446016 938.114797429 118.866535715 1032 0 c 0
1148 489.200195312 m 17
 1048 489.200195312 948 489.200195312 848 489.200195312 c 9
  Spiro
    1148 489.2 {
    848 489.2 v
    0 0 z
  EndSpiro
EndSplineSet
Fore
SplineSet
871.774864096 1175.67985699 m 0
 871.774864096 1284.75034095 801.208298904 1350.10351562 698.9296875 1350.10351562 c 0
 661.82421875 1350.10351562 623.5703125 1340.79296875 586.864257812 1323.66503906 c 0
 469.106283506 1268.71509693 357.147997106 1133.58798487 357.147997106 945.392530706 c 0
 357.147997106 857.562473892 384.447723435 785.406122938 418.491210938 721.555664062 c 1
 553.959268807 814.34880303 692.459982583 862.749900976 788.978515625 973.181640625 c 0
 837.322021382 1028.49084267 871.774864096 1087.70426921 871.774864096 1175.67985699 c 0
83.2718303821 288.724849961 m 0
 83.2718303821 116.295117216 232.397896774 17.8531482814 387.418301508 17.8531482814 c 0
 517.465037322 17.8531482814 658.019531488 83.6401197082 759.743164062 175.198242188 c 1
 722.189453125 226.752929688 683.099609375 277.225585938 643.001953125 326.69921875 c 0
 555.178627974 435.053055499 459.744320226 538.828809508 387.153320312 661.034179688 c 1
 244.464663515 575.111313558 83.2718303821 500.036831182 83.2718303821 288.724849961 c 0
718.294921875 1385.89746094 m 0
 845.363330896 1385.89746094 927.671666486 1313.22237051 927.671666486 1189.362437 c 0
 927.671666486 1092.34073902 889.911361517 1027.35250927 835.606445312 965.219726562 c 0
 727.254882812 841.25 574.263671875 786.590820312 454.217773438 703.74609375 c 0
 448.129882812 699.543945312 441.797851562 695.306640625 435.483398438 691.17578125 c 1
 507.613189302 567.337105235 604.008975935 462.654562843 694.4921875 351.018554688 c 0
 730.575195312 306.5 765.993164062 260.977539062 800.166015625 214.658203125 c 1
 869.837960429 288.400362126 924.349245719 377.837248331 955.519635433 471.302734375 c 1
 803.973632812 471.302734375 l 2
 789.745117188 471.302734375 782.259765625 479.452148438 787.534179688 489.200195312 c 0
 792.807617188 498.948242188 809.110351562 507.09765625 823.337890625 507.096679688 c 2
 1123.33789062 507.096679688 l 2
 1134.46597725 507.096679688 1141.46945997 502.111787605 1141.46945997 495.27554692 c 0
 1141.46945997 480.637431359 1118.54169477 471.302734375 1103.97265625 471.302734375 c 2
 1008.2676987 471.302734375 l 1
 972.342137256 366.376530214 908.116282664 265.548868338 823.374023438 182.795898438 c 1
 863.471679688 127.0234375 901.875976562 69.8056640625 937.891601562 11.103515625 c 0
 938.877903876 9.49548546843 939.330620718 7.83186208579 939.330620718 6.15168610674 c 0
 939.330620718 -5.60601599101 917.160808525 -18.1743085482 900.534157074 -18.1743085482 c 0
 893.801050276 -18.1743085482 887.976974895 -16.1132150069 884.90234375 -11.1025390625 c 0
 852.016601562 42.4990234375 818.43359375 92.9736328125 781.51953125 144.930664062 c 1
 667.247952318 49.2667703244 515.339237004 -17.9410230657 368.022623845 -17.9410230657 c 0
 189.81894585 -17.9410230657 27.6133665733 86.8932664934 27.6133665733 276.738233016 c 0
 27.6133665733 511.026304503 229.54805625 604.614409887 370.241210938 690.556640625 c 1
 333.020820017 758.184208796 301.445922897 836.367317689 301.445922897 933.069490508 c 0
 301.445922897 959.145144644 303.741753831 986.567331744 308.841796875 1015.4921875 c 0
 335.153320312 1164.71386719 434.956054688 1288.95605468 565.994140625 1350.10351562 c 0
 614.528320312 1372.75097656 667.82421875 1385.89746094 718.294921875 1385.89746094 c 0
EndSplineSet
Validated: 524289
EndChar

StartChar: braceright
Encoding: 125 125 80
Width: 464
VWidth: 0
Flags: W
HStem: -197.018 35.8401<-213.867 -106.102> 1563.31 35.7892<97.554 172.908>
VStem: 286.062 56.14<1112.17 1417.14>
LayerCount: 2
Back
SplineSet
-32 -178.799804688 m 4
 64.0388183594 -184.225708008 121.54296875 -115.32421875 182 11.2001953125 c 4
 253.827148438 161.51953125 200.0625 413.038085938 206.826171875 595.774414062 c 4
 207.612304688 617.000976562 308 678.783203125 308 701.200195312 c 4
 308 721.211914062 207.690429688 780.717773438 207.065429688 799.774414062 c 4
 200.959960938 985.836914062 254.721679688 1229.00683594 182 1381.20019531 c 4
 121.54296875 1507.72460938 64.0388183594 1579.77429199 -32 1581.20019531 c 4
EndSplineSet
Fore
SplineSet
-214.935799039 -184.867714483 m 0
 -214.935799039 -165.211701798 -185.412314081 -161.177692812 -167.856267309 -161.177692812 c 0
 -103.879831095 -161.177692812 -47.3274003053 -113.372943921 35.0673828125 12.5830078125 c 0
 128.520507812 155.442382812 121.20703125 406.94140625 160.657226562 591.854492188 c 0
 168.118164062 626.825195312 270.471679688 683.864257812 280.051757812 696.825195312 c 1
 273.921345646 713.288264662 196.546199316 760.991301947 196.546199316 792.497682071 c 0
 196.546199316 947.38619448 286.061538865 1137.04752821 286.061538865 1282.2919158 c 0
 286.061538865 1314.88434982 282.628832335 1345.18121312 274.466796875 1372.25292969 c 0
 235.901367188 1500.16113281 189.458984375 1562.16894531 112.953125 1563.30761719 c 0
 98.841796875 1563.51757812 91.7099609375 1571.83984375 97.2880859375 1581.5859375 c 0
 102.796201379 1591.20537817 118.904435877 1599.09682816 132.891379371 1599.09682816 c 0
 248.210669449 1599.09682816 291.938523501 1514.37778129 329.39453125 1390.14746094 c 0
 338.429845258 1360.17998287 342.201528764 1327.11721365 342.201528764 1291.94848671 c 0
 342.201528764 1142.4047971 274.005649994 954.783247173 252.3203125 805.147460938 c 1
 256.204256056 792.438004013 336.003257968 742.052259196 336.003257968 708.875207754 c 0
 336.003257968 670.878972134 223.758346254 609.981753667 215.724609375 598.99609375 c 1
 177.543945312 418.78125 188.690429688 167.3203125 85.658203125 9.81640625 c 0
 8.62645359213 -107.941766368 -69.9602933484 -197.017766848 -185.711713537 -197.017766848 c 0
 -199.441926821 -197.017766848 -214.935799039 -196.024216925 -214.935799039 -184.867714483 c 0
EndSplineSet
Validated: 524289
EndChar

StartChar: braceleft
Encoding: 123 123 81
Width: 464
VWidth: 0
Flags: W
HStem: -197.016 35.8355<282.151 366.798> 1563.31 35.7893<580.419 677.52>
VStem: 120.552 56.0915<-25.0679 280.69>
LayerCount: 2
Back
SplineSet
496.024414062 -178.799804688 m 4
 399.986328125 -184.225585938 342.481445312 -115.32421875 282.024414062 11.2001953125 c 4
 210.197265625 161.51953125 263.961914062 413.038085938 257.198242188 595.774414062 c 4
 256.412109375 617.000976562 156.024414062 678.783203125 156.024414062 701.200195312 c 4
 156.024414062 721.211914062 256.333984375 780.717773438 256.958984375 799.774414062 c 4
 263.064453125 985.836914062 209.302734375 1229.00683594 282.024414062 1381.20019531 c 4
 342.481445312 1507.72460938 399.986328125 1579.77441406 496.024414062 1581.20019531 c 4
EndSplineSet
Fore
SplineSet
367.7265625 -177.297851562 m 0
 361.783693794 -191.511295903 341.531022348 -197.016430245 320.032743364 -197.016430245 c 0
 210.932501466 -197.016430245 169.04306041 -117.546327269 132.923828125 2.2529296875 c 0
 124.201506083 31.1819462856 120.552311405 63.498977794 120.552311405 98.0993358859 c 0
 120.552311405 249.422983044 190.351350819 444.420376399 210.833984375 590.681640625 c 1
 208.447234569 604.428075232 128.04242409 657.762681766 128.04242409 693.116426197 c 0
 128.04242409 729.804066191 238.040804028 786.825060816 247.013671875 797.069335938 c 1
 285.28125 981.939453125 272.418945312 1223.23046875 376.66015625 1382.58300781 c 0
 456.309985575 1504.34369792 537.151481825 1599.0969418 660.890214478 1599.0969418 c 0
 671.98205754 1599.0969418 679.039381976 1594.13368624 679.039381976 1587.28104817 c 0
 679.039381976 1572.93827688 656.732985379 1563.52473513 642.108398438 1563.30761719 c 0
 573.266601562 1562.28808594 512.564453125 1510.23632812 427.25 1379.81738281 c 0
 332.510742188 1234.98828125 341.354492188 991.978515625 301.987304688 803.7421875 c 0
 295.09375 770.780273438 196.108398438 718.647460938 183.973632812 704.961914062 c 1
 189.431903464 687.292804454 266.581678119 636.668558025 266.581678119 603.321568716 c 0
 266.581678119 450.278832809 176.643809512 254.393337879 176.643809512 107.884211603 c 0
 176.643809512 75.8769900281 179.9671934 46.2972293402 187.8515625 20.1474609375 c 0
 225.258970951 -103.923619046 270.293262169 -161.180910541 340.75663381 -161.180910541 c 0
 357.284232208 -161.180910541 373.584337527 -163.287924131 367.7265625 -177.297851562 c 0
EndSplineSet
Validated: 524289
EndChar

StartChar: slash
Encoding: 47 47 82
Width: 1412
VWidth: 0
Flags: W
LayerCount: 2
Back
SplineSet
1168 1578 m 13
 228 -180 l 29
EndSplineSet
Fore
SplineSet
1174.60612772 1595.89447576 m 0
 1186.54886547 1595.89447576 1194.88102616 1589.98786449 1194.88102616 1582.1917554 c 0
 1194.88102616 1580.18876433 1194.33864009 1578.07507105 1193.19140625 1575.9296875 c 2
 253.19140625 -182.071289062 l 2
 248.375125239 -191.077970735 234.369735034 -197.894475761 221.394658265 -197.894475761 c 0
 209.451316992 -197.894475761 201.118984463 -191.987694107 201.118984463 -184.191696561 c 0
 201.118984463 -182.188722936 201.661371139 -180.07505004 202.80859375 -177.9296875 c 2
 1142.80859375 1580.07128906 l 2
 1147.62487476 1589.07797073 1161.63026496 1595.89447576 1174.60612772 1595.89447576 c 0
EndSplineSet
Validated: 524289
EndChar

StartChar: hyphen
Encoding: 45 45 83
Width: 564
VWidth: 0
Flags: W
HStem: 513.104 35.793<80.9354 483.065>
VStem: 80.0962 403.808<513.104 548.896>
LayerCount: 2
Back
SplineSet
107 531 m 25
 457 531 l 17
EndSplineSet
Fore
SplineSet
80.0962419998 526.775803078 m 0
 80.0962419998 540.082321315 98.9637148476 548.896484375 113.52734375 548.896484375 c 2
 463.52734375 548.896484375 l 2
 475.638243274 548.896484375 483.90381645 542.993275404 483.90381645 535.224552256 c 0
 483.90381645 521.917832679 465.037292567 513.103515625 450.473632812 513.103515625 c 2
 100.473632812 513.103515625 l 2
 88.3625790127 513.103515625 80.0962419998 519.007144051 80.0962419998 526.775803078 c 0
EndSplineSet
Validated: 524289
EndChar

StartChar: plus
Encoding: 43 43 84
Width: 824
VWidth: 0
Flags: W
HStem: 513.103 35.7939<160.936 385.075 438.925 663.065>
VStem: 385.075 53.8496<288.677 513.103 548.896 773.323>
LayerCount: 2
Back
SplineSet
412 306 m 25
 412 756 l 17
187 531 m 25
 637 531 l 17
EndSplineSet
Fore
SplineSet
438.924804688 310.337890625 m 2
 438.924804688 299.600735949 422.967402234 288.116962162 405.644230218 288.116962162 c 0
 393.957127322 288.116962162 385.075195312 293.611659544 385.075195312 301.661132812 c 2
 385.075195312 513.102539062 l 1
 180.473632812 513.102539062 l 2
 168.363020155 513.102539062 160.096844204 519.006713983 160.096844204 526.774954172 c 0
 160.096844204 540.081769761 178.962569163 548.896484375 193.52734375 548.896484375 c 2
 385.075195312 548.896484375 l 1
 385.075195312 751.662109375 l 2
 385.075195312 762.39942266 401.033643985 773.883037838 418.356085688 773.883037838 c 0
 430.043580176 773.883037838 438.924804688 768.388340456 438.924804688 760.338867188 c 2
 438.924804688 548.896484375 l 1
 643.52734375 548.896484375 l 2
 655.637552832 548.896484375 663.903761218 542.992869096 663.903761218 535.224222873 c 0
 663.903761218 521.917777699 645.036230713 513.102539062 630.47265625 513.102539062 c 2
 438.924804688 513.102539062 l 1
 438.924804688 310.337890625 l 2
EndSplineSet
Validated: 524289
EndChar

StartChar: equal
Encoding: 61 61 85
Width: 924
VWidth: 0
Flags: W
HStem: 413.103 35.7939<160.935 763.065> 613.103 35.7939<160.935 763.065>
VStem: 160.096 603.808<413.103 448.896 613.103 648.896>
LayerCount: 2
Back
SplineSet
187 631 m 29
 737 631 l 21
187 431 m 29
 737 431 l 21
EndSplineSet
Fore
SplineSet
160.095867641 426.774895702 m 0
 160.095867641 440.081861984 178.962398367 448.896484375 193.526367188 448.896484375 c 2
 743.52734375 448.896484375 l 2
 755.637552832 448.896484375 763.903761218 442.993138131 763.903761218 435.22428132 c 0
 763.903761218 421.917768716 745.035354271 413.102539062 730.47265625 413.102539062 c 2
 180.47265625 413.102539062 l 2
 168.362043593 413.102539062 160.095867641 419.006444898 160.095867641 426.774895702 c 0
160.095867641 626.774954172 m 0
 160.095867641 640.081769761 178.961592601 648.896484375 193.526367188 648.896484375 c 2
 743.52734375 648.896484375 l 2
 755.637552832 648.896484375 763.903761218 642.992869096 763.903761218 635.224222873 c 0
 763.903761218 621.917777699 745.036230713 613.102539062 730.47265625 613.102539062 c 2
 180.47265625 613.102539062 l 2
 168.362043593 613.102539062 160.095867641 619.006713983 160.095867641 626.774954172 c 0
EndSplineSet
Validated: 524289
EndChar

